<?xml version="1.0" standalone="no"?>
<!DOCTYPE svg PUBLIC "-//W3C//DTD SVG 1.1//EN" "http://www.w3.org/Graphics/SVG/1.1/DTD/svg11.dtd" >
<svg xmlns="http://www.w3.org/2000/svg">
<metadata></metadata>
<defs>
<font id="lato_latin_blackitalic" horiz-adv-x="1187" >
<font-face units-per-em="2048" ascent="1649" descent="-399" />
<missing-glyph horiz-adv-x="419" />
<glyph unicode="ff" horiz-adv-x="1329" d="M65 -252l134 1104l-60 14q-33 6 -52 23t-14 51l15 120h136l5 40q11 91 49 165t97.5 126.5t137 80.5t167.5 28q36 0 66 -4.5t61 -13.5l-29 -161q-5 -26 -28.5 -34t-47.5 -8q-38 0 -67 -6.5t-50.5 -25.5t-35 -52t-20.5 -85l-6 -50h322l9 80q11 91 50 164.5t99.5 126t140 81 t171.5 28.5q36 0 66 -4.5t61 -14.5l-29 -160q-5 -27 -28.5 -35t-47.5 -8q-79 0 -124 -42t-57 -147l-8 -69h225l-27 -210h-213l-97 -799l-55 -178q-20 -58 -57 -91.5t-107 -33.5h-129l131 1102h-310l-96 -799l-56 -178q-20 -58 -57 -91.5t-106 -33.5h-129z" />
<glyph unicode="fi" horiz-adv-x="1204" d="M62 -254l136 1099l-58 13q-34 8 -52.5 24t-14.5 49l14 129h137l2 15q11 96 53 180.5t114.5 147.5t178.5 99t246 36q43 0 89 -4.5t79 -13.5l-31 -155q-5 -27 -27.5 -34t-45.5 -7q-100 0 -166 -16t-107 -47t-61 -79t-27 -113l-1 -9h628l-129 -1060h-311l104 843h-306 l-95 -794l-56 -178q-20 -58 -57 -91.5t-107 -33.5h-129z" />
<glyph unicode="fl" horiz-adv-x="1213" d="M62 -254l135 1099l-57 13q-34 8 -53 24t-14 49l15 129h135l5 39q10 81 44 157.5t92.5 135.5t142.5 95t194 36q87 0 163 -6t156 -7h202l-187 -1510h-307l158 1292q-42 5 -83 10t-79 5q-85 0 -136 -51.5t-61 -156.5l-4 -39h203l-27 -217h-191l-97 -794l-56 -178 q-20 -58 -57 -91.5t-107 -33.5h-129z" />
<glyph unicode="ffi" horiz-adv-x="1829" d="M65 -252l134 1104l-60 14q-33 6 -52 23t-14 51l15 120h136l5 40q11 91 49 165t97.5 126.5t137 80.5t167.5 28q36 0 66 -4.5t61 -13.5l-29 -161q-5 -26 -28.5 -34t-47.5 -8q-38 0 -67 -6.5t-50.5 -25.5t-35 -52t-20.5 -85l-6 -50h330l2 15q11 96 52.5 180.5t114.5 147.5 t179 99t246 36q43 0 89 -4.5t79 -13.5l-31 -155q-5 -27 -27.5 -34t-46.5 -7q-100 0 -165.5 -16t-106.5 -47t-61 -79t-27 -113l-1 -9h625l-130 -1060h-307l105 850h-306l-97 -801l-55 -178q-20 -58 -57 -91.5t-107 -33.5h-129l136 1104h-318l-96 -799l-56 -178 q-20 -58 -57 -91.5t-106 -33.5h-129z" />
<glyph unicode="ffl" horiz-adv-x="1837" d="M59 -252l135 1102l-55 13q-33 6 -52 23.5t-14 50.5l15 120h131l5 43q11 91 49 165t97.5 126.5t137 80.5t167.5 28q36 0 66 -4.5t61 -13.5l-29 -161q-5 -26 -28.5 -34t-47.5 -8q-38 0 -67 -6.5t-50.5 -25.5t-35.5 -52t-20 -85l-7 -53h330l5 42q10 81 44 157.5t92.5 135.5 t142 95t194.5 36q87 0 163 -6t156 -7h201l-186 -1510h-307l157 1292q-42 5 -83 10t-78 5q-85 0 -136.5 -51.5t-60.5 -156.5l-4 -42h226l-27 -210h-213l-99 -798l-55 -178q-20 -58 -57 -91.5t-107 -33.5h-129l135 1101h-317l-96 -796l-56 -178q-20 -58 -57 -91.5t-107 -33.5 h-129z" />
<glyph unicode="fb" horiz-adv-x="1835" d="M62 -254l137 1099l-59 13q-34 8 -53 24t-14 49l15 129h137l9 75q10 81 45.5 157.5t97 135.5t148.5 95t200 36q72 0 141 -4t131.5 -8.5t117 -8.5t97.5 -5h21l-79 -638q71 86 154.5 134.5t176.5 48.5q66 0 120 -23t93.5 -72t61.5 -125.5t22 -181.5q0 -139 -42.5 -264.5 t-114.5 -221t-165.5 -151t-195.5 -55.5q-79 0 -139 30t-102 79l-3 -10q-14 -43 -36.5 -63t-74.5 -20h-174l163 1339q-39 8 -77 16t-73 8q-90 0 -147.5 -61.5t-66.5 -166.5l-10 -75h219l-26 -217h-209l-97 -794l-56 -178q-20 -58 -57 -91.5t-107 -33.5h-129zM1075 262 q30 -25 67 -35t70 -10q55 0 102 37t80.5 97t52.5 136.5t19 156.5q0 101 -29.5 147.5t-78.5 46.5q-34 0 -70.5 -26t-70 -70.5t-63 -104t-48.5 -127.5v-2z" />
<glyph unicode="ffb" horiz-adv-x="2460" d="M63 -252l135 1101l-60 14q-33 6 -52 23.5t-14 50.5l15 120h136l5 43q11 91 49 165t97.5 126.5t137 80.5t167.5 28q36 0 66 -4.5t61 -13.5l-29 -161q-5 -26 -28.5 -34t-47.5 -8q-38 0 -67 -6.5t-50.5 -25.5t-35 -52t-20.5 -85l-7 -53h330l10 78q10 81 45.5 157.5t97 135.5 t148.5 95t200 36q76 0 148.5 -4.5t137.5 -9t121 -8.5t99 -4h1l-79 -638q71 86 154 134.5t176 48.5q66 0 120.5 -23t93.5 -72t61 -125.5t22 -181.5q0 -139 -42.5 -264.5t-114 -221t-165 -151t-196.5 -55.5q-79 0 -138.5 30t-101.5 79l-3 -10q-14 -43 -37 -63t-74 -20h-174 l163 1340q-39 8 -76.5 15.5t-73.5 7.5q-90 0 -147.5 -61.5t-66.5 -166.5l-9 -78h221l-27 -210h-209l-99 -798l-55 -178q-20 -58 -57 -91.5t-107 -33.5h-129l136 1101h-317l-96 -796l-56 -178q-20 -58 -57 -91.5t-106 -33.5h-130zM1701 262q30 -25 66.5 -35t70.5 -10 q55 0 102 37t80.5 97t52.5 136.5t19 156.5q0 101 -30 147.5t-79 46.5q-34 0 -70 -26t-70 -70.5t-63 -104t-48 -127.5v-2z" />
<glyph unicode="fh" horiz-adv-x="1832" d="M62 -254l137 1099l-59 13q-34 8 -53 24t-14 49l15 129h137l9 75q10 81 45.5 157.5t97 135.5t148.5 95t200 36q72 0 141 -4t131.5 -8.5t117 -8.5t97.5 -5h19l-75 -610q73 80 154 117.5t167 37.5q67 0 121.5 -26.5t91 -77.5t52 -126.5t3.5 -172.5l-80 -675h-317l79 675 q5 43 3 72.5t-11 48t-25.5 26t-39.5 7.5q-32 0 -67 -18.5t-67 -53.5t-60 -84t-47 -110l-69 -563h-317l163 1341q-37 8 -73 15t-69 7q-90 0 -147.5 -61.5t-66.5 -166.5l-10 -75h219l-26 -217h-209l-97 -794l-56 -178q-20 -58 -57 -91.5t-107 -33.5h-129z" />
<glyph unicode="ffh" horiz-adv-x="2459" d="M63 -252l135 1101l-60 14q-33 6 -52 23.5t-14 50.5l15 120h136l5 43q11 91 49 165t97.5 126.5t137 80.5t167.5 28q36 0 66 -4.5t61 -13.5l-29 -161q-5 -26 -28.5 -34t-47.5 -8q-38 0 -67 -6.5t-50.5 -25.5t-35 -52t-20.5 -85l-7 -53h330l10 78q10 81 45.5 157.5t97 135.5 t148.5 95t200 36q76 0 148.5 -4.5t137.5 -9t121 -8.5t99 -4l-75 -610q73 80 153.5 117.5t166.5 37.5q67 0 121.5 -26.5t91.5 -77.5t52.5 -126.5t3.5 -172.5l-80 -675h-318l80 675q5 43 3 72.5t-11 48t-25.5 26t-40.5 7.5q-32 0 -66.5 -18.5t-66.5 -53.5t-60.5 -84 t-46.5 -110l-69 -563h-317l163 1341q-37 8 -73 15t-70 7q-90 0 -147.5 -61.5t-66.5 -166.5l-9 -78h221l-27 -210h-209l-99 -798l-55 -178q-20 -58 -57 -91.5t-107 -33.5h-129l136 1101h-317l-96 -796l-56 -178q-20 -58 -57 -91.5t-106 -33.5h-130z" />
<glyph unicode="f&#xec;" horiz-adv-x="1204" d="M67 -252l134 1096l-61 14q-34 8 -53 24t-14 49l14 129h140l14 107q10 83 38 149.5t73.5 113t107.5 71.5t139 25q29 0 54.5 -2.5t47.5 -11.5l-1 -4h266q44 0 64 -15.5t32 -45.5l99 -251h-166q-33 0 -51.5 9.5t-37.5 33.5l-207 260l-18 -148q-2 -22 -20 -30.5t-37 -8.5 q-42 0 -61 -33.5t-26 -111.5l-14 -107h625l-129 -1060h-311l104 843h-306l-96 -792l-51 -178q-20 -58 -57 -91.5t-106 -33.5h-129z" />
<glyph unicode="f&#xee;" horiz-adv-x="1204" d="M67 -252l134 1096l-61 14q-34 8 -53 24t-14 49l14 129h140l14 107q10 83 38 149.5t73.5 113t107.5 71.5t139 25q29 0 54.5 -2.5t47.5 -11.5l-20 -161q-2 -22 -20 -30.5t-37 -8.5q-42 0 -61 -33.5t-26 -111.5l-14 -107h625l-129 -1060h-311l104 843h-306l-96 -792 l-51 -178q-20 -58 -57 -91.5t-106 -33.5h-129zM668 1196l254 296h275l186 -296h-193q-17 0 -32.5 5.5t-30.5 23.5l-61 85q-5 6 -10 13t-10 15q-15 -18 -27 -28l-82 -85q-15 -14 -32.5 -21.5t-35.5 -7.5h-201z" />
<glyph unicode="f&#x129;" horiz-adv-x="1204" d="M67 0zM67 -252l134 1096l-61 14q-34 8 -53 24t-14 49l14 129h140l14 107q10 83 38 149.5t73.5 113t107.5 71.5t139 25q29 0 54.5 -2.5t47.5 -11.5l-20 -161q-2 -22 -20 -30.5t-37 -8.5q-42 0 -61 -33.5t-26 -111.5l-14 -107h625l-129 -1060h-311l104 843h-306l-96 -792 l-51 -178q-20 -58 -57 -91.5t-106 -33.5h-129zM686 1214q7 65 30.5 116.5t57 88.5t75.5 57t87 20q35 0 64 -11.5t53.5 -26t44 -26.5t35.5 -12q23 0 38 13t20 55h177q-8 -65 -30.5 -116.5t-55.5 -88t-75 -56t-88 -19.5q-35 0 -64 12t-53.5 26.5t-44 26t-35.5 11.5 q-24 0 -37.5 -14t-18.5 -56h-180z" />
<glyph unicode="f&#xef;" horiz-adv-x="1204" d="M67 -252l134 1096l-61 14q-34 8 -53 24t-14 49l14 129h140l14 107q10 83 38 149.5t73.5 113t107.5 71.5t139 25q29 0 54.5 -2.5t47.5 -11.5l-20 -161q-2 -22 -20 -30.5t-37 -8.5q-42 0 -61 -33.5t-26 -111.5l-14 -107h625l-129 -1060h-311l104 843h-306l-96 -792 l-51 -178q-20 -58 -57 -91.5t-106 -33.5h-129zM707 1327q0 31 11.5 57t31.5 46t46 31.5t55 11.5q31 0 58 -11.5t47 -31.5t31.5 -46t11.5 -57q0 -29 -11.5 -54.5t-31.5 -44.5t-47 -29.5t-58 -10.5q-29 0 -55 10.5t-46 29.5t-31.5 44.5t-11.5 54.5zM1031 1327q0 31 11.5 57 t31.5 46t46 31.5t57 11.5t57.5 -11.5t46 -31.5t31.5 -46t12 -57q0 -29 -12 -54.5t-31.5 -44.5t-46.5 -29.5t-57 -10.5q-31 0 -57 10.5t-46 29.5t-31.5 44.5t-11.5 54.5z" />
<glyph unicode="f&#x12b;" horiz-adv-x="1204" d="M67 0zM67 -252l134 1096l-61 14q-34 8 -53 24t-14 49l14 129h140l14 107q10 83 38 149.5t73.5 113t107.5 71.5t139 25q29 0 54.5 -2.5t47.5 -11.5l-20 -161q-2 -22 -20 -30.5t-37 -8.5q-42 0 -61 -33.5t-26 -111.5l-14 -107h625l-129 -1060h-311l104 843h-306l-96 -792 l-51 -178q-20 -58 -57 -91.5t-106 -33.5h-129zM720 1230l23 194h584l-23 -194h-584z" />
<glyph unicode="f&#x12f;" horiz-adv-x="1204" d="M62 -254l136 1099l-58 13q-34 8 -52.5 24t-14.5 49l14 129h137l2 15q11 96 53 180.5t114.5 147.5t178.5 99t246 36q43 0 89 -4.5t79 -13.5l-31 -155q-5 -27 -27.5 -34t-45.5 -7q-100 0 -166 -16t-107 -47t-61 -79t-27 -113l-1 -9h628l-129 -1060h-40q-43 -24 -71 -57.5 t-28 -76.5q0 -20 8.5 -32.5t29.5 -12.5q12 0 19.5 1t12 2.5t8.5 3t9 1.5q23 0 25 -19l33 -114q-36 -22 -88 -36.5t-110 -14.5q-97 0 -145 38.5t-48 98.5q0 56 36.5 112t124.5 106h-87l104 843h-306l-95 -794l-56 -178q-20 -58 -57 -91.5t-107 -33.5h-129z" />
<glyph unicode="f&#x131;" horiz-adv-x="1204" d="M67 -252l134 1096l-61 14q-34 8 -53 24t-14 49l14 129h140l14 107q10 83 38 149.5t73.5 113t107.5 71.5t139 25q29 0 54.5 -2.5t47.5 -11.5l-20 -161q-2 -22 -20 -30.5t-37 -8.5q-42 0 -61 -33.5t-26 -111.5l-14 -107h625l-129 -1060h-311l104 843h-306l-96 -792 l-51 -178q-20 -58 -57 -91.5t-106 -33.5h-129z" />
<glyph unicode="ff&#xec;" horiz-adv-x="1829" d="M65 -252l134 1104l-60 14q-33 6 -52 23t-14 51l15 120h136l5 40q11 91 49 165t97.5 126.5t137 80.5t167.5 28q36 0 66 -4.5t61 -13.5l-29 -161q-5 -26 -28.5 -34t-47.5 -8q-38 0 -67 -6.5t-50.5 -25.5t-35 -52t-20.5 -85l-6 -50h332l13 107q10 83 38.5 149.5t74 113 t107.5 71.5t139 25q29 0 54.5 -2.5t47.5 -11.5l-1 -4h267q44 0 64 -15.5t33 -45.5l99 -251h-166q-33 0 -52 9.5t-37 33.5l-209 262l-18 -150q-2 -22 -20 -30.5t-38 -8.5q-42 0 -61 -33.5t-26 -111.5l-13 -107h623l-130 -1060h-307l105 850h-307l-98 -799l-50 -178 q-20 -58 -57 -91.5t-107 -33.5h-129l135 1102h-320l-96 -799l-56 -178q-20 -58 -57 -91.5t-106 -33.5h-129z" />
<glyph unicode="ff&#xee;" horiz-adv-x="1829" d="M65 0zM65 -252l134 1104l-60 14q-33 6 -52 23t-14 51l15 120h136l5 40q11 91 49 165t97.5 126.5t137 80.5t167.5 28q36 0 66 -4.5t61 -13.5l-29 -161q-5 -26 -28.5 -34t-47.5 -8q-38 0 -67 -6.5t-50.5 -25.5t-35 -52t-20.5 -85l-6 -50h332l13 107q10 83 38.5 149.5 t74 113t107.5 71.5t139 25q29 0 54.5 -2.5t47.5 -11.5l-20 -161q-2 -22 -20 -30.5t-38 -8.5q-42 0 -61 -33.5t-26 -111.5l-13 -107h623l-130 -1060h-307l105 850h-307l-98 -799l-50 -178q-20 -58 -57 -91.5t-107 -33.5h-129l135 1102h-320l-96 -799l-56 -178 q-20 -58 -57 -91.5t-106 -33.5h-129zM1293 1196l254 296h275l186 -296h-193q-17 0 -32.5 5.5t-30.5 23.5l-61 85q-5 6 -10 13t-11 15q-15 -18 -26 -28l-82 -85q-15 -14 -32.5 -21.5t-35.5 -7.5h-201z" />
<glyph unicode="ff&#x129;" horiz-adv-x="1829" d="M65 0zM65 -252l134 1104l-60 14q-33 6 -52 23t-14 51l15 120h136l5 40q11 91 49 165t97.5 126.5t137 80.5t167.5 28q36 0 66 -4.5t61 -13.5l-29 -161q-5 -26 -28.5 -34t-47.5 -8q-38 0 -67 -6.5t-50.5 -25.5t-35 -52t-20.5 -85l-6 -50h332l13 107q10 83 38.5 149.5 t74 113t107.5 71.5t139 25q29 0 54.5 -2.5t47.5 -11.5l-20 -161q-2 -22 -20 -30.5t-38 -8.5q-42 0 -61 -33.5t-26 -111.5l-13 -107h623l-130 -1060h-307l105 850h-307l-98 -799l-50 -178q-20 -58 -57 -91.5t-107 -33.5h-129l135 1102h-320l-96 -799l-56 -178 q-20 -58 -57 -91.5t-106 -33.5h-129zM1327 1214q7 65 30.5 116.5t57 88.5t75.5 57t87 20q35 0 64 -11.5t53.5 -26t44 -26.5t35.5 -12q23 0 38 13t20 55h177q-8 -65 -30.5 -116.5t-55.5 -88t-75 -56t-88 -19.5q-35 0 -64 12t-53.5 26.5t-44 26t-35.5 11.5q-24 0 -37.5 -14 t-18.5 -56h-180z" />
<glyph unicode="ff&#xef;" horiz-adv-x="1828" d="M65 -252l134 1104l-60 14q-33 6 -52 23t-14 51l15 120h136l5 40q11 91 49 165t97.5 126.5t137 80.5t167.5 28q36 0 66 -4.5t61 -13.5l-29 -161q-5 -26 -28.5 -34t-47.5 -8q-38 0 -67 -6.5t-50.5 -25.5t-35 -52t-20.5 -85l-6 -50h332l13 107q10 83 38.5 149.5t74 113 t107.5 71.5t139 25q29 0 54.5 -2.5t47.5 -11.5l-20 -161q-2 -22 -20 -30.5t-38 -8.5q-42 0 -61 -33.5t-26 -111.5l-13 -107h623l-130 -1060h-307l105 850h-307l-98 -799l-50 -178q-20 -58 -57 -91.5t-107 -33.5h-129l135 1102h-320l-96 -799l-56 -178q-20 -58 -57 -91.5 t-106 -33.5h-129zM1402 1327q0 31 11.5 57t31.5 46t46.5 31.5t54.5 11.5q31 0 58 -11.5t47 -31.5t32 -46t12 -57q0 -29 -12 -54.5t-32 -44.5t-47 -29.5t-58 -10.5q-29 0 -55 10.5t-46 29.5t-31.5 44.5t-11.5 54.5zM1726 1327q0 31 11.5 57t31.5 46t46 31.5t57 11.5 t57.5 -11.5t46.5 -31.5t31.5 -46t11.5 -57q0 -29 -11.5 -54.5t-31.5 -44.5t-46.5 -29.5t-57.5 -10.5t-57 10.5t-46 29.5t-31.5 44.5t-11.5 54.5z" />
<glyph unicode="ff&#x12b;" horiz-adv-x="1829" d="M65 0zM65 -252l134 1104l-60 14q-33 6 -52 23t-14 51l15 120h136l5 40q11 91 49 165t97.5 126.5t137 80.5t167.5 28q36 0 66 -4.5t61 -13.5l-29 -161q-5 -26 -28.5 -34t-47.5 -8q-38 0 -67 -6.5t-50.5 -25.5t-35 -52t-20.5 -85l-6 -50h332l13 107q10 83 38.5 149.5 t74 113t107.5 71.5t139 25q29 0 54.5 -2.5t47.5 -11.5l-20 -161q-2 -22 -20 -30.5t-38 -8.5q-42 0 -61 -33.5t-26 -111.5l-13 -107h623l-130 -1060h-307l105 850h-307l-98 -799l-50 -178q-20 -58 -57 -91.5t-107 -33.5h-129l135 1102h-320l-96 -799l-56 -178 q-20 -58 -57 -91.5t-106 -33.5h-129zM1350 1230l23 194h584l-23 -194h-584z" />
<glyph unicode="ff&#x12f;" horiz-adv-x="1829" d="M65 -252l134 1104l-60 14q-33 6 -52 23t-14 51l15 120h136l5 40q11 91 49 165t97.5 126.5t137 80.5t167.5 28q36 0 66 -4.5t61 -13.5l-29 -161q-5 -26 -28.5 -34t-47.5 -8q-38 0 -67 -6.5t-50.5 -25.5t-35 -52t-20.5 -85l-6 -50h330l2 15q11 96 52.5 180.5t114.5 147.5 t179 99t246 36q43 0 89 -4.5t79 -13.5l-31 -155q-5 -27 -27.5 -34t-46.5 -7q-100 0 -165.5 -16t-106.5 -47t-61 -79t-27 -113l-1 -9h625l-130 -1060h-46q-43 -24 -71 -57.5t-28 -76.5q0 -20 9 -32.5t29 -12.5q12 0 20 1t12.5 2.5t8 3t8.5 1.5q23 0 26 -19l33 -114 q-36 -22 -88.5 -36.5t-109.5 -14.5q-97 0 -145.5 38.5t-48.5 98.5q0 56 36.5 112t124.5 106h-77l105 850h-306l-97 -801l-55 -178q-20 -58 -57 -91.5t-107 -33.5h-129l136 1104h-318l-96 -799l-56 -178q-20 -58 -57 -91.5t-106 -33.5h-129z" />
<glyph unicode="ff&#x131;" horiz-adv-x="1829" d="M65 -252l134 1104l-60 14q-33 6 -52 23t-14 51l15 120h136l5 40q11 91 49 165t97.5 126.5t137 80.5t167.5 28q36 0 66 -4.5t61 -13.5l-29 -161q-5 -26 -28.5 -34t-47.5 -8q-38 0 -67 -6.5t-50.5 -25.5t-35 -52t-20.5 -85l-6 -50h332l13 107q10 83 38.5 149.5t74 113 t107.5 71.5t139 25q29 0 54.5 -2.5t47.5 -11.5l-20 -161q-2 -22 -20 -30.5t-38 -8.5q-42 0 -61 -33.5t-26 -111.5l-13 -107h623l-130 -1060h-307l105 850h-307l-98 -799l-50 -178q-20 -58 -57 -91.5t-107 -33.5h-129l135 1102h-320l-96 -799l-56 -178q-20 -58 -57 -91.5 t-106 -33.5h-129z" />
<glyph unicode="fj" horiz-adv-x="1202" d="M63 -254l137 1106l-61 14q-33 6 -52 23t-14 51l15 120h137l2 15q11 96 53 180.5t114.5 147.5t178.5 99t246 36q43 0 89 -4.5t79 -13.5l-31 -155q-5 -27 -27.5 -34t-45.5 -7q-100 0 -166 -16t-107 -47t-61 -79t-27 -113l-1 -9h624l-127 -1062q-9 -75 -37.5 -141 t-77 -115.5t-118 -78.5t-160.5 -29q-45 0 -77 5t-65 14l31 167q5 22 18.5 32t47.5 10q33 0 54.5 6t36 21.5t22.5 41.5t14 67l101 852h-300l-96 -801l-56 -178q-20 -58 -57 -91.5t-106 -33.5h-130z" />
<glyph unicode="ffj" horiz-adv-x="1831" d="M65 -252l134 1104l-60 14q-33 6 -52 23t-14 51l15 120h136l5 40q11 91 49 165t97.5 126.5t137 80.5t167.5 28q36 0 66 -4.5t61 -13.5l-29 -161q-5 -26 -28.5 -34t-47.5 -8q-38 0 -67 -6.5t-50.5 -25.5t-35 -52t-20.5 -85l-6 -50h330l2 15q11 96 52.5 180.5t114.5 147.5 t179 99t246 36q43 0 89 -4.5t79 -13.5l-31 -155q-5 -27 -27.5 -34t-46.5 -7q-100 0 -165.5 -16t-106.5 -47t-61 -79t-27 -113l-1 -9h626l-127 -1063q-9 -75 -37.5 -141t-77 -115.5t-118 -78.5t-161.5 -29q-45 0 -76.5 5t-64.5 14l31 167q5 22 18.5 32t46.5 10t55 6 t36.5 21.5t22.5 41.5t13 67l102 853h-302l-97 -801l-55 -178q-20 -58 -57 -91.5t-107 -33.5h-129l136 1104h-318l-96 -799l-56 -178q-20 -58 -57 -91.5t-106 -33.5h-129z" />
<glyph unicode="fk" horiz-adv-x="1778" d="M62 -254l137 1099l-59 13q-34 8 -53 24t-14 49l15 129h137l9 75q10 81 45.5 157.5t97 135.5t148.5 95t200 36q76 0 148.5 -4.5t137.5 -9t121 -8.5t99 -4h1l-106 -859h22q27 0 42.5 8.5t33.5 29.5l219 299q20 26 43 38.5t57 12.5h285l-297 -378q-43 -53 -96 -83 q22 -17 37 -40.5t28 -52.5l213 -508h-276q-34 0 -56 12t-34 41l-148 376q-11 26 -24 33.5t-41 7.5h-33l-58 -470h-313l165 1340q-39 8 -76 15.5t-71 7.5q-90 0 -147.5 -61.5t-66.5 -166.5l-10 -75h219l-26 -217h-209l-97 -794l-56 -178q-20 -58 -57 -91.5t-107 -33.5h-129z " />
<glyph unicode="ffk" horiz-adv-x="2406" d="M63 -252l135 1101l-60 14q-33 6 -52 23.5t-14 50.5l15 120h136l5 43q11 91 49 165t97.5 126.5t137 80.5t167.5 28q36 0 66 -4.5t61 -13.5l-29 -161q-5 -26 -28.5 -34t-47.5 -8q-38 0 -67 -6.5t-50.5 -25.5t-35 -52t-20.5 -85l-7 -53h330l10 78q10 81 45.5 157.5t97 135.5 t148.5 95t200 36q72 0 141 -4t131.5 -8.5t117 -8.5t97.5 -5h19l-106 -859h22q27 0 42.5 8.5t32.5 29.5l219 299q20 26 43.5 38.5t57.5 12.5h285l-297 -378q-43 -53 -97 -83q22 -17 37.5 -40.5t28.5 -52.5l213 -508h-277q-34 0 -55.5 12t-34.5 41l-147 376q-11 26 -24 33.5 t-42 7.5h-33l-57 -470h-313l165 1340q-38 8 -75 15.5t-72 7.5q-90 0 -147.5 -61.5t-66.5 -166.5l-9 -78h221l-27 -210h-209l-99 -798l-55 -178q-20 -58 -57 -91.5t-107 -33.5h-129l136 1101h-317l-96 -796l-56 -178q-20 -58 -57 -91.5t-106 -33.5h-130z" />
<glyph unicode="ft" horiz-adv-x="1412" d="M65 -252l133 1105l-59 13q-33 6 -52 23t-14 51l15 120h135l7 60q11 91 50 165t99.5 126t140 81t171.5 29q36 0 66 -5t61 -15l-28 -160q-5 -27 -29 -35t-47 -8q-79 0 -125.5 -42t-59.5 -146l-6 -50h357l90 261q17 49 69 49h172l-39 -310h239l-27 -210h-237l-52 -424 q-5 -42 -8.5 -66t-5 -37t-1.5 -17.5v-5.5q0 -30 14 -50t44 -20q16 0 27 4t19 8.5t15 8t16 3.5q14 0 21.5 -6.5t13.5 -21.5l70 -150q-63 -46 -136 -69t-147 -23q-61 0 -110 16.5t-84.5 49t-55.5 77.5t-22 102v17.5t1.5 29.5t5 50t9.5 83l56 441h-328l-96 -799l-56 -178 q-20 -58 -57 -91.5t-106 -33.5h-129z" />
<glyph unicode="fft" horiz-adv-x="2041" d="M63 -252l135 1102l-59 13q-33 6 -52 23.5t-14 50.5l15 120h135l5 43q11 91 49 165t97.5 126.5t137 80.5t167.5 28q36 0 66 -4.5t61 -13.5l-29 -161q-5 -26 -28.5 -34t-47.5 -8q-38 0 -67 -6.5t-50.5 -25.5t-35 -52t-20.5 -85l-7 -53h322l10 83q11 91 50 164.5t99.5 126 t140 81t171.5 28.5q36 0 66 -4.5t61 -14.5l-29 -160q-5 -27 -28.5 -35t-47.5 -8q-79 0 -124 -42t-57 -147l-8 -72h361l91 264q17 49 70 49h172l-39 -313h239l-28 -210h-236l-53 -421q-5 -42 -8 -66t-4.5 -37t-1.5 -17.5v-5.5q0 -30 14 -50t43 -20q16 0 27 4t19.5 8.5t15.5 8 t16 3.5q14 0 21.5 -6.5t13.5 -21.5l70 -150q-63 -46 -136 -69t-147 -23q-61 0 -110.5 16.5t-84.5 49t-55 77.5t-22 102v17.5t1.5 29.5t5 50t9.5 83l54 438h-333l-97 -796l-55 -178q-20 -58 -57 -91.5t-107 -33.5h-129l131 1099h-310l-96 -796l-56 -178q-20 -58 -57 -91.5 t-106 -33.5h-130z" />
<glyph unicode="tf" horiz-adv-x="1367" d="M62 908l16 119l155 32l92 262q17 49 69 49h172l-39 -313h356l7 61q11 91 50 165t99.5 126t139.5 81t172 29q36 0 66 -5t61 -14l-29 -161q-5 -27 -28.5 -35t-47.5 -8q-79 0 -125.5 -42t-58.5 -146l-6 -51h227l-28 -210h-214l-96 -798l-55 -178q-20 -58 -57 -91.5 t-107 -33.5h-129l133 1101h-355l-52 -421q-5 -42 -8.5 -66t-5 -37t-1.5 -17.5v-5.5q0 -30 14 -50t44 -20q16 0 26.5 4t19 8.5t15.5 8t16 3.5q14 0 21.5 -6.5t13.5 -21.5l70 -150q-63 -46 -136 -69t-147 -23q-61 0 -110.5 16.5t-84.5 49t-55 77.5t-22 102v17.5t1.5 29.5t5 50 t9.5 83l54 438h-78q-24 0 -39 16t-11 45z" />
<glyph unicode="t&#x12f;" horiz-adv-x="1284" d="M62 908l16 119l155 32l92 262q17 49 69 49h172l-39 -313h702l-130 -1057h-28q-43 -24 -72.5 -58.5t-29.5 -78.5q0 -20 10 -33.5t31 -13.5q28 0 36 4.5t17 4.5q22 0 24 -20l31 -109q-36 -22 -87.5 -36.5t-106.5 -14.5q-96 0 -143.5 38.5t-47.5 97.5q0 57 37.5 113.5 t122.5 105.5h-100l104 847h-395l-52 -421q-5 -42 -8.5 -66t-5 -37t-1.5 -17.5v-5.5q0 -30 14 -50t44 -20q16 0 26.5 4t19 8.5t15.5 8t16 3.5q14 0 21.5 -6.5t13.5 -21.5l70 -150q-63 -46 -136 -69t-147 -23q-61 0 -110.5 16.5t-84.5 49t-55 77.5t-22 102v17.5t1.5 29.5t5 50 t9.5 83l54 438h-78q-24 0 -39 16t-11 45zM925 1353q0 38 15 71.5t41.5 59t59 40.5t68.5 15q37 0 70.5 -14.5t60 -40t42 -59t15.5 -72.5q0 -38 -16 -71.5t-43 -58.5t-61 -40t-70 -15t-68.5 15t-58 40t-40.5 58.5t-15 71.5z" />
<glyph unicode="t&#x131;" horiz-adv-x="1283" d="M60 908l16 119l155 32l92 262q15 49 69 49h172l-39 -313h702l-130 -1057h-306l104 847h-395l-53 -421q-5 -42 -8 -66t-4.5 -37t-1.5 -17.5v-5.5q0 -30 14 -50t43 -20q16 0 27 4t19.5 8.5t15.5 8t16 3.5q14 0 21.5 -6.5t13.5 -21.5l70 -150q-63 -46 -136 -69t-147 -23 q-61 0 -110.5 16.5t-84.5 49t-55 77.5t-22 102v17.5t1.5 29.5t5 50t9.5 83l54 438h-78q-24 0 -39 16t-11 45z" />
<glyph unicode="tt" horiz-adv-x="1402" d="M60 908l16 119l155 32l92 262q17 49 69 49h172l-39 -313h345l92 264q17 49 69 49h172l-39 -313h235l-28 -210h-232l-53 -421q-5 -42 -8 -66t-4.5 -37t-1.5 -17.5v-5.5q0 -30 14 -50t43 -20q16 0 27 4t19.5 8.5t15.5 8t16 3.5q14 0 21.5 -6.5t13.5 -21.5l70 -150 q-63 -46 -136 -69t-147 -23q-61 0 -110.5 16.5t-84.5 49t-55 77.5t-22 102v17.5t1.5 29.5t5 50t9.5 83l54 438h-327l-53 -421q-5 -42 -8 -66t-4.5 -37t-1.5 -17.5v-5.5q0 -30 14 -50t43 -20q16 0 27 4t19.5 8.5t15.5 8t16 3.5q14 0 21.5 -6.5t13.5 -21.5l70 -150 q-63 -46 -136 -69t-147 -23q-61 0 -110.5 16.5t-84.5 49t-55 77.5t-22 102v17.5t1.5 29.5t5 50t9.5 83l54 438h-78q-24 0 -39 16t-11 45z" />
<glyph unicode="ttf" horiz-adv-x="2006" d="M62 908l16 119l155 32l92 262q17 49 69 49h172l-39 -313h345l92 264q17 49 69 49h172l-39 -313h356l7 61q11 91 50 165t99.5 126t139.5 81t172 29q36 0 66 -5t61 -14l-29 -161q-5 -27 -28.5 -35t-47.5 -8q-39 0 -70.5 -9.5t-55 -32t-38.5 -58.5t-20 -88l-6 -51h226 l-27 -210h-214l-96 -798l-55 -178q-20 -58 -57 -91.5t-107 -33.5h-129l133 1101h-355l-52 -421q-5 -42 -8.5 -66t-5 -37t-1.5 -17.5v-5.5q0 -30 14 -50t44 -20q16 0 26.5 4t19 8.5t15.5 8t16 3.5q14 0 21.5 -6.5t13.5 -21.5l70 -150q-63 -46 -136 -69t-147 -23 q-61 0 -110.5 16.5t-84.5 49t-55 77.5t-22 102v17.5t1.5 29.5t5 50t9.5 83l54 438h-327l-52 -421q-5 -42 -8.5 -66t-5 -37t-1.5 -17.5v-5.5q0 -30 14 -50t44 -20q16 0 26.5 4t19 8.5t15.5 8t16 3.5q14 0 21.5 -6.5t13.5 -21.5l70 -150q-63 -46 -136 -69t-147 -23 q-61 0 -110.5 16.5t-84.5 49t-55 77.5t-22 102v17.5t1.5 29.5t5 50t9.5 83l54 438h-78q-24 0 -39 16t-11 45z" />
<glyph unicode="tt&#x12f;" horiz-adv-x="1904" d="M62 908l16 119l155 32l92 262q17 49 69 49h172l-39 -313h345l92 264q17 49 69 49h172l-39 -313h682l-130 -1056l12 -1q-43 -24 -71.5 -57.5t-28.5 -76.5q0 -20 9 -32.5t29 -12.5q12 0 20 1t12.5 2.5t8 3t8.5 1.5q23 0 26 -19l33 -114q-36 -22 -88.5 -36.5t-109.5 -14.5 q-97 0 -145.5 38.5t-48.5 98.5q0 56 36.5 112t124.5 106h-132l105 847h-377l-52 -421q-5 -42 -8.5 -66t-5 -37t-1.5 -17.5v-5.5q0 -30 14 -50t44 -20q16 0 26.5 4t19 8.5t15.5 8t16 3.5q14 0 21.5 -6.5t13.5 -21.5l70 -150q-63 -46 -136 -69t-147 -23q-61 0 -110.5 16.5 t-84.5 49t-55 77.5t-22 102v17.5t1.5 29.5t5 50t9.5 83l54 438h-327l-52 -421q-5 -42 -8.5 -66t-5 -37t-1.5 -17.5v-5.5q0 -30 14 -50t44 -20q16 0 26.5 4t19 8.5t15.5 8t16 3.5q14 0 21.5 -6.5t13.5 -21.5l70 -150q-63 -46 -136 -69t-147 -23q-61 0 -110.5 16.5t-84.5 49 t-55 77.5t-22 102v17.5t1.5 29.5t5 50t9.5 83l54 438h-78q-24 0 -39 16t-11 45zM1546 1353q0 38 15.5 71.5t41.5 59t59 40.5t69 15q37 0 70.5 -14.5t59.5 -40t42 -59t16 -72.5q0 -38 -16.5 -71.5t-43 -58.5t-61 -40t-69.5 -15q-36 0 -69 15t-58 40t-40.5 58.5t-15.5 71.5z " />
<glyph unicode="tt&#x131;" horiz-adv-x="1902" d="M60 908l16 119l155 32l92 262q17 49 69 49h172l-39 -313h345l92 264q17 49 69 49h172l-39 -313h682l-130 -1057h-305l105 847h-377l-53 -421q-5 -42 -8 -66t-4.5 -37t-1.5 -17.5v-5.5q0 -30 14 -50t43 -20q16 0 27 4t19.5 8.5t15.5 8t16 3.5q14 0 21.5 -6.5t13.5 -21.5 l70 -150q-63 -46 -136 -69t-147 -23q-61 0 -110.5 16.5t-84.5 49t-55 77.5t-22 102v17.5t1.5 29.5t5 50t9.5 83l54 438h-327l-53 -421q-5 -42 -8 -66t-4.5 -37t-1.5 -17.5v-5.5q0 -30 14 -50t43 -20q16 0 27 4t19.5 8.5t15.5 8t16 3.5q14 0 21.5 -6.5t13.5 -21.5l70 -150 q-63 -46 -136 -69t-147 -23q-61 0 -110.5 16.5t-84.5 49t-55 77.5t-22 102v17.5t1.5 29.5t5 50t9.5 83l54 438h-78q-24 0 -39 16t-11 45z" />
<glyph unicode="f&#x237;" horiz-adv-x="1202" d="M66 -252l135 1104l-62 14q-33 6 -52 23t-14 51l15 120h138l14 107q10 83 38 149.5t73.5 113t107.5 71.5t139 25q29 0 54.5 -2.5t47.5 -11.5l-20 -161q-2 -22 -20 -30.5t-37 -8.5q-42 0 -61 -33.5t-26 -111.5l-14 -107h623l-127 -1062q-9 -75 -37.5 -141t-77 -115.5 t-118 -78.5t-160.5 -29q-45 0 -77 5t-65 14l31 167q5 22 18.5 32t47.5 10q33 0 54.5 6t36 21.5t22.5 41.5t14 67l101 852h-302l-97 -799l-51 -178q-20 -58 -57 -91.5t-106 -33.5h-129z" />
<glyph unicode="ff&#x237;" horiz-adv-x="1831" d="M65 -252l134 1104l-60 14q-33 6 -52 23t-14 51l15 120h136l5 40q11 91 49 165t97.5 126.5t137 80.5t167.5 28q36 0 66 -4.5t61 -13.5l-29 -161q-5 -26 -28.5 -34t-47.5 -8q-38 0 -67 -6.5t-50.5 -25.5t-35 -52t-20.5 -85l-6 -50h331l13 107q10 83 38.5 149.5t74 113 t107.5 71.5t139 25q29 0 54.5 -2.5t47.5 -11.5l-20 -161q-2 -22 -20 -30.5t-38 -8.5q-42 0 -61 -33.5t-26 -111.5l-13 -107h625l-127 -1063q-9 -75 -37.5 -141t-77 -115.5t-118 -78.5t-161.5 -29q-45 0 -76.5 5t-64.5 14l31 167q5 22 18.5 32t46.5 10t55 6t36.5 21.5 t22.5 41.5t13 67l102 853h-304l-98 -799l-50 -178q-20 -58 -57 -91.5t-107 -33.5h-129l135 1102h-319l-96 -799l-56 -178q-20 -58 -57 -91.5t-106 -33.5h-129z" />
<glyph unicode="f&#x135;" horiz-adv-x="1202" d="M66 0zM66 -252l135 1104l-62 14q-33 6 -52 23t-14 51l15 120h138l14 107q10 83 38 149.5t73.5 113t107.5 71.5t139 25q29 0 54.5 -2.5t47.5 -11.5l-20 -161q-2 -22 -20 -30.5t-37 -8.5q-42 0 -61 -33.5t-26 -111.5l-14 -107h623l-127 -1062q-9 -75 -37.5 -141t-77 -115.5 t-118 -78.5t-160.5 -29q-45 0 -77 5t-65 14l31 167q5 22 18.5 32t47.5 10q33 0 54.5 6t36 21.5t22.5 41.5t14 67l101 852h-302l-97 -799l-51 -178q-20 -58 -57 -91.5t-106 -33.5h-129zM664 1196l254 296h275l186 -296h-193q-17 0 -32.5 5.5t-30.5 23.5l-61 85q-5 6 -10 13 t-11 15q-15 -18 -26 -28l-82 -85q-15 -14 -32.5 -21.5t-35.5 -7.5h-201z" />
<glyph unicode="f&#x13e;" horiz-adv-x="1213" d="M62 -254l135 1099l-57 13q-34 8 -53 24t-14 49l15 129h135l5 39q10 81 44 157.5t92.5 135.5t142.5 95t194 36q87 0 163 -6t156 -7h202l-187 -1510h-307l158 1292q-42 5 -83 10t-79 5q-85 0 -136 -51.5t-61 -156.5l-4 -39h203l-27 -217h-191l-97 -794l-56 -178 q-20 -58 -57 -91.5t-107 -33.5h-129zM1207 1166l109 367h176q28 0 35.5 -11.5t7.5 -22.5q0 -9 -3 -22t-17 -41.5t-41.5 -80t-77.5 -137.5q-20 -34 -46 -43t-65 -9h-78z" />
<glyph unicode="f&#x13c;" horiz-adv-x="1213" d="M62 0zM62 -254l135 1099l-57 13q-34 8 -53 24t-14 49l15 129h135l5 39q10 81 44 157.5t92.5 135.5t142.5 95t194 36q87 0 163 -6t156 -7h202l-187 -1510h-307l158 1292q-42 5 -83 10t-79 5q-85 0 -136 -51.5t-61 -156.5l-4 -39h203l-27 -217h-191l-97 -794l-56 -178 q-20 -58 -57 -91.5t-107 -33.5h-129zM673 -397l88 310h195q28 0 35.5 -12t7.5 -23t-3.5 -28t-14.5 -43t-29.5 -63t-50.5 -88q-20 -34 -47.5 -43.5t-67.5 -9.5h-113z" />
<glyph unicode="f&#x21b;" horiz-adv-x="1412" d="M65 0zM65 -252l133 1105l-59 13q-33 6 -52 23t-14 51l15 120h135l7 60q11 91 50 165t99.5 126t140 81t171.5 29q36 0 66 -5t61 -15l-28 -160q-5 -27 -29 -35t-47 -8q-79 0 -125.5 -42t-59.5 -146l-6 -50h357l90 261q17 49 69 49h172l-39 -310h239l-27 -210h-237l-52 -424 q-5 -42 -8.5 -66t-5 -37t-1.5 -17.5v-5.5q0 -30 14 -50t44 -20q16 0 27 4t19 8.5t15 8t16 3.5q14 0 21.5 -6.5t13.5 -21.5l70 -150q-63 -46 -136 -69t-147 -23q-61 0 -110 16.5t-84.5 49t-55.5 77.5t-22 102v17.5t1.5 29.5t5 50t9.5 83l56 441h-328l-96 -799l-56 -178 q-20 -58 -57 -91.5t-106 -33.5h-129zM796 -397l88 310h195q28 0 35.5 -12t7.5 -23t-3.5 -28t-14.5 -43t-29.5 -63t-50.5 -88q-20 -34 -47.5 -43.5t-67.5 -9.5h-113z" />
<glyph unicode="f&#x165;" horiz-adv-x="1412" d="M65 -252l133 1105l-59 13q-33 6 -52 23t-14 51l15 120h135l7 60q11 91 50 165t99.5 126t140 81t171.5 29q36 0 66 -5t61 -15l-28 -160q-5 -27 -29 -35t-47 -8q-79 0 -125.5 -42t-59.5 -146l-6 -50h357l90 261q17 49 69 49h172l-39 -310h239l-27 -210h-237l-52 -424 q-5 -42 -8.5 -66t-5 -37t-1.5 -17.5v-5.5q0 -30 14 -50t44 -20q16 0 27 4t19 8.5t15 8t16 3.5q14 0 21.5 -6.5t13.5 -21.5l70 -150q-63 -46 -136 -69t-147 -23q-61 0 -110 16.5t-84.5 49t-55.5 77.5t-22 102v17.5t1.5 29.5t5 50t9.5 83l56 441h-328l-96 -799l-56 -178 q-20 -58 -57 -91.5t-106 -33.5h-129zM1228 1166l108 367h176q28 0 35.5 -11.5t7.5 -22.5q0 -9 -3 -22t-16.5 -41.5t-41.5 -80t-78 -137.5q-20 -34 -45.5 -43t-64.5 -9h-78z" />
<glyph unicode="f&#xed;" horiz-adv-x="1204" d="M67 0zM67 -252l134 1096l-61 14q-34 8 -53 24t-14 49l14 129h140l14 107q10 83 38 149.5t73.5 113t107.5 71.5t139 25q29 0 54.5 -2.5t47.5 -11.5l-20 -161q-2 -22 -20 -30.5t-37 -8.5q-42 0 -61 -33.5t-26 -111.5l-14 -107h625l-129 -1060h-311l104 843h-306l-96 -792 l-51 -178q-20 -58 -57 -91.5t-106 -33.5h-129zM855 1196l155 251q19 30 43.5 45.5t68.5 15.5h283l-277 -269q-24 -24 -44.5 -33.5t-53.5 -9.5h-175z" />
<glyph unicode="ff&#xed;" horiz-adv-x="1829" d="M65 0zM65 -252l134 1104l-60 14q-33 6 -52 23t-14 51l15 120h136l5 40q11 91 49 165t97.5 126.5t137 80.5t167.5 28q36 0 66 -4.5t61 -13.5l-29 -161q-5 -26 -28.5 -34t-47.5 -8q-38 0 -67 -6.5t-50.5 -25.5t-35 -52t-20.5 -85l-6 -50h332l13 107q10 83 38.5 149.5 t74 113t107.5 71.5t139 25q29 0 54.5 -2.5t47.5 -11.5l-20 -161q-2 -22 -20 -30.5t-38 -8.5q-42 0 -61 -33.5t-26 -111.5l-13 -107h623l-130 -1060h-307l105 850h-307l-98 -799l-50 -178q-20 -58 -57 -91.5t-107 -33.5h-129l135 1102h-320l-96 -799l-56 -178 q-20 -58 -57 -91.5t-106 -33.5h-129zM1487 1196l155 251q19 30 43.5 45.5t68.5 15.5h283l-277 -269q-24 -24 -44.5 -33.5t-53.5 -9.5h-175z" />
<glyph unicode="f&#x13a;" horiz-adv-x="1213" d="M62 0zM62 -254l135 1099l-57 13q-34 8 -53 24t-14 49l15 129h135l5 39q10 81 44 157.5t92.5 135.5t142.5 95t194 36q87 0 163 -6t156 -7h202l-187 -1510h-307l158 1292q-42 5 -83 10t-79 5q-85 0 -136 -51.5t-61 -156.5l-4 -39h203l-27 -217h-191l-97 -794l-56 -178 q-20 -58 -57 -91.5t-107 -33.5h-129zM945 1588l209 277q13 16 25.5 26t26 14.5t29.5 5.5t38 1h321l-336 -292q-13 -11 -24 -17.5t-23 -9.5t-24.5 -4t-29.5 -1h-212z" />
<glyph unicode="ti" horiz-adv-x="1283" d="M56 0zM60 908l16 119l155 32l92 262q15 49 69 49h172l-39 -313h702l-130 -1057h-306l104 847h-395l-53 -421q-5 -42 -8 -66t-4.5 -37t-1.5 -17.5v-5.5q0 -30 14 -50t43 -20q16 0 27 4t19.5 8.5t15.5 8t16 3.5q14 0 21.5 -6.5t13.5 -21.5l70 -150q-63 -46 -136 -69 t-147 -23q-61 0 -110.5 16.5t-84.5 49t-55 77.5t-22 102v17.5t1.5 29.5t5 50t9.5 83l54 438h-78q-24 0 -39 16t-11 45zM939 1353q0 38 15.5 71.5t41.5 59t59 40.5t68 15q37 0 71 -14.5t60 -40t42 -59t16 -72.5q0 -38 -16.5 -71.5t-43 -58.5t-61 -40t-70.5 -15t-68.5 15 t-57.5 40t-40.5 58.5t-15.5 71.5z" />
<glyph unicode="t&#xec;" horiz-adv-x="1283" d="M56 0zM60 908l16 119l155 32l92 262q15 49 69 49h172l-39 -313h702l-130 -1057h-306l104 847h-395l-53 -421q-5 -42 -8 -66t-4.5 -37t-1.5 -17.5v-5.5q0 -30 14 -50t43 -20q16 0 27 4t19.5 8.5t15.5 8t16 3.5q14 0 21.5 -6.5t13.5 -21.5l70 -150q-63 -46 -136 -69 t-147 -23q-61 0 -110.5 16.5t-84.5 49t-55 77.5t-22 102v17.5t1.5 29.5t5 50t9.5 83l54 438h-78q-24 0 -39 16t-11 45zM772 1508h273q44 0 64 -15.5t32 -45.5l100 -251h-166q-33 0 -52 9.5t-37 33.5z" />
<glyph unicode="t&#xed;" horiz-adv-x="1283" d="M56 0zM60 908l16 119l155 32l92 262q15 49 69 49h172l-39 -313h702l-130 -1057h-306l104 847h-395l-53 -421q-5 -42 -8 -66t-4.5 -37t-1.5 -17.5v-5.5q0 -30 14 -50t43 -20q16 0 27 4t19.5 8.5t15.5 8t16 3.5q14 0 21.5 -6.5t13.5 -21.5l70 -150q-63 -46 -136 -69 t-147 -23q-61 0 -110.5 16.5t-84.5 49t-55 77.5t-22 102v17.5t1.5 29.5t5 50t9.5 83l54 438h-78q-24 0 -39 16t-11 45zM953 1196l155 251q19 30 43.5 45.5t68.5 15.5h283l-277 -269q-24 -24 -44.5 -33.5t-53.5 -9.5h-175z" />
<glyph unicode="t&#xee;" horiz-adv-x="1282" d="M56 0zM60 908l16 119l155 32l92 262q15 49 69 49h172l-39 -313h702l-130 -1057h-306l104 847h-395l-53 -421q-5 -42 -8 -66t-4.5 -37t-1.5 -17.5v-5.5q0 -30 14 -50t43 -20q16 0 27 4t19.5 8.5t15.5 8t16 3.5q14 0 21.5 -6.5t13.5 -21.5l70 -150q-63 -46 -136 -69 t-147 -23q-61 0 -110.5 16.5t-84.5 49t-55 77.5t-22 102v17.5t1.5 29.5t5 50t9.5 83l54 438h-78q-24 0 -39 16t-11 45zM746 1196l254 296h275l186 -296h-193q-17 0 -32.5 5.5t-30.5 23.5l-61 85q-5 6 -10 13t-11 15q-15 -18 -26 -28l-82 -85q-15 -14 -32.5 -21.5t-35.5 -7.5 h-201z" />
<glyph unicode="t&#xef;" horiz-adv-x="1282" d="M56 0zM60 908l16 119l155 32l92 262q15 49 69 49h172l-39 -313h702l-130 -1057h-306l104 847h-395l-53 -421q-5 -42 -8 -66t-4.5 -37t-1.5 -17.5v-5.5q0 -30 14 -50t43 -20q16 0 27 4t19.5 8.5t15.5 8t16 3.5q14 0 21.5 -6.5t13.5 -21.5l70 -150q-63 -46 -136 -69 t-147 -23q-61 0 -110.5 16.5t-84.5 49t-55 77.5t-22 102v17.5t1.5 29.5t5 50t9.5 83l54 438h-78q-24 0 -39 16t-11 45zM802 1326q0 34 13.5 63.5t35.5 51.5t51 35t62 13q35 0 65 -13t53.5 -35t36.5 -51.5t13 -63.5q0 -33 -13 -61.5t-36.5 -49.5t-53.5 -33.5t-65 -12.5 q-33 0 -62 12.5t-51 33.5t-35.5 49.5t-13.5 61.5zM1157 1326q0 34 12.5 63.5t35 51.5t52.5 35t64 13q35 0 65 -13t52.5 -35t35 -51.5t12.5 -63.5q0 -33 -12.5 -61.5t-35 -49.5t-53 -33.5t-64.5 -12.5t-64 12.5t-52.5 33.5t-35 49.5t-12.5 61.5z" />
<glyph unicode="t&#x12b;" horiz-adv-x="1283" d="M56 0zM60 908l16 119l155 32l92 262q15 49 69 49h172l-39 -313h702l-130 -1057h-306l104 847h-395l-53 -421q-5 -42 -8 -66t-4.5 -37t-1.5 -17.5v-5.5q0 -30 14 -50t43 -20q16 0 27 4t19.5 8.5t15.5 8t16 3.5q14 0 21.5 -6.5t13.5 -21.5l70 -150q-63 -46 -136 -69 t-147 -23q-61 0 -110.5 16.5t-84.5 49t-55 77.5t-22 102v17.5t1.5 29.5t5 50t9.5 83l54 438h-78q-24 0 -39 16t-11 45zM815 1230l23 194h584l-23 -194h-584z" />
<glyph unicode="t&#x129;" horiz-adv-x="1283" d="M56 0zM60 908l16 119l155 32l92 262q15 49 69 49h172l-39 -313h702l-130 -1057h-306l104 847h-395l-53 -421q-5 -42 -8 -66t-4.5 -37t-1.5 -17.5v-5.5q0 -30 14 -50t43 -20q16 0 27 4t19.5 8.5t15.5 8t16 3.5q14 0 21.5 -6.5t13.5 -21.5l70 -150q-63 -46 -136 -69 t-147 -23q-61 0 -110.5 16.5t-84.5 49t-55 77.5t-22 102v17.5t1.5 29.5t5 50t9.5 83l54 438h-78q-24 0 -39 16t-11 45zM781 1214q7 65 30.5 116.5t57 88.5t75.5 57t87 20q35 0 64 -11.5t53.5 -26t44 -26.5t35.5 -12q23 0 38 13t20 55h177q-8 -65 -30.5 -116.5t-55.5 -88 t-75 -56t-88 -19.5q-35 0 -64 12t-53.5 26.5t-44 26t-35.5 11.5q-24 0 -37.5 -14t-18.5 -56h-180z" />
<glyph unicode="tti" horiz-adv-x="1902" d="M56 0zM60 908l16 119l155 32l92 262q17 49 69 49h172l-39 -313h345l92 264q17 49 69 49h172l-39 -313h682l-130 -1057h-305l105 847h-377l-53 -421q-5 -42 -8 -66t-4.5 -37t-1.5 -17.5v-5.5q0 -30 14 -50t43 -20q16 0 27 4t19.5 8.5t15.5 8t16 3.5q14 0 21.5 -6.5 t13.5 -21.5l70 -150q-63 -46 -136 -69t-147 -23q-61 0 -110.5 16.5t-84.5 49t-55 77.5t-22 102v17.5t1.5 29.5t5 50t9.5 83l54 438h-327l-53 -421q-5 -42 -8 -66t-4.5 -37t-1.5 -17.5v-5.5q0 -30 14 -50t43 -20q16 0 27 4t19.5 8.5t15.5 8t16 3.5q14 0 21.5 -6.5t13.5 -21.5 l70 -150q-63 -46 -136 -69t-147 -23q-61 0 -110.5 16.5t-84.5 49t-55 77.5t-22 102v17.5t1.5 29.5t5 50t9.5 83l54 438h-78q-24 0 -39 16t-11 45zM1550 1353q0 38 15.5 71.5t41.5 59t59 40.5t68 15q37 0 71 -14.5t60 -40t42 -59t16 -72.5q0 -38 -16.5 -71.5t-43 -58.5 t-61 -40t-70.5 -15t-68.5 15t-57.5 40t-40.5 58.5t-15.5 71.5z" />
<glyph unicode="tt&#xec;" horiz-adv-x="1902" d="M56 0zM60 908l16 119l155 32l92 262q17 49 69 49h172l-39 -313h345l92 264q17 49 69 49h172l-39 -313h682l-130 -1057h-305l105 847h-377l-53 -421q-5 -42 -8 -66t-4.5 -37t-1.5 -17.5v-5.5q0 -30 14 -50t43 -20q16 0 27 4t19.5 8.5t15.5 8t16 3.5q14 0 21.5 -6.5 t13.5 -21.5l70 -150q-63 -46 -136 -69t-147 -23q-61 0 -110.5 16.5t-84.5 49t-55 77.5t-22 102v17.5t1.5 29.5t5 50t9.5 83l54 438h-327l-53 -421q-5 -42 -8 -66t-4.5 -37t-1.5 -17.5v-5.5q0 -30 14 -50t43 -20q16 0 27 4t19.5 8.5t15.5 8t16 3.5q14 0 21.5 -6.5t13.5 -21.5 l70 -150q-63 -46 -136 -69t-147 -23q-61 0 -110.5 16.5t-84.5 49t-55 77.5t-22 102v17.5t1.5 29.5t5 50t9.5 83l54 438h-78q-24 0 -39 16t-11 45zM1384 1508h273q44 0 64 -15.5t32 -45.5l100 -251h-166q-33 0 -52 9.5t-37 33.5z" />
<glyph unicode="tt&#xed;" horiz-adv-x="1902" d="M56 0zM60 908l16 119l155 32l92 262q17 49 69 49h172l-39 -313h345l92 264q17 49 69 49h172l-39 -313h682l-130 -1057h-305l105 847h-377l-53 -421q-5 -42 -8 -66t-4.5 -37t-1.5 -17.5v-5.5q0 -30 14 -50t43 -20q16 0 27 4t19.5 8.5t15.5 8t16 3.5q14 0 21.5 -6.5 t13.5 -21.5l70 -150q-63 -46 -136 -69t-147 -23q-61 0 -110.5 16.5t-84.5 49t-55 77.5t-22 102v17.5t1.5 29.5t5 50t9.5 83l54 438h-327l-53 -421q-5 -42 -8 -66t-4.5 -37t-1.5 -17.5v-5.5q0 -30 14 -50t43 -20q16 0 27 4t19.5 8.5t15.5 8t16 3.5q14 0 21.5 -6.5t13.5 -21.5 l70 -150q-63 -46 -136 -69t-147 -23q-61 0 -110.5 16.5t-84.5 49t-55 77.5t-22 102v17.5t1.5 29.5t5 50t9.5 83l54 438h-78q-24 0 -39 16t-11 45zM1564 1196l155 251q19 30 43.5 45.5t68.5 15.5h283l-277 -269q-24 -24 -44.5 -33.5t-53.5 -9.5h-175z" />
<glyph unicode="tt&#xee;" horiz-adv-x="1901" d="M56 0zM60 908l16 119l155 32l92 262q17 49 69 49h172l-39 -313h345l92 264q17 49 69 49h172l-39 -313h682l-130 -1057h-305l105 847h-377l-53 -421q-5 -42 -8 -66t-4.5 -37t-1.5 -17.5v-5.5q0 -30 14 -50t43 -20q16 0 27 4t19.5 8.5t15.5 8t16 3.5q14 0 21.5 -6.5 t13.5 -21.5l70 -150q-63 -46 -136 -69t-147 -23q-61 0 -110.5 16.5t-84.5 49t-55 77.5t-22 102v17.5t1.5 29.5t5 50t9.5 83l54 438h-327l-53 -421q-5 -42 -8 -66t-4.5 -37t-1.5 -17.5v-5.5q0 -30 14 -50t43 -20q16 0 27 4t19.5 8.5t15.5 8t16 3.5q14 0 21.5 -6.5t13.5 -21.5 l70 -150q-63 -46 -136 -69t-147 -23q-61 0 -110.5 16.5t-84.5 49t-55 77.5t-22 102v17.5t1.5 29.5t5 50t9.5 83l54 438h-78q-24 0 -39 16t-11 45zM1357 1196l254 296h275l186 -296h-193q-17 0 -32.5 5.5t-30.5 23.5l-61 85q-5 6 -10 13t-11 15q-15 -18 -26 -28l-82 -85 q-15 -14 -32.5 -21.5t-35.5 -7.5h-201z" />
<glyph unicode="tt&#xef;" horiz-adv-x="1901" d="M56 0zM60 908l16 119l155 32l92 262q17 49 69 49h172l-39 -313h345l92 264q17 49 69 49h172l-39 -313h682l-130 -1057h-305l105 847h-377l-53 -421q-5 -42 -8 -66t-4.5 -37t-1.5 -17.5v-5.5q0 -30 14 -50t43 -20q16 0 27 4t19.5 8.5t15.5 8t16 3.5q14 0 21.5 -6.5 t13.5 -21.5l70 -150q-63 -46 -136 -69t-147 -23q-61 0 -110.5 16.5t-84.5 49t-55 77.5t-22 102v17.5t1.5 29.5t5 50t9.5 83l54 438h-327l-53 -421q-5 -42 -8 -66t-4.5 -37t-1.5 -17.5v-5.5q0 -30 14 -50t43 -20q16 0 27 4t19.5 8.5t15.5 8t16 3.5q14 0 21.5 -6.5t13.5 -21.5 l70 -150q-63 -46 -136 -69t-147 -23q-61 0 -110.5 16.5t-84.5 49t-55 77.5t-22 102v17.5t1.5 29.5t5 50t9.5 83l54 438h-78q-24 0 -39 16t-11 45zM1414 1326q0 34 13.5 63.5t35.5 51.5t51 35t62 13q35 0 65 -13t53.5 -35t36.5 -51.5t13 -63.5q0 -33 -13 -61.5t-36.5 -49.5 t-53.5 -33.5t-65 -12.5q-33 0 -62 12.5t-51 33.5t-35.5 49.5t-13.5 61.5zM1769 1326q0 34 12.5 63.5t35 51.5t52.5 35t64 13q35 0 65 -13t52.5 -35t35 -51.5t12.5 -63.5q0 -33 -12.5 -61.5t-35 -49.5t-53 -33.5t-64.5 -12.5t-64 12.5t-52.5 33.5t-35 49.5t-12.5 61.5z" />
<glyph unicode="tt&#x12b;" horiz-adv-x="1902" d="M56 0zM60 908l16 119l155 32l92 262q17 49 69 49h172l-39 -313h345l92 264q17 49 69 49h172l-39 -313h682l-130 -1057h-305l105 847h-377l-53 -421q-5 -42 -8 -66t-4.5 -37t-1.5 -17.5v-5.5q0 -30 14 -50t43 -20q16 0 27 4t19.5 8.5t15.5 8t16 3.5q14 0 21.5 -6.5 t13.5 -21.5l70 -150q-63 -46 -136 -69t-147 -23q-61 0 -110.5 16.5t-84.5 49t-55 77.5t-22 102v17.5t1.5 29.5t5 50t9.5 83l54 438h-327l-53 -421q-5 -42 -8 -66t-4.5 -37t-1.5 -17.5v-5.5q0 -30 14 -50t43 -20q16 0 27 4t19.5 8.5t15.5 8t16 3.5q14 0 21.5 -6.5t13.5 -21.5 l70 -150q-63 -46 -136 -69t-147 -23q-61 0 -110.5 16.5t-84.5 49t-55 77.5t-22 102v17.5t1.5 29.5t5 50t9.5 83l54 438h-78q-24 0 -39 16t-11 45zM1426 1230l23 194h584l-23 -194h-584z" />
<glyph unicode="tt&#x129;" horiz-adv-x="1902" d="M56 0zM60 908l16 119l155 32l92 262q17 49 69 49h172l-39 -313h345l92 264q17 49 69 49h172l-39 -313h682l-130 -1057h-305l105 847h-377l-53 -421q-5 -42 -8 -66t-4.5 -37t-1.5 -17.5v-5.5q0 -30 14 -50t43 -20q16 0 27 4t19.5 8.5t15.5 8t16 3.5q14 0 21.5 -6.5 t13.5 -21.5l70 -150q-63 -46 -136 -69t-147 -23q-61 0 -110.5 16.5t-84.5 49t-55 77.5t-22 102v17.5t1.5 29.5t5 50t9.5 83l54 438h-327l-53 -421q-5 -42 -8 -66t-4.5 -37t-1.5 -17.5v-5.5q0 -30 14 -50t43 -20q16 0 27 4t19.5 8.5t15.5 8t16 3.5q14 0 21.5 -6.5t13.5 -21.5 l70 -150q-63 -46 -136 -69t-147 -23q-61 0 -110.5 16.5t-84.5 49t-55 77.5t-22 102v17.5t1.5 29.5t5 50t9.5 83l54 438h-78q-24 0 -39 16t-11 45zM1392 1214q7 65 30.5 116.5t57 88.5t75.5 57t87 20q35 0 64 -11.5t53.5 -26t44 -26.5t35.5 -12q23 0 38 13t20 55h177 q-8 -65 -30.5 -116.5t-55.5 -88t-75 -56t-88 -19.5q-35 0 -64 12t-53.5 26.5t-44 26t-35.5 11.5q-24 0 -37.5 -14t-18.5 -56h-180z" />
<glyph horiz-adv-x="0" />
<glyph horiz-adv-x="0" />
<glyph unicode="&#xd;" horiz-adv-x="0" />
<glyph unicode=" "  horiz-adv-x="419" />
<glyph unicode="&#x09;" horiz-adv-x="419" />
<glyph unicode="&#xa0;" horiz-adv-x="419" />
<glyph unicode="!" horiz-adv-x="566" d="M53 161q0 37 14 68.5t38 55t57 37.5t71 14t71 -14t57.5 -37.5t38.5 -55t14 -68.5t-14 -69.5t-38.5 -56t-57.5 -36.5t-71 -13q-39 0 -71.5 13t-56.5 36.5t-38 56t-14 69.5zM155 718q1 93 13 186l72 588h284l-71 -588q-11 -93 -34 -185.5t-52 -190.5h-207q-6 97 -5 190z " />
<glyph unicode="&#x22;" horiz-adv-x="805" d="M148 926zM148 1197l37 293h267l-37 -293l-47 -162q-15 -53 -42 -81t-79 -28q-45 0 -65 28t-25 81zM525 1197l37 293h267l-37 -293l-47 -162q-15 -53 -42 -81t-79 -28q-45 0 -65 28t-25 81z" />
<glyph unicode="#" d="M10 434.5q-17 27.5 1 91.5l29 95h183l75 250h-207l39 124q15 46 48 67t100 21h75l92 309q15 46 54.5 72t87.5 26h141l-124 -407h176l124 407h137q23 0 41.5 -7.5t29.5 -21t14.5 -32t-3.5 -39.5l-91 -307h202l-41 -122q-14 -46 -47.5 -68t-97.5 -22h-72l-75 -250h118 q46 0 63 -27t-2 -93l-28 -94h-206l-122 -407h-143q-20 0 -37.5 9.5t-27 26.5t-11.5 39t6 47l85 285h-177l-88 -301q-8 -29 -24 -49t-36 -33t-43 -18.5t-47 -5.5h-137l124 407h-95q-46 0 -63 27.5zM473 621h178l75 250h-176z" />
<glyph unicode="$" d="M-10 180l112 136q14 17 35.5 28.5t44.5 11.5q25 0 48.5 -13t51.5 -32t63 -38.5t81 -31.5l87 401q-66 18 -130 44t-115 67t-82.5 103t-31.5 154t37.5 178.5t109 154.5t172.5 111t228 49l26 116q5 29 30.5 51t59.5 22h113l-44 -201q109 -20 182 -65t122 -98l-88 -109 q-20 -26 -39 -37t-43 -11q-15 0 -34.5 8t-43 19.5t-51.5 24t-60 21.5l-81 -377q66 -20 131 -45.5t117 -65t84 -97t32 -141.5q0 -102 -38.5 -195t-110.5 -164.5t-175 -117t-233 -54.5l-29 -134q-2 -13 -10 -26t-20.5 -23t-27.5 -16t-32 -6h-112l46 212q-57 9 -112 26.5 t-104.5 41.5t-91.5 53.5t-74 64.5zM449 1076q0 -55 35 -89.5t91 -58.5l71 323q-54 -7 -92 -23.5t-61.5 -39.5t-33.5 -51.5t-10 -60.5zM611 233q102 15 153 69t51 144q0 54 -35.5 86.5t-90.5 55.5z" />
<glyph unicode="%" horiz-adv-x="1592" d="M41 0l1216 1445q17 16 40.5 30.5t62.5 14.5h223l-1218 -1447q-17 -17 -40.5 -30t-56.5 -13h-227zM125 1078q0 95 29.5 173.5t81 135t121 87t149.5 30.5q66 0 119.5 -23t92 -65.5t59 -101.5t20.5 -131q0 -95 -33.5 -173t-87 -133.5t-122.5 -85.5t-140 -30q-66 0 -119 23 t-91 65t-58.5 100.5t-20.5 128.5zM360 1078q0 -71 21 -98.5t57 -27.5q27 0 49.5 11.5t39 38t25.5 70.5t9 109q0 74 -22 104t-58 30q-28 0 -50 -13t-37.5 -41t-24.5 -73t-9 -110zM823 298q0 96 30 175t81 135.5t120.5 87t149.5 30.5q66 0 119.5 -23.5t92 -65.5t59 -102 t20.5 -132q0 -95 -33.5 -172.5t-87 -133t-122 -85.5t-140.5 -30q-66 0 -119 23t-91 65t-58.5 100t-20.5 128zM1059 298q0 -70 21 -98t57 -28q27 0 49 11.5t38.5 38.5t26 70.5t9.5 108.5q0 75 -22.5 104t-57.5 29q-28 0 -50.5 -12.5t-38 -40.5t-24 -73.5t-8.5 -109.5z" />
<glyph unicode="&#x26;" horiz-adv-x="1389" d="M31 370q0 78 24 146t66 125.5t100.5 104.5t125.5 80q-29 62 -40.5 123.5t-11.5 116.5q0 89 31.5 169t91 140.5t145 95.5t191.5 35q93 0 162 -28.5t115 -76t68 -109t21 -128.5l-184 -36q-39 -7 -58 2.5t-30 41.5q-35 109 -123 109q-35 0 -62 -16t-45.5 -42.5t-28 -62.5 t-9.5 -76q0 -41 13.5 -86t47.5 -97l279 -367q56 113 80 242q5 28 20 45.5t45 17.5h217q-19 -151 -71.5 -281t-130.5 -235l245 -323h-266q-37 0 -63 4.5t-46.5 15t-37.5 26t-35 39.5l-19 24q-90 -60 -191.5 -92.5t-209.5 -32.5q-103 0 -183 27t-134 77.5t-81.5 122 t-27.5 159.5zM346 409q0 -42 9.5 -77t30.5 -60t54.5 -39t81.5 -14q53 0 104.5 18.5t98.5 53.5l-267 365q-63 -54 -87.5 -116.5t-24.5 -130.5z" />
<glyph unicode="'" horiz-adv-x="429" d="M148 1197l37 293h267l-37 -293l-47 -162q-15 -53 -42 -81t-79 -28q-45 0 -65 28t-25 81z" />
<glyph unicode="(" horiz-adv-x="561" d="M53 416q0 160 21 311t68 298t122.5 294t184.5 301l126 -78q11 -8 21 -18t13 -23.5t-1 -32t-20 -43.5q-60 -110 -109.5 -225t-85 -237.5t-55 -254t-19.5 -271.5q0 -68 5.5 -144t15 -152t24 -149.5t33.5 -134.5q9 -25 9 -43t-7 -31.5t-19 -23.5t-26 -18l-145 -79 q-41 86 -70 181t-48 192t-28.5 194.5t-9.5 186.5z" />
<glyph unicode=")" horiz-adv-x="560" d="M-47 -217.5q-3 13.5 1 31.5t20 43q59 109 109 225t85.5 238.5t55 254t19.5 270.5q0 68 -5.5 144t-15.5 152.5t-24.5 149.5t-32.5 134q-9 25 -8.5 43.5t7 32t18.5 23.5t26 18l145 78q41 -86 70.5 -180t48 -192t28 -195t9.5 -187q0 -160 -21 -310t-68.5 -297.5t-123.5 -295 t-184 -301.5l-125 79q-11 8 -21 18t-13 23.5z" />
<glyph unicode="*" horiz-adv-x="813" d="M132 1078l146 89q20 11 40 19.5t40 12.5q-19 3 -37 11.5t-35 19.5l-125 91l86 119l125 -92q15 -10 29.5 -21.5t25.5 -24.5q-8 37 -2 76l22 181h144l-23 -180q-3 -20 -8 -40.5t-14 -38.5q28 26 69 48l146 90l55 -119l-145 -89q-20 -11 -41 -19t-41 -12q19 -4 37.5 -11.5 t36.5 -20.5l122 -91l-84 -115l-124 89q-16 10 -30.5 21t-25.5 25q4 -17 4 -36.5t-2 -39.5l-22 -181h-144l23 179q5 43 20 79q-14 -14 -31 -25.5t-36 -21.5l-146 -89z" />
<glyph unicode="+" d="M81 579l29 219h378l52 407h247l-50 -407h384l-28 -219h-382l-51 -410h-249l51 410h-381z" />
<glyph unicode="," horiz-adv-x="500" d="M19 180q0 33 12.5 61t35.5 49t54.5 33.5t69.5 12.5q46 0 80 -16t56.5 -43t33.5 -62.5t11 -74.5q0 -51 -16.5 -109t-49 -116t-80.5 -114.5t-110 -102.5l-56 49q-23 18 -22 43q0 16 18 36.5t41 47t45.5 58.5t32.5 73q-35 3 -63.5 17.5t-49 37.5t-32 53.5t-11.5 66.5z" />
<glyph unicode="-" horiz-adv-x="703" d="M78 498l31 247h514l-33 -247h-512z" />
<glyph unicode="&#xad;" horiz-adv-x="703" d="M78 498l31 247h514l-33 -247h-512z" />
<glyph unicode="." horiz-adv-x="494" d="M13 161q0 37 14 68.5t38 55t57 37.5t72 14q38 0 70.5 -14t57 -37.5t38.5 -55t14 -68.5t-14 -69.5t-38.5 -56t-57.5 -36.5t-70 -13q-39 0 -72 13t-57 36.5t-38 56t-14 69.5z" />
<glyph unicode="/" horiz-adv-x="901" d="M-40 -103l698 1493q27 49 70.5 76.5t97.5 27.5h129l-692 -1487q-14 -27 -34 -47.5t-43 -34.5t-47.5 -21t-47.5 -7h-131z" />
<glyph unicode="0" d="M84 582q0 233 48 407t131 289.5t195 172t241 56.5q95 0 174.5 -37t136.5 -112t88.5 -187t31.5 -263q0 -234 -48.5 -407.5t-132.5 -288.5t-196.5 -171.5t-240.5 -56.5q-95 0 -174 37t-135.5 112t-87.5 187t-31 262zM397 563q0 -97 12.5 -161.5t32.5 -103t46 -54t55 -15.5 q33 0 65.5 14t63 46t57.5 84t46.5 129.5t30.5 182t11 240.5q0 98 -12.5 163t-33 103.5t-48 54.5t-55.5 16q-49 0 -98 -33t-87.5 -113t-62 -214.5t-23.5 -338.5z" />
<glyph unicode="1" d="M178 0l29 221h259l94 776q3 27 7 53.5t10 55.5l-163 -142q-24 -16 -46 -20.5t-40 -1t-31 13t-19 19.5l-80 128l478 389h253l-157 -1271h223l-28 -221h-789z" />
<glyph unicode="2" d="M24 0l12 98q4 29 20 62t48 60l445 436q67 66 114 121.5t76.5 108t43.5 105.5t14 114q0 72 -31 112t-98 40q-61 0 -107.5 -39.5t-70.5 -98.5q-28 -54 -63.5 -72.5t-95.5 -7.5l-159 28q30 111 83 193t124.5 137.5t157.5 82.5t181 27q94 0 167 -28t124 -77.5t77.5 -119 t26.5 -150.5q0 -93 -26.5 -170.5t-72 -147t-106.5 -133.5t-130 -131l-319 -316q61 18 121 29.5t109 11.5h235q49 0 74 -26.5t20 -71.5l-23 -177h-971z" />
<glyph unicode="3" d="M58 381l144 55q28 10 53.5 13.5t46.5 -1.5t36 -16.5t22 -30.5q34 -82 76 -125.5t96 -43.5q50 0 90.5 21.5t68 58t41.5 85t14 103.5q0 35 -9.5 63.5t-37.5 49.5t-78.5 32t-131.5 11l27 212q86 0 142.5 15.5t88.5 45.5t45 74.5t13 102.5q0 72 -31.5 111.5t-98.5 39.5 q-61 0 -107.5 -39.5t-69.5 -98.5q-28 -54 -64 -72.5t-97 -7.5l-158 28q30 111 83 193t124.5 137.5t157.5 82.5t181 27t167 -27.5t120 -74.5t72.5 -109.5t24.5 -132.5q0 -82 -16 -144t-47 -107t-78.5 -75t-110.5 -50q195 -80 195 -286q0 -128 -47 -225t-123 -162 t-174.5 -97.5t-202.5 -32.5q-96 0 -170 23.5t-128.5 72.5t-90.5 124t-58 177z" />
<glyph unicode="4" d="M32 561l746 930h292l-113 -914h136l-22 -174q-3 -24 -21 -40t-45 -16h-76l-42 -347h-266l42 347h-547q-28 0 -49 17.5t-23 45.5zM345 577h345l49 408q3 30 9 61.5t14 66.5z" />
<glyph unicode="5" d="M45 171l111 127q35 39 82 39q29 0 51.5 -16.5t50 -36.5t64.5 -36.5t95 -16.5q68 0 114 27.5t74.5 71.5t40.5 100t12 115q0 91 -47.5 141t-135.5 50q-91 0 -181 -38l-183 52l209 741h710l-16 -126q-8 -63 -54.5 -102.5t-143.5 -39.5h-313l-73 -258q39 7 75 10t68 3 q98 0 172 -31t123.5 -84.5t74.5 -125.5t25 -154q0 -131 -46.5 -241.5t-127 -189.5t-191 -123.5t-236.5 -44.5q-68 0 -127.5 15t-110 41t-92 59.5t-74.5 71.5z" />
<glyph unicode="6" horiz-adv-x="1092" d="M85 439q0 71 14 136.5t41 129.5t67.5 127.5t93.5 130.5l362 457q26 30 71 50.5t101 20.5h272l-472 -530l-38 -42q65 24 140 23q68 0 131.5 -23.5t113.5 -71t80.5 -120t30.5 -168.5q0 -118 -43 -223t-119.5 -183t-181.5 -123.5t-228 -45.5q-104 0 -185.5 33.5t-137.5 94 t-84.5 144t-28.5 183.5zM376 427q0 -90 41.5 -145.5t129.5 -55.5q47 0 89.5 21.5t74.5 59.5t51.5 90.5t19.5 114.5q0 97 -48.5 153t-133.5 56q-46 0 -86.5 -20.5t-71 -59t-48.5 -92.5t-18 -122z" />
<glyph unicode="7" d="M121 0l612 1082q28 41 55.5 76t59.5 65h-592q-27 0 -45 20.5t-15 45.5l25 202h971l-16 -128q-8 -57 -25.5 -92.5t-32.5 -60.5l-602 -1110q-27 -42 -67.5 -71t-104.5 -29h-223z" />
<glyph unicode="8" d="M71 372q0 72 14.5 135t48.5 115.5t87.5 92.5t131.5 65q-78 41 -116 109.5t-38 162.5q0 98 39.5 181.5t107.5 144.5t159.5 95t195.5 34q90 0 164 -27.5t126.5 -76t82 -114.5t29.5 -143q0 -131 -58 -226t-176 -145q105 -42 151 -118t46 -178q0 -113 -41.5 -204.5 t-114.5 -156t-174.5 -99.5t-221.5 -35q-101 0 -183.5 27.5t-140 78.5t-88.5 122.5t-31 159.5zM388 393q0 -38 9 -70.5t27 -56.5t47.5 -38t71.5 -14q55 0 94.5 20.5t65 56.5t37.5 85t12 106q0 39 -8 71t-26.5 54.5t-48.5 34.5t-74 12q-108 0 -157.5 -65t-49.5 -196zM496 1049 q0 -31 6 -60.5t20.5 -52t39.5 -36t63 -13.5q47 0 80.5 18.5t55.5 50.5t32.5 76t10.5 95q0 31 -7 59t-22.5 49.5t-40.5 35t-61 13.5q-49 0 -83 -19.5t-55 -51.5t-30 -75t-9 -89z" />
<glyph unicode="9" d="M109 0l507 568q14 16 27.5 32t27.5 32q-91 -47 -198 -47q-60 0 -118.5 23t-105.5 69t-76 115t-29 161q0 113 41.5 214t115.5 176.5t175 119.5t220 44q101 0 180 -31.5t133 -88.5t81.5 -136t27.5 -172q0 -82 -14.5 -154t-42.5 -138.5t-67.5 -129t-88.5 -126.5l-348 -463 q-24 -28 -68.5 -48t-97.5 -20h-282zM455 990q0 -88 38.5 -135t118.5 -47q50 0 90 19.5t68 55t42.5 84.5t14.5 107q0 93 -45 142.5t-120 49.5q-47 0 -85 -20.5t-65.5 -57t-42 -87t-14.5 -111.5z" />
<glyph unicode=":" horiz-adv-x="548" d="M41 0zM41 161q0 37 14 68.5t38 55t57 37.5t72 14q38 0 70.5 -14t57 -37.5t38.5 -55t14 -68.5t-14 -69.5t-38.5 -56t-57.5 -36.5t-70 -13q-39 0 -72 13t-57 36.5t-38 56t-14 69.5zM118 860q0 37 14 68.5t38 55t57 37.5t72 14q38 0 70.5 -14t57 -37.5t38.5 -55t14 -68.5 t-14 -69.5t-38.5 -56t-57.5 -36.5t-70 -13q-39 0 -72 13t-57 36.5t-38 56t-14 69.5z" />
<glyph unicode=";" horiz-adv-x="574" d="M58 0zM58 180q0 33 12.5 61t35.5 49t54.5 33.5t69.5 12.5q46 0 80 -16t56.5 -43t33.5 -62.5t11 -74.5q0 -51 -16.5 -109t-49 -116t-80.5 -114.5t-110 -102.5l-56 49q-23 18 -22 43q0 16 18 36.5t41 47t45.5 58.5t32.5 73q-35 3 -63.5 17.5t-49 37.5t-32 53.5t-11.5 66.5z M130 860q0 37 14 68.5t38 55t57 37.5t72 14q38 0 70.5 -14t57 -37.5t38.5 -55t14 -68.5t-14 -69.5t-38.5 -56t-57.5 -36.5t-70 -13q-39 0 -72 13t-57 36.5t-38 56t-14 69.5z" />
<glyph unicode="&#x3c;" d="M148 629l12 93l4 31l883 434l-28 -220q-3 -24 -17.5 -44t-44.5 -34l-309 -157q-29 -13 -59.5 -23.5t-64.5 -18.5q33 -8 60.5 -17t53.5 -23l273 -157q26 -13 35 -33.5t6 -43.5l-28 -220z" />
<glyph unicode="=" d="M98 392l29 219h928l-29 -219h-928zM145 763l29 220h926l-27 -220h-928z" />
<glyph unicode="&#x3e;" d="M156 196l28 220q3 24 17.5 43.5t44.5 33.5l308 157q28 13 59 22.5t65 17.5q-62 15 -114 42l-272 157q-27 14 -35.5 34t-5.5 44l28 220l776 -434l-12 -93h-1l-3 -31z" />
<glyph unicode="?" horiz-adv-x="904" d="M145 1354q40 32 84.5 59.5t95 48.5t106.5 32.5t120 11.5q87 0 152.5 -24.5t109 -66t65 -96t21.5 -116.5q0 -87 -22 -147t-56 -103t-75 -74t-80.5 -61t-71.5 -63.5t-47 -80.5l-45 -146h-211v165q0 53 24 94.5t60.5 76.5t78.5 66t78 63t60 69.5t24 84.5q0 55 -27.5 88 t-94.5 33q-48 0 -82.5 -12t-60 -25.5t-45 -25.5t-38.5 -12q-24 0 -35 8.5t-22 28.5zM193 161q0 37 13.5 68.5t37.5 55t57 37.5t72 14q38 0 70.5 -14t57 -37.5t38.5 -55t14 -68.5t-14 -69.5t-38.5 -56t-57 -36.5t-70.5 -13q-39 0 -72 13t-57 36.5t-37.5 56t-13.5 69.5z" />
<glyph unicode="@" horiz-adv-x="1587" d="M68 484q0 127 30.5 246.5t86.5 224.5t134.5 192.5t174 150t205.5 97.5t229 35q127 0 238 -45t194 -126.5t130.5 -197t47.5 -257.5q0 -128 -37 -240.5t-101.5 -196t-151.5 -132.5t-187 -49q-29 0 -56.5 7t-50.5 21.5t-40.5 38t-26.5 57.5q-65 -67 -130.5 -95t-135.5 -28 q-54 0 -95 19.5t-67.5 53.5t-39.5 80t-13 100q0 62 16 128.5t48.5 128t80.5 116t112.5 95.5t145 64.5t176.5 23.5q43 0 77 -3t63 -9t54 -14.5t52 -21.5l-141 -387q-17 -57 -22.5 -94t0.5 -58.5t21.5 -30t38.5 -8.5q40 0 75.5 34t62 93t42 138t15.5 169q0 105 -28 186.5 t-82 137.5t-132.5 84.5t-177.5 28.5q-134 0 -246.5 -57.5t-194 -158t-127.5 -237t-46 -293.5q0 -135 35.5 -238t102 -173t159.5 -105.5t209 -35.5q75 0 136.5 8t110.5 20.5t84 27t56 28.5q29 14 49 16t34.5 -4t23 -19t14.5 -27l22 -83q-51 -34 -111 -62.5t-129 -50 t-147.5 -33.5t-165.5 -12q-162 0 -292 52.5t-221.5 148t-141 230.5t-49.5 301zM643 472q1 -94 64 -94q19 0 39 7t39 24.5t36 46.5t31 73l102 281q-22 3 -43 3q-49 0 -97 -28t-86 -75t-61.5 -109t-23.5 -129z" />
<glyph unicode="A" horiz-adv-x="1366" d="M-95 0l712 1492h342l347 -1492h-258q-43 0 -67.5 20t-33.5 53l-46 268h-507l-110 -268q-14 -28 -45.5 -50.5t-71.5 -22.5h-262zM487 568h375l-72 426q-8 40 -18 94.5t-19 117.5q-25 -63 -49 -118t-41 -96z" />
<glyph unicode="B" horiz-adv-x="1280" d="M58 0l185 1492h512q130 0 222.5 -24.5t151.5 -70t86 -109.5t27 -142q0 -61 -16 -118t-50 -105.5t-88.5 -87.5t-131.5 -66q121 -33 179 -102t58 -174q0 -103 -39.5 -193t-114 -156.5t-181.5 -105t-243 -38.5h-557zM423 251h219q61 0 103 18t68.5 50t38 75t11.5 94 q0 34 -8.5 62t-29.5 46.5t-55.5 29.5t-84.5 11h-215zM497 858h159q56 0 101.5 11.5t77.5 38.5t49.5 72t17.5 112q0 83 -43.5 117t-134.5 34h-180z" />
<glyph unicode="C" horiz-adv-x="1263" d="M67 634q0 128 28.5 242.5t80.5 212t125.5 175t162.5 132t191.5 83.5t213.5 29q84 0 153.5 -15.5t125 -44t99.5 -67.5t77 -86l-117 -135q-12 -14 -28.5 -25.5t-42.5 -11.5q-17 0 -31.5 8.5t-29.5 20t-33.5 26t-44 26t-61 20t-83.5 8.5q-94 0 -175.5 -40t-141.5 -114 t-93.5 -180t-33.5 -238q0 -95 23 -169.5t63 -126.5t95 -79t120 -27q56 0 97.5 8.5t71 22t50 29.5t37 29t31 22t30.5 9t27 -5.5t16 -13.5l117 -140q-97 -116 -231 -175.5t-304 -59.5q-141 0 -250 49.5t-184 136.5t-113 206.5t-38 257.5z" />
<glyph unicode="D" horiz-adv-x="1452" d="M58 0l185 1492h536q146 0 263.5 -49.5t199.5 -136.5t126 -206t44 -258q0 -122 -27.5 -231t-79 -203t-124.5 -169t-163.5 -128.5t-197.5 -82t-225 -28.5h-537zM427 257h201q102 0 184 40.5t139.5 115t88 181.5t30.5 240q0 91 -21 165t-62.5 126.5t-102 81t-138.5 28.5 h-200z" />
<glyph unicode="E" horiz-adv-x="1096" d="M58 0l185 1492h889l-33 -257h-552l-45 -361h423l-33 -247h-421l-45 -370h556l-33 -257h-891z" />
<glyph unicode="F" horiz-adv-x="1089" d="M58 0l185 1492h889l-33 -257h-552l-49 -393h461l-34 -257h-459l-72 -585h-336z" />
<glyph unicode="G" horiz-adv-x="1382" d="M67 649q0 124 28 236t80 207.5t125.5 172t163 131t193 83.5t216.5 29q95 0 172.5 -17t139 -46.5t109.5 -68t85 -79.5l-108 -134q-27 -36 -64 -43q-9 -2 -17 -2q-29 0 -58 19q-36 25 -68 42.5t-64.5 29.5t-69 17.5t-81.5 5.5q-97 0 -178 -41.5t-139.5 -117t-90.5 -181 t-32 -232.5q0 -98 24 -176t68 -132t105 -82.5t136 -28.5q61 0 110.5 10.5t94.5 30.5l29 243h-127q-31 0 -47 16t-12 42l22 184h498l-78 -624q-57 -42 -118.5 -72t-128.5 -49.5t-141.5 -28.5t-158.5 -9q-138 0 -252.5 50.5t-195.5 139.5t-125.5 211t-44.5 264z" />
<glyph unicode="H" horiz-adv-x="1482" d="M58 0l185 1492h336l-78 -630h538l78 630h336l-184 -1492h-336l78 635h-539l-78 -635h-336z" />
<glyph unicode="I" horiz-adv-x="607" d="M58 0l183 1492h336l-183 -1492h-336z" />
<glyph unicode="J" horiz-adv-x="852" d="M-36 10l25 192q3 26 18 42.5t47 16.5q25 0 55.5 -5.5t67.5 -5.5q83 0 136.5 65t70.5 212l117 965h334l-117 -956q-15 -125 -56 -226.5t-109 -174.5t-161.5 -112t-214.5 -39q-54 0 -106 6t-107 20z" />
<glyph unicode="K" horiz-adv-x="1357" d="M58 0l183 1492h333l-75 -610h49q72 0 108 49l355 494q30 39 66 53t85 14h289l-469 -609q-48 -59 -102 -87q35 -14 61 -39t45 -65l316 -692h-297q-29 0 -48.5 4t-33.5 12.5t-23 19.5t-16 25l-232 525q-12 30 -37.5 41.5t-68.5 11.5h-77l-79 -639h-332z" />
<glyph unicode="L" horiz-adv-x="1002" d="M58 0l185 1492h334l-152 -1226h502l-33 -266h-836z" />
<glyph unicode="M" horiz-adv-x="1830" d="M58 0l185 1492h254q22 0 36.5 -2t25.5 -7t21 -15.5t21 -26.5l262 -786q22 -65 37 -132q16 34 33.5 67t38.5 65l456 786q15 16 27.5 26.5t25 15.5t28 7t36.5 2h256l-184 -1492h-293l104 868q4 28 10.5 61.5t14.5 68.5l-448 -770q-22 -34 -54 -51t-71 -17h-45 q-39 0 -68 17.5t-41 50.5l-262 772q-2 -35 -3.5 -67.5t-4.5 -59.5l-103 -873h-295z" />
<glyph unicode="N" horiz-adv-x="1482" d="M58 0l185 1492h176q22 0 36.5 -1.5t26 -7t20.5 -16t19 -26.5l523 -922q2 36 6 69t8 61l100 843h295l-184 -1492h-174q-39 0 -63 13t-46 42l-521 921q-2 -29 -4.5 -55.5t-4.5 -50.5l-103 -870h-295z" />
<glyph unicode="O" horiz-adv-x="1556" d="M67 649q0 121 28 232t79.5 206.5t125.5 173t165 132.5t197.5 85t225.5 30q146 0 263.5 -51.5t199 -141.5t125 -212t43.5 -261q0 -121 -28.5 -231.5t-80 -206t-125 -173t-164.5 -132.5t-197.5 -85t-224.5 -30q-147 0 -264.5 51.5t-199 141t-125 211t-43.5 261.5zM409 656 q0 -92 21.5 -166.5t63 -128t102.5 -82.5t140 -29q102 0 183.5 42t138.5 118.5t88 184.5t31 239q0 92 -22 167t-64.5 129t-104 83t-139.5 29q-102 0 -183 -42.5t-138 -119t-87 -185t-30 -239.5z" />
<glyph unicode="P" horiz-adv-x="1225" d="M58 0l183 1492h493q133 0 228 -32.5t156 -89t89.5 -134t28.5 -166.5q0 -122 -37.5 -226t-114 -179.5t-194.5 -118.5t-279 -43h-159l-62 -503h-332zM483 754h161q72 0 120.5 21t78.5 59t43.5 91.5t13.5 116.5q0 44 -11.5 81t-36.5 63.5t-62 41.5t-89 15h-157z" />
<glyph unicode="Q" horiz-adv-x="1556" d="M67 649q0 121 28 232t79.5 206.5t125.5 173t165 132.5t197.5 85t225.5 30q146 0 263.5 -51.5t199 -141.5t125 -212t43.5 -261q0 -114 -25 -218.5t-71 -196t-111.5 -168t-146.5 -132.5l298 -408h-274q-58 0 -103.5 15.5t-78.5 56.5l-145 208q-79 -15 -163 -15 q-147 0 -264.5 51.5t-199 141t-125 211t-43.5 261.5zM409 656q0 -92 21.5 -166.5t63 -128t102.5 -82.5t140 -29q102 0 183.5 42t138.5 118.5t88 184.5t31 239q0 92 -22 167t-64.5 129t-104 83t-139.5 29q-102 0 -183 -42.5t-138 -119t-87 -185t-30 -239.5z" />
<glyph unicode="R" horiz-adv-x="1257" d="M58 0l183 1492h452q137 0 234 -29t158.5 -80.5t89.5 -121.5t28 -152q0 -83 -22 -156.5t-64 -135.5t-103 -110t-138 -78q31 -17 56 -42.5t44 -61.5l217 -525h-301q-42 0 -70 17t-41 46l-161 442q-12 28 -31 40t-55 12h-75l-69 -557h-332zM487 787h122q72 0 122 22t81.5 59 t45 86.5t13.5 103.5q0 42 -12 76t-38 58.5t-65.5 37.5t-92.5 13h-119z" />
<glyph unicode="S" horiz-adv-x="1071" d="M-18 180l118 156q14 17 35.5 28.5t42.5 11.5q29 0 56 -20t60 -44t76.5 -44t106.5 -20q93 0 144 50.5t51 150.5q0 46 -23 75.5t-60.5 50t-85.5 36.5t-98.5 34.5t-98.5 43.5t-85.5 65.5t-60.5 99t-23 144.5q0 99 37.5 191t107 162.5t169 112.5t223.5 42q63 0 123 -13 t112.5 -36.5t95.5 -56t72 -70.5l-100 -137q-18 -24 -35.5 -35.5t-42.5 -11.5q-24 0 -47.5 15.5t-52.5 33.5t-67 33.5t-89 15.5q-47 0 -82.5 -13t-59 -37t-35 -55.5t-11.5 -69.5q0 -41 23 -68.5t61.5 -48.5t86.5 -38.5t98.5 -38t99 -47t87 -66.5t61.5 -96.5t23 -135.5 q0 -113 -38.5 -212t-111.5 -173t-177 -117.5t-234 -43.5q-65 0 -129.5 14t-124.5 40.5t-111.5 62t-86.5 79.5z" />
<glyph unicode="T" horiz-adv-x="1161" d="M105 1228l33 264h1096l-35 -264h-379l-151 -1228h-332l149 1228h-381z" />
<glyph unicode="U" horiz-adv-x="1429" d="M117 605l106 887h334l-108 -887q-4 -37 -4 -71q0 -38 5 -72q10 -64 38 -108t74 -68t108 -24t114 24t90.5 68.5t64 108t34.5 142.5l108 887h334l-108 -887q-17 -136 -72 -250t-142.5 -196.5t-203.5 -128.5t-254 -46t-242.5 46t-171.5 128.5t-95 196.5q-17 69 -16 146 q0 50 7 104z" />
<glyph unicode="V" horiz-adv-x="1366" d="M87 1492h268q43 0 69 -20.5t32 -52.5l155 -822q13 -49 24.5 -109t19.5 -124q22 65 46.5 124.5t51.5 108.5l348 822q6 13 17.5 26.5t27 24t34.5 16.5t40 6h270l-733 -1492h-303z" />
<glyph unicode="W" horiz-adv-x="2009" d="M101 1492h263q43 0 69 -20t31 -53l104 -804l13 -171q15 48 31 91.5t32 79.5l305 804q6 13 17.5 26.5t27 24t34 16.5t38.5 6h78q43 0 68 -20.5t34 -52.5l115 -804q6 -36 11 -78t9 -88q14 46 27 88t27 78l295 804q4 14 15.5 27.5t27.5 23.5t35.5 16t39.5 6h265l-609 -1492 h-303l-137 942q-4 23 -7.5 50t-6.5 57q-11 -30 -21.5 -57t-19.5 -50l-365 -942h-301z" />
<glyph unicode="X" horiz-adv-x="1331" d="M-101 0l561 796l-324 696h303q33 0 47 -8.5t23 -29.5l197 -471q5 10 11 19.5t13 20.5l262 426q15 23 31.5 33t40.5 10h350l-496 -680l359 -812h-299q-33 0 -51 16.5t-27 36.5l-220 548q-4 -7 -8 -13t-9 -13l-330 -522q-20 -30 -45.5 -41.5t-55.5 -11.5h-333z" />
<glyph unicode="Y" horiz-adv-x="1291" d="M87 1492h297q43 0 67 -20t35 -53l144 -451q31 -88 46 -166q19 39 42 79.5t51 86.5l254 451q17 27 46 50t71 23h276l-611 -921l-71 -571h-334l71 568z" />
<glyph unicode="Z" horiz-adv-x="1159" d="M-48 0l12 98q3 20 13 39t22 36l755 1062h-597l32 257h1033l-15 -100q-3 -20 -12.5 -39t-22.5 -36l-753 -1060h631l-33 -257h-1065z" />
<glyph unicode="[" horiz-adv-x="626" d="M33 -328l235 1920h430l-14 -116q-3 -30 -28.5 -51.5t-59.5 -21.5h-95l-191 -1540h100q34 0 53 -22t14 -53l-14 -116h-430z" />
<glyph unicode="\" horiz-adv-x="894" d="M154 1494h129q54 0 90.5 -27.5t50.5 -76.5l332 -1493h-129q-48 0 -89.5 28t-56.5 82z" />
<glyph unicode="]" horiz-adv-x="626" d="M-75 -328l17 116q3 31 27.5 53t58.5 22h97l190 1540h-99q-34 0 -53.5 21.5t-16.5 51.5l17 116h430l-238 -1920h-430z" />
<glyph unicode="^" d="M143 786l396 706h206l396 -706h-234q-28 0 -45.5 14.5t-30.5 35.5l-126 242q-19 33 -33.5 62.5t-25.5 59.5q-19 -58 -54 -122l-123 -242q-11 -20 -30 -35t-50 -15h-246z" />
<glyph unicode="_" horiz-adv-x="911" d="M-30 -307l25 190h743l-24 -190h-744z" />
<glyph unicode="`" horiz-adv-x="753" d="M201 1508h273q44 0 64 -15.5t32 -45.5l100 -251h-166q-33 0 -52 9.5t-37 33.5z" />
<glyph unicode="a" horiz-adv-x="1086" d="M22 366q0 144 52.5 273.5t147 227t225 154.5t285.5 57q76 0 154 -10t153 -37l-129 -1031h-170q-30 0 -49.5 7.5t-31.5 21t-16.5 32t-4.5 39.5v76q-66 -90 -145.5 -141t-176.5 -51q-57 0 -110 23t-94 69.5t-65.5 118.5t-24.5 171zM339 422q0 -51 8 -87t22 -58t32.5 -32.5 t41.5 -10.5q35 0 68 26.5t62 71.5t53.5 105.5t42.5 128.5l37 294h-19q-78 0 -142 -34.5t-110 -94.5t-71 -139.5t-25 -169.5z" />
<glyph unicode="b" horiz-adv-x="1123" d="M24 0l186 1533h311l-79 -638q71 86 154.5 134.5t176.5 48.5q66 0 120 -23t93.5 -72t61.5 -125.5t22 -181.5q0 -139 -42.5 -264.5t-114 -221t-165.5 -151t-196 -55.5q-79 0 -139 30t-102 79l-3 -10q-14 -43 -36.5 -63t-73.5 -20h-174zM364 262q30 -25 66.5 -35t70.5 -10 q55 0 101.5 37t80.5 97t53 136.5t19 156.5q0 101 -30 147.5t-79 46.5q-34 0 -70 -26t-70 -70.5t-63 -104t-49 -127.5v-2z" />
<glyph unicode="c" horiz-adv-x="926" d="M31 433q0 130 42.5 247t118.5 205t180.5 139.5t229.5 51.5q106 0 182.5 -36t137.5 -114l-103 -118q-11 -11 -25.5 -20t-31.5 -9q-20 0 -34 9t-30.5 18.5t-40 18.5t-61.5 9q-47 0 -91.5 -27.5t-79.5 -78.5t-56 -126t-21 -170q0 -53 12.5 -92.5t34 -65.5t50 -39.5 t61.5 -13.5q49 0 79 14t52.5 30.5t42 30t47.5 13.5q15 0 29.5 -7.5t25.5 -18.5l82 -97q-51 -56 -98 -95t-97.5 -62.5t-107 -34t-125.5 -10.5q-93 0 -167.5 31.5t-127.5 90t-81.5 141.5t-28.5 186z" />
<glyph unicode="d" horiz-adv-x="1125" d="M29 387q0 92 19.5 179.5t54 164.5t82.5 141t106 109.5t122.5 71t133.5 25.5q66 0 118.5 -22t92.5 -58l67 535h312l-191 -1533h-170q-30 0 -49.5 7.5t-31.5 21t-16.5 32t-4.5 39.5v89q-73 -96 -161 -150.5t-187 -54.5q-66 0 -120 23t-93.5 72t-61.5 125.5t-22 182.5z M344 418q0 -101 30 -147t79 -46q33 0 68 24.5t68.5 67.5t62 101t48.5 125l33 258q-30 24 -66 34t-69 10q-55 0 -101.5 -37t-80.5 -97t-53 -136.5t-19 -156.5z" />
<glyph unicode="e" horiz-adv-x="1012" d="M30 433q0 85 19 166t54 152t86.5 131t115.5 103t140 67t162 24q85 0 151 -24.5t111 -64t69 -88.5t24 -98q0 -73 -29 -133.5t-100 -107t-191.5 -79t-302.5 -51.5q2 -109 47.5 -159t134.5 -50q42 0 73 7.5t54 18.5t41.5 23.5t35 23.5t35 18t42.5 7q15 0 29.5 -7.5 t25.5 -19.5l82 -95q-56 -55 -110 -96t-110.5 -67t-120.5 -38t-140 -12q-94 0 -173 32t-136 91t-88 142t-31 184zM361 627q99 15 161 32t95.5 37t45.5 43t12 49q0 27 -20.5 50.5t-65.5 23.5q-79 0 -138.5 -63t-89.5 -172z" />
<glyph unicode="f" horiz-adv-x="697" d="M65 -252l132 1096l-63 14q-30 8 -48 25.5t-13 51.5l16 125h134l7 60q11 91 50 165t99.5 126t140 81t171.5 29q36 0 66 -5t61 -15l-28 -160q-5 -27 -29 -35t-47 -8q-79 0 -125.5 -42t-59.5 -146l-6 -50h215l-28 -217h-202l-95 -792l-56 -178q-20 -58 -57 -91.5t-106 -33.5 h-129z" />
<glyph unicode="g" horiz-adv-x="1062" d="M-72 -87q0 77 34 131.5t89 91.5t126 57t144 27q49 5 96 5q24 0 47 -1q70 -4 124 -14q-2 12 -2 25v27q0 54 27 124q-40 -27 -91.5 -42t-128.5 -15q-60 0 -115.5 20t-98 61t-68 102.5t-25.5 146.5q0 79 30 154.5t90 134.5t148.5 94.5t206.5 35.5q60 0 116 -13.5t103 -41.5 h305l-14 -99q-9 -58 -59 -79l-90 -31q6 -34 6 -70q0 -66 -18 -111.5t-39.5 -86.5t-39.5 -84t-18 -102q0 -42 14 -77t30 -72t30 -78t14 -94q-1 -82 -37 -155t-103.5 -128t-165.5 -87.5t-224 -32.5q-103 0 -185.5 21.5t-139 58.5t-87.5 88t-31 109zM229 -48q0 -52 38.5 -79 t129.5 -27q47 0 87 12.5t68.5 34.5t44 52.5t15.5 68.5v12.5t-1 11.5q-98 16 -169 16h-8q-74 -1 -119 -14.5t-65.5 -36.5t-20.5 -51zM375 657q0 -68 27.5 -106t82.5 -38q38 0 66.5 19.5t46.5 50.5t28 70t11 79q0 67 -27.5 103.5t-85.5 36.5q-38 0 -66 -17.5t-46.5 -47.5 t-27.5 -69t-9 -81z" />
<glyph unicode="h" horiz-adv-x="1129" d="M24 0l186 1533h317l-74 -610q73 80 153.5 117.5t166.5 37.5q67 0 121.5 -26.5t91.5 -77.5q36 -50 52 -126q8 -41 9 -89q0 -40 -6 -84l-79 -675h-318l80 675q4 31 4 55q0 10 -1 18q-2 30 -11 48t-25.5 25.5t-40.5 7.5q-32 0 -66.5 -18.5t-67 -53.5t-60.5 -84t-46 -110 l-69 -563h-317z" />
<glyph unicode="i" horiz-adv-x="530" d="M33 0l127 1062h313l-127 -1062h-313zM160 1353q0 38 15 71.5t41.5 59t59 40.5t68.5 15q37 0 71 -14.5t60 -40t41.5 -59t15.5 -72.5q0 -38 -16 -71.5t-43 -58.5t-61 -40t-70 -15t-68.5 15t-58 40t-40.5 58.5t-15 71.5z" />
<glyph unicode="j" horiz-adv-x="528" d="M-191 -347l30 167q5 22 18.5 32t47.5 10q33 0 55 6t36 21.5t22.5 41.5t13.5 67l129 1064h311l-129 -1064q-9 -75 -37 -141t-77 -115.5t-118.5 -78.5t-160.5 -29q-45 0 -77 5t-64 14zM146 1353q0 38 15.5 71.5t41.5 59t59 40.5t69 15q37 0 70.5 -14.5t59.5 -40t42 -59 t16 -72.5q0 -38 -16.5 -71.5t-43 -58.5t-60.5 -40t-70 -15t-69 15t-58 40t-40.5 58.5t-15.5 71.5z" />
<glyph unicode="k" horiz-adv-x="1074" d="M22 0l188 1533h313l-105 -859h21q27 0 43 8.5t33 29.5l219 299q20 26 43.5 38.5t57.5 12.5h284l-297 -378q-43 -53 -96 -83q22 -17 37 -40.5t29 -52.5l213 -508h-277q-34 0 -56 12t-34 41l-148 376q-11 26 -23.5 33.5t-41.5 7.5h-33l-57 -470h-313z" />
<glyph unicode="l" horiz-adv-x="514" d="M24 0l186 1533h313l-186 -1533h-313z" />
<glyph unicode="m" horiz-adv-x="1635" d="M24 0l129 1062h163q49 0 77 -23t28 -75v-63q68 90 142.5 133.5t156.5 43.5q90 0 149.5 -58t75.5 -170q71 118 155 173t189 55q67 0 120 -26.5t88 -77.5q35 -50 49 -126q7 -39 7 -85q0 -42 -6 -88l-80 -675h-313l80 675q4 33 4 58v15q-2 30 -9.5 47t-22 24.5t-34.5 7.5 q-32 0 -61 -16.5t-55 -49t-47.5 -78t-37.5 -101.5l-69 -582h-313l80 675q4 33 4 58q-1 9 -1 15q-2 30 -9.5 47t-21.5 24.5t-34 7.5q-32 0 -61.5 -17t-55.5 -50t-47.5 -79.5t-38.5 -103.5l-69 -577h-311z" />
<glyph unicode="n" horiz-adv-x="1129" d="M25 0l127 1062h163q49 0 77 -23t28 -75v-85q77 102 168 150.5t188 48.5q66 0 120.5 -26.5t91.5 -77.5q36 -50 52 -126q8 -41 8 -89q0 -40 -6 -84l-79 -675h-318l80 675q4 33 4 58q-1 9 -1 15q-2 30 -10.5 47t-25 24.5t-39.5 7.5q-35 0 -72.5 -21.5t-72 -60t-63 -94.5 t-45.5 -124l-58 -527h-317z" />
<glyph unicode="o" horiz-adv-x="1080" d="M31 432q0 141 46.5 259.5t125.5 204.5t182.5 134t218.5 48q89 0 166 -29.5t134 -86.5t89.5 -140.5t32.5 -191.5q0 -139 -46.5 -257.5t-125.5 -205t-182.5 -135t-218.5 -48.5q-89 0 -166.5 29.5t-134.5 86.5t-89 140.5t-32 191.5zM348 434q0 -114 31 -164.5t102 -50.5 q53 0 95 32.5t71.5 88t45.5 130t16 158.5q0 116 -31.5 165.5t-102.5 49.5q-53 0 -95 -32.5t-71 -87.5t-45 -130t-16 -159z" />
<glyph unicode="p" horiz-adv-x="1123" d="M-17 -337l170 1399h163q49 0 77 -23t28 -75v-97q73 98 162 154.5t190 56.5q66 0 120 -23t93.5 -72t61.5 -125.5t22 -181.5q0 -139 -42.5 -264.5t-114 -221t-165.5 -151t-196 -55.5q-67 0 -119 21.5t-92 56.5l-49 -399h-309zM366 261q30 -24 66 -34t69 -10q55 0 101.5 37 t80.5 97t53 136.5t19 156.5q0 101 -30 147.5t-79 46.5q-33 0 -68.5 -25.5t-69 -69t-62.5 -101.5t-49 -125z" />
<glyph unicode="q" horiz-adv-x="1087" d="M23 366q0 144 52.5 273.5t147 227t225 154.5t285.5 57q76 0 154 -10t153 -37l-172 -1368h-209q-30 0 -48 10.5t-29 26.5t-14 35t-1 37l48 373q-62 -77 -136.5 -119t-161.5 -42q-57 0 -110 23t-94 69.5t-65.5 118.5t-24.5 171zM340 422q0 -51 8 -87t22 -58t32.5 -32.5 t41.5 -10.5q34 0 67 26.5t62 71t53.5 104.5t42.5 127l38 297h-19q-78 0 -142 -34.5t-110 -94.5t-71 -139.5t-25 -169.5z" />
<glyph unicode="r" horiz-adv-x="744" d="M24 0l129 1062h163q49 0 77 -23t28 -75v-121q39 69 83 118t90 76q48 27 96 31h13q42 0 84 -19l-57 -294q-53 23 -100 23h-9q-51 -2 -93.5 -35t-76.5 -98.5t-59 -167.5l-57 -477h-311z" />
<glyph unicode="s" horiz-adv-x="840" d="M-34 115l78 116q14 20 33 32t47 12q26 0 44 -12t39.5 -26.5t51.5 -26.5t78 -12q68 0 100.5 30t32.5 71q0 32 -17 52.5t-44.5 35t-62.5 26.5t-71.5 26.5t-71.5 33.5t-62.5 47.5t-44.5 70.5t-17 101q0 74 27 143.5t81 123.5t133.5 86.5t186.5 32.5q106 0 189.5 -36.5 t138.5 -90.5l-82 -112q-14 -18 -26.5 -26.5t-33.5 -8.5q-20 0 -40 9t-43 21t-52.5 21t-67.5 9q-71 0 -101 -27t-30 -70q0 -28 17 -47.5t45 -34.5t63 -28t72 -29t72.5 -36.5t63 -50t44.5 -70.5t17 -97q0 -80 -32 -151t-91.5 -124t-144 -84t-189.5 -31q-50 0 -99.5 10 t-93 27.5t-79 41.5t-58.5 52z" />
<glyph unicode="t" horiz-adv-x="770" d="M59 905l15 124l160 33l90 259q17 49 69 49h172l-39 -310h238l-27 -217h-237l-51 -417q-5 -42 -8.5 -66t-5 -37t-1.5 -17.5v-5.5q0 -30 14 -50t44 -20q16 0 26.5 4t19 8.5t15.5 8t16 3.5q14 0 21 -6.5t14 -21.5l70 -150q-63 -46 -136 -69t-147 -23q-61 0 -110.5 16.5 t-84.5 49t-55 77.5t-22 102v17.5t1.5 29.5t5 50t9.5 83l54 434h-85q-22 -1 -36 15q-10 11 -10 32q0 7 1 15z" />
<glyph unicode="u" horiz-adv-x="1128" d="M62 388l80 674h318l-80 -674q-4 -33 -4 -58v-14q2 -30 11 -48t25 -26t40 -8q32 0 67 19t68 53.5t61 83.5t46 110l69 562h317l-129 -1062h-161q-113 0 -113 104v68q-77 -96 -165 -142t-183 -46q-67 0 -121 26.5t-90 77.5q-36 52 -52 128q-9 43 -9 91q0 39 5 81z" />
<glyph unicode="v" horiz-adv-x="1031" d="M48 1062h262q33 0 52 -16t24 -39l70 -477q9 -60 15 -118t10 -116q18 57 39.5 115t47.5 119l187 477q11 24 33.5 39.5t50.5 15.5h252l-517 -1062h-268z" />
<glyph unicode="w" horiz-adv-x="1539" d="M52 1062h244q31 0 51 -16t25 -39l30 -477q3 -53 6 -103t4 -99q18 49 38.5 99.5t42.5 102.5l178 478q9 24 32.5 39.5t51.5 15.5h137q33 0 53 -16t23 -39l61 -478q8 -52 14.5 -102t11.5 -99q14 49 30 98.5t34 102.5l150 477q8 24 31 39.5t51 15.5h233l-432 -1062h-248 q-18 0 -30 12.5t-17 40.5l-78 530q-4 23 -6 44.5t-4 44.5q-8 -24 -17 -46.5t-18 -44.5l-203 -528q-22 -53 -67 -53h-238z" />
<glyph unicode="x" horiz-adv-x="1041" d="M-97 0l414 575l-238 487h291q31 0 44.5 -8t22.5 -29l118 -273q13 25 32 51l139 216q27 43 68 43h288l-368 -485l264 -577h-291q-31 0 -48.5 16.5t-27.5 38.5l-132 325q-5 -11 -11 -21.5t-12 -18.5l-189 -285q-15 -20 -34.5 -37.5t-49.5 -17.5h-280z" />
<glyph unicode="y" horiz-adv-x="1030" d="M49 1062h268q34 0 51 -16.5t23 -38.5l92 -458q6 -30 11.5 -59t8.5 -59q12 30 26 60l28 60l197 456q12 24 35.5 39.5t48.5 15.5h256l-688 -1338q-33 -60 -99 -61h-237l242 432z" />
<glyph unicode="z" horiz-adv-x="903" d="M-32 0l17 129q2 19 15.5 49t35.5 55l463 593h-404l29 236h776l-16 -127q-3 -33 -18.5 -63t-32.5 -51l-459 -585h418l-29 -236h-795z" />
<glyph unicode="{" horiz-adv-x="605" d="M39 -23q0 66 13.5 126t29.5 116t29.5 111.5t13.5 111.5q0 46 -19 75.5t-65 29.5l22 171q38 0 61.5 16.5t37 48.5t18 81t4.5 115q0 11 -0.5 28.5t-0.5 36.5t-0.5 36.5t-0.5 29.5q0 117 25.5 206.5t79.5 151t138 93t200 31.5h47l-17 -133q-2 -15 -9.5 -25.5t-18 -17 t-21 -10t-18.5 -3.5q-58 0 -89 -42t-40 -116q-7 -56 -9.5 -105.5t-4 -96.5t-3 -91.5t-6.5 -90.5q-5 -39 -19.5 -75t-37.5 -67t-54 -53.5t-71 -34.5q65 -23 96 -76t31 -118q0 -58 -12 -114t-26 -111t-26 -111.5t-12 -116.5q0 -55 22.5 -88t71.5 -33q8 0 18.5 -4t19 -11.5 t13.5 -18t3 -26.5l-17 -131h-49q-91 0 -157 22t-108.5 62.5t-62.5 97t-20 123.5z" />
<glyph unicode="|" horiz-adv-x="572" d="M163 -337v1931h246v-1931h-246z" />
<glyph unicode="}" horiz-adv-x="604" d="M-69 -328l19 131q1 15 9 26.5t19 19t22 11t19 3.5q57 1 87.5 42.5t39.5 113.5q7 55 9.5 105t4 96.5t3 91t6.5 89.5q4 39 18 75.5t37 67t54.5 53.5t70.5 35q-65 23 -96 76.5t-31 119.5q0 57 12.5 112.5t26.5 111t26.5 112.5t12.5 117q0 54 -22 87.5t-70 34.5q-8 0 -19 3 t-19.5 9.5t-13.5 17.5t-3 26l16 133h49q90 0 155.5 -22t108 -62.5t62.5 -97t20 -125.5q0 -65 -13 -124.5t-28.5 -116t-29 -111.5t-13.5 -111q0 -46 18 -75t64 -29l-20 -171q-38 0 -61.5 -16t-37 -48.5t-18 -82t-4.5 -115.5v-130q0 -117 -25.5 -206.5t-79.5 -151 t-137.5 -93.5t-197.5 -32h-50z" />
<glyph unicode="~" d="M80 394q0 87 23 157t66 118.5t106 74.5t143 26q54 0 101.5 -12t88.5 -26.5t75 -26.5t62 -12q49 0 76 32t27 93h256q0 -87 -23 -156.5t-66 -118t-106 -75t-143 -26.5q-54 0 -102 12t-88.5 27t-75 26.5t-62.5 11.5q-49 0 -75.5 -31.5t-26.5 -93.5h-256z" />
<glyph unicode="&#xa1;" horiz-adv-x="543" d="M10 -339l68 542q11 94 33.5 186.5t52.5 189.5h209q6 -96 5 -189t-13 -187l-66 -542h-289zM125 903q0 37 14 69t38 55.5t56.5 37t71.5 13.5q38 0 71 -13.5t57.5 -37t38 -55.5t13.5 -69t-13.5 -69t-38 -55.5t-57.5 -37t-71 -13.5q-39 0 -71.5 13.5t-56.5 37t-38 55.5 t-14 69z" />
<glyph unicode="&#xa2;" d="M86 457q0 126 40.5 235.5t117.5 192t188 132.5t252 56l33 148q3 13 11 26t20 23t27 16.5t32 6.5h113l-53 -234q77 -16 137.5 -50.5t109.5 -86.5l-92 -105q-14 -17 -28 -25t-38 -8q-15 0 -29 5.5t-30 13.5t-35 16.5t-44 17.5l-138 -628q47 6 80 19.5t58 27t45.5 24.5 t43.5 11q39 0 54 -24l71 -105q-45 -44 -94 -75.5t-100.5 -52t-103.5 -31.5t-103 -15l-29 -132q-6 -29 -31 -51.5t-59 -22.5h-113l46 211q-79 15 -144 53.5t-113.5 97.5t-75 137.5t-26.5 175.5zM387 471q0 -87 28 -147.5t84 -90.5l135 614q-65 -11 -112 -42t-76.5 -79.5 t-44 -113t-14.5 -141.5z" />
<glyph unicode="&#xa3;" d="M-29 0l25 184q70 14 106 54t45 116l31 251h-149l15 120q2 13 9.5 26t20 23t28.5 17t34 7h66l27 226q12 97 56 184.5t116 153.5t171.5 105t222.5 39q90 0 157.5 -20.5t117.5 -56t84 -86.5t56 -110l-133 -79q-43 -20 -81.5 -18t-67.5 36q-18 23 -34 39.5t-34 26.5t-41 14.5 t-55 4.5q-88 0 -148 -59.5t-73 -171.5l-28 -228h434l-14 -120q-2 -13 -9.5 -26.5t-20 -24t-28.5 -16.5t-34 -6h-350l-20 -169q-8 -65 -29.5 -115.5t-60.5 -94.5q50 11 99.5 18t99.5 7h530l-16 -123q-3 -23 -15.5 -45.5t-31.5 -40.5t-44.5 -30t-54.5 -12h-979z" />
<glyph unicode="&#xa4;" d="M98 1030l160 152l154 -152q42 23 89 35t99 12q49 0 94.5 -11.5t86.5 -33.5l157 156l158 -154l-157 -154q24 -42 37 -90t13 -100q0 -50 -11.5 -96t-34.5 -87l159 -156l-160 -152l-155 151q-42 -23 -89 -35t-98 -12q-49 0 -94.5 11.5t-86.5 31.5l-157 -153l-158 153 l156 154q-24 42 -36.5 90t-12.5 100q0 50 11.5 96.5t33.5 86.5zM444 690q0 -33 12.5 -62.5t33.5 -52t49 -35.5t61 -13t61.5 13t50 35.5t34 52t12.5 62.5q0 35 -12.5 64.5t-34 52t-50 35.5t-61.5 13t-61 -13t-49 -35.5t-33.5 -52t-12.5 -64.5z" />
<glyph unicode="&#xa5;" d="M75 236l22 162h311l11 90h-311l20 164h259l-298 838h256q42 0 66.5 -20t33.5 -53l127 -449q15 -52 25 -96.5t15 -87.5q14 43 34.5 87t48.5 97l232 449q15 29 44.5 51t71.5 22h259l-507 -838h261l-21 -164h-310l-11 -90h309l-21 -162h-309l-28 -236h-306l29 236h-313z" />
<glyph unicode="&#xa6;" horiz-adv-x="570" d="M162 -337v839h246v-839h-246zM162 756v838h246v-838h-246z" />
<glyph unicode="&#xa7;" horiz-adv-x="979" d="M5 9l86 114q14 20 33 30.5t49 10.5q26 0 45 -12.5t41.5 -26.5t54 -26.5t82.5 -12.5q63 0 99 30t36 86q0 45 -33 74.5t-83 53t-108.5 47.5t-109 59.5t-83.5 88t-33 131.5q0 93 46 166.5t139 116.5q-32 36 -51 82t-19 109q0 75 27.5 142.5t82.5 119.5t136.5 82t189.5 30 q53 0 101.5 -10t90 -28t75 -43t56.5 -54l-82 -107q-14 -19 -28.5 -27.5t-34.5 -8.5q-22 0 -41.5 9.5t-43 22t-51 22t-65.5 9.5q-36 0 -62 -8.5t-43 -24t-25.5 -36t-8.5 -42.5q0 -35 33.5 -60.5t83.5 -51t108.5 -53t108.5 -65t83.5 -88.5t33.5 -124q0 -90 -43 -166t-141 -125 q31 -33 50 -75t19 -98q0 -84 -31 -155.5t-89.5 -124t-144.5 -82.5t-198 -30q-50 0 -99.5 10t-94.5 27t-82 41t-62 51zM359 731q0 -33 20 -58t53 -46t74 -40.5t84 -40.5q30 20 42 47t12 57q0 34 -19.5 59t-51.5 45.5t-73 39.5t-84 41q-31 -20 -44 -45.5t-13 -58.5z" />
<glyph unicode="&#xa8;" horiz-adv-x="753" d="M150 1326q0 34 13 63.5t35 51.5t51.5 35t61.5 13q35 0 65.5 -13t53.5 -35t36 -51.5t13 -63.5q0 -33 -13 -61.5t-36 -49.5t-53.5 -33.5t-65.5 -12.5q-33 0 -62 12.5t-51 33.5t-35 49.5t-13 61.5zM565 1326q0 34 13 63.5t35.5 51.5t52 35t63.5 13q35 0 65 -13t52.5 -35 t35.5 -51.5t13 -63.5q0 -33 -13 -61.5t-35.5 -49.5t-52.5 -33.5t-65 -12.5q-34 0 -63.5 12.5t-52 33.5t-35.5 49.5t-13 61.5z" />
<glyph unicode="&#xa9;" horiz-adv-x="1677" d="M90 746q0 105 27 203t77 182t119.5 154t154.5 119.5t181.5 76.5t202.5 27q105 0 203 -27t182.5 -76.5t154.5 -119.5t120 -154t77 -181.5t27 -203.5q0 -104 -27 -201.5t-77 -181.5t-120 -154t-154.5 -119.5t-182.5 -76.5t-203 -27t-202 27t-182 76.5t-154.5 119.5 t-119.5 154t-77 181t-27 202zM260 746q0 -130 45.5 -242.5t125.5 -196t188 -131t233 -47.5q126 0 235 47.5t190 131t127 196t46 242.5q0 87 -21 167t-59.5 149.5t-92.5 126t-120.5 96.5t-143.5 62t-161 22q-125 0 -233 -48t-188 -132.5t-125.5 -198.5t-45.5 -244zM401 750 q0 104 37 191.5t101 151.5t150 99.5t185 35.5q118 0 203 -41t137 -103l-84 -111q-8 -8 -20 -19t-33 -11q-20 0 -35 9.5t-33.5 20.5t-45.5 20t-72 9q-103 0 -156 -68t-53 -184q0 -61 14 -108.5t38.5 -79.5t58.5 -48t75 -16q48 0 76.5 8.5t47 19t32 19.5t33.5 10q12 0 23.5 -6 t19.5 -15l104 -108q-55 -77 -144.5 -116.5t-207.5 -39.5q-103 0 -186.5 37.5t-142 102.5t-90.5 152t-32 188z" />
<glyph unicode="&#xaa;" horiz-adv-x="704" d="M110 1006q0 37 14.5 76.5t54.5 73.5t111 57.5t184 26.5l2 18q0 15 -1 31t-6 27.5t-16 19t-30 7.5q-28 0 -46 -6.5t-33 -14t-31 -13.5t-40 -6t-36.5 12t-20.5 26l-31 69q63 54 135.5 78t151.5 24q52 0 94.5 -20.5t72 -54.5t42.5 -80t8 -99l-49 -396h-102q-30 0 -43.5 8.5 t-24.5 32.5l-8 28q-24 -19 -45.5 -33.5t-43.5 -24.5t-46 -14.5t-54 -4.5q-79 0 -121 40t-42 112zM321 1031q0 -18 9.5 -26t33.5 -8t43.5 9.5t43.5 31.5l8 73q-43 -2 -70 -8.5t-42 -17.5t-20.5 -24.5t-5.5 -29.5z" />
<glyph unicode="&#xab;" horiz-adv-x="898" d="M60 126zM60 538l7 37l299 410l94 -45q37 -16 39 -47t-23 -66l-135 -224q-20 -31 -42 -47q17 -19 30 -46l82 -224q15 -36 5 -67t-50 -48l-107 -45zM399 538l7 37l299 410l94 -45q37 -16 39 -47t-23 -66l-135 -224q-20 -31 -42 -47q17 -19 30 -46l82 -224q15 -36 5 -67 t-50 -48l-107 -45z" />
<glyph unicode="&#xac;" d="M119 579l26 219h928l-63 -505h-258l35 286h-668z" />
<glyph unicode="&#xae;" horiz-adv-x="1677" d="M90 746q0 105 27 203t77 182t119.5 154t154.5 119.5t181.5 76.5t202.5 27q105 0 203 -27t182.5 -76.5t154.5 -119.5t120 -154t77 -181.5t27 -203.5q0 -104 -27 -201.5t-77 -181.5t-120 -154t-154.5 -119.5t-182.5 -76.5t-203 -27t-202 27t-182 76.5t-154.5 119.5 t-119.5 154t-77 181t-27 202zM260 746q0 -130 45.5 -242.5t125.5 -196t188 -131t233 -47.5q118 0 221 42t182 117h-221q-56 0 -78 40l-94 236q-8 18 -22.5 25.5t-38.5 7.5h-33v-309h-274v922h360q102 0 176.5 -18t122 -53t70 -86.5t22.5 -116.5q0 -43 -10 -82.5t-31 -72.5 t-54.5 -60t-79.5 -44q30 -15 50 -40t37 -57l127 -264q78 83 122 192.5t44 237.5q0 87 -21 167t-59.5 149.5t-92.5 126t-120.5 96.5t-143.5 62t-161 22q-125 0 -233 -48t-188 -132.5t-125.5 -198.5t-45.5 -244zM768 785h66q49 0 77 8t42.5 22t18 36t3.5 50q0 27 -3.5 47 t-16 33.5t-36.5 21t-65 7.5h-86v-225z" />
<glyph unicode="&#xaf;" horiz-adv-x="753" d="M223 1230l23 194h584l-23 -194h-584z" />
<glyph unicode="&#xb0;" horiz-adv-x="849" d="M112 1146q0 76 28.5 142.5t78.5 115.5t118.5 77.5t146.5 28.5q79 0 147.5 -28.5t119.5 -77.5t79.5 -115.5t28.5 -142.5q0 -74 -28.5 -140t-79.5 -115t-119.5 -78.5t-147.5 -29.5t-147 29.5t-118 78.5t-78.5 115t-28.5 140zM331 1144q0 -34 11 -63t31.5 -51t49 -34.5 t61.5 -12.5q34 0 62 12.5t48.5 34.5t32 51t11.5 63q0 35 -11.5 65t-32 52t-48.5 35t-62 13t-62 -13t-48.5 -35t-31.5 -52t-11 -65z" />
<glyph unicode="&#xb1;" d="M24 82l26 220h1012l-29 -220h-1009zM103 729l27 219h381l43 348h248l-43 -348h383l-29 -219h-381l-41 -332h-248l41 332h-381z" />
<glyph unicode="&#xb2;" horiz-adv-x="684" d="M85 922l11 69q2 19 12.5 42t32.5 41l229 201q26 23 48 48.5t38.5 51t26.5 50t10 46.5q0 24 -10.5 40t-34.5 16t-39 -11.5t-31 -35.5q-10 -13 -19.5 -22.5t-22 -14.5t-28 -6t-36.5 2l-119 20q34 123 121 180t207 57q59 0 103.5 -16.5t73.5 -44t43.5 -64.5t14.5 -78 q0 -47 -15.5 -86t-41.5 -73t-59.5 -66t-69.5 -64l-124 -113q35 10 68 15.5t60 5.5h82q34 0 51 -17t12 -47l-14 -126h-580zM85 922z" />
<glyph unicode="&#xb3;" horiz-adv-x="684" d="M105 913zM106 1124l100 39q39 13 69 6.5t40 -30.5q9 -26 27.5 -38t41.5 -12q37 0 59.5 22.5t22.5 64.5q0 39 -28 51t-97 12l19 148q41 0 68 4t43 14t22 25.5t6 39.5q0 23 -10.5 38t-40.5 15q-28 0 -43 -10t-27 -31q-10 -15 -19 -25t-21 -15t-27 -5.5t-35 2.5l-111 20 q16 61 47.5 105.5t73 73.5t91.5 43.5t104 14.5q58 0 101.5 -16.5t72.5 -42.5t44 -59t15 -67q0 -68 -26.5 -113t-94.5 -72q46 -18 69 -49.5t23 -83.5q0 -74 -28.5 -126.5t-73 -86.5t-100.5 -50t-109 -16t-96 9t-77 32.5t-58 64t-37 104.5z" />
<glyph unicode="&#xb4;" horiz-adv-x="753" d="M371 1196l155 251q19 30 43.5 45.5t68.5 15.5h283l-277 -269q-24 -24 -44.5 -33.5t-53.5 -9.5h-175z" />
<glyph unicode="&#xb5;" horiz-adv-x="1285" d="M48 -210l156 1272h317l-76 -616l-1 -9q-7 -75 17 -120.5t80 -45.5q57 0 98.5 33.5t70.5 93.5l82 664h317l-89 -729q-13 -119 67 -119h85l-15 -122q-3 -19 -18.5 -37.5t-41.5 -33.5t-62 -23.5t-79 -8.5q-81 0 -140.5 46.5t-79.5 143.5q-54 -76 -114 -116t-134 -40 q-80 0 -133 35q6 -44 5 -91.5t-6 -89.5l-25 -214h-158q-67 0 -99 33t-24 94z" />
<glyph unicode="&#xb6;" horiz-adv-x="1570" d="M105 1002q0 98 39 187t109.5 156.5t168 107t216.5 39.5h969l-33 -257h-214l-179 -1456h-277l179 1456h-200l-180 -1456h-276l103 842q-97 0 -176 29t-134 80t-85 121t-30 151z" />
<glyph unicode="&#xb7;" horiz-adv-x="594" d="M62 610q0 46 18 87t49.5 71.5t73 48t89.5 17.5t90.5 -17.5t73.5 -48t49 -71.5t18 -87t-18 -86.5t-49 -70.5t-73.5 -47.5t-90.5 -17.5t-89.5 17.5t-73 47.5t-49.5 70.5t-18 86.5z" />
<glyph unicode="&#xb8;" horiz-adv-x="753" d="M157 -348l41 95q9 28 38 28q14 0 25 -3.5t27 -3.5q24 0 33 10.5t9 21.5q0 20 -25.5 30.5t-89.5 21.5l87 193h176l-37 -96q39 -11 65 -26.5t42 -33.5t23 -38t7 -41q0 -41 -21 -73.5t-58.5 -55t-89.5 -34.5t-114 -12q-39 0 -70.5 4.5t-67.5 12.5z" />
<glyph unicode="&#xb9;" horiz-adv-x="684" d="M173 922zM173 1486l271 202h184l-76 -612h88l-18 -154h-440l20 154h132l36 299l12 54l-59 -43q-16 -10 -31 -12.5t-27.5 0.5t-22 9t-13.5 13z" />
<glyph unicode="&#xba;" horiz-adv-x="765" d="M118 1137q0 86 28.5 155.5t79 117.5t118 74t146.5 26q66 0 119.5 -20t91 -56.5t58 -89t20.5 -116.5q0 -87 -28 -157.5t-77.5 -119.5t-117.5 -75t-145 -26q-67 0 -120.5 20t-92 57t-59.5 90t-21 120zM355 1133q0 -111 78 -111q60 0 84.5 52.5t24.5 153.5q0 110 -72 109 q-38 0 -60.5 -14.5t-35 -41.5t-16 -64.5t-3.5 -83.5z" />
<glyph unicode="&#xbb;" horiz-adv-x="897" d="M39 126zM41.5 219q-2.5 31 20.5 67l138 224q18 27 41 45q-18 18 -29 48l-84 224q-14 35 -3.5 66t50.5 47l107 45l196 -410l-4 -37l-299 -412l-94 45q-37 17 -39.5 48zM380.5 219q-2.5 31 20.5 67l138 224q18 27 41 45q-18 18 -29 48l-84 224q-14 35 -3.5 66t50.5 47 l107 45l196 -410l-4 -37l-299 -412l-94 45q-37 17 -39.5 48z" />
<glyph unicode="&#xbc;" horiz-adv-x="1467" d="M112 0l974 1390q36 48 77.5 74t97.5 26h125l-985 -1403q-18 -26 -37.5 -42.5t-39.5 -26.5t-41.5 -14t-45.5 -4h-125zM112 0zM139 1289l271 202h184l-76 -612h88l-18 -154h-440l20 154h132l36 299l12 54l-59 -43q-16 -10 -31 -12.5t-27.5 0.5t-22 9t-13.5 13zM723 304 l398 462h211l-56 -449h84l-14 -123q-3 -14 -15 -26.5t-30 -12.5h-45l-19 -155h-182l18 155h-282q-28 0 -42.5 12.5t-17.5 32.5zM936 317h157l13 106q6 55 24 126z" />
<glyph unicode="&#xbd;" horiz-adv-x="1449" d="M77 0l974 1390q36 48 77.5 74t97.5 26h125l-985 -1403q-18 -26 -37.5 -42.5t-39.5 -26.5t-41.5 -14t-45.5 -4h-125zM77 0zM140 1289l271 202h184l-76 -612h88l-18 -154h-440l20 154h132l36 299l12 54l-59 -43q-16 -10 -31 -12.5t-27.5 0.5t-22 9t-13.5 13zM722 0l11 69 q2 19 12.5 42t32.5 41l229 201q26 23 48 48.5t38.5 51t26.5 50t10 46.5q0 24 -10.5 40t-34.5 16t-39 -11.5t-31 -35.5q-10 -13 -19.5 -22.5t-22 -14.5t-28 -6t-36.5 2l-119 20q34 123 121 180t207 57q59 0 103.5 -16.5t73.5 -44t43.5 -64.5t14.5 -78q0 -47 -15.5 -86 t-41.5 -73t-59.5 -66t-69.5 -64l-124 -113q35 10 68 15.5t60 5.5h82q34 0 51 -17t12 -47l-14 -126h-580z" />
<glyph unicode="&#xbe;" horiz-adv-x="1481" d="M101 0zM102 927l100 39q39 13 69 6.5t40 -30.5q9 -26 27.5 -38t41.5 -12q37 0 59.5 22.5t22.5 64.5q0 39 -28 51t-97 12l19 148q41 0 68 4t43 14t22 25.5t6 39.5q0 23 -10.5 38t-40.5 15q-28 0 -43 -10t-27 -31q-10 -15 -19 -25t-21 -15t-27 -5.5t-35 2.5l-111 20 q16 61 47.5 105.5t73 73.5t91.5 43.5t104 14.5q58 0 101.5 -16.5t72.5 -42.5t44 -59t15 -67q0 -68 -26.5 -113t-94.5 -72q46 -18 69 -49.5t23 -83.5q0 -74 -28.5 -126.5t-73 -86.5t-100.5 -50t-109 -16t-96 9t-77 32.5t-58 64t-37 104.5zM131 0l974 1390q36 48 77.5 74 t97.5 26h125l-985 -1403q-18 -26 -37.5 -42.5t-39.5 -26.5t-41.5 -14t-45.5 -4h-125zM740 304l398 462h211l-56 -449h84l-14 -123q-3 -14 -15 -26.5t-30 -12.5h-45l-19 -155h-182l18 155h-282q-28 0 -42.5 12.5t-17.5 32.5zM953 317h157l13 106q6 55 24 126z" />
<glyph unicode="&#xbf;" horiz-adv-x="886" d="M-20 -48q0 81 22.5 138.5t57 100t76 73t80 56.5t68.5 52.5t42 61.5l45 145h209v-166q0 -48 -22 -85t-55 -68t-71 -58t-70.5 -55.5t-54.5 -62.5t-22 -78q0 -62 29 -92t71 -30q48 0 82.5 11.5t60 25t45 25.5t37.5 12q42 0 58 -35l65 -126q-40 -31 -84.5 -59t-94.5 -48.5 t-106.5 -32.5t-119.5 -12q-82 0 -147 21.5t-109.5 61.5t-68 96.5t-23.5 127.5zM352 904q0 37 14 69t38 55.5t57 37t71 13.5t71 -13.5t57.5 -37t38.5 -55.5t14 -69t-14 -69t-38.5 -55.5t-57.5 -37t-71 -13.5q-39 0 -71.5 13.5t-56.5 37t-38 55.5t-14 69z" />
<glyph unicode="&#xc0;" horiz-adv-x="1366" d="M-95 0l712 1492h342l347 -1492h-258q-43 0 -67.5 20t-33.5 53l-46 268h-507l-110 -268q-14 -28 -45.5 -50.5t-71.5 -22.5h-262zM0 0zM365 1912h303q22 0 37.5 -1.5t28 -6t22 -14t20.5 -25.5l165 -277h-213q-17 0 -29.5 0.5t-22.5 3.5t-18.5 9t-19.5 17zM487 568h375 l-72 426q-8 40 -18 94.5t-19 117.5q-25 -63 -49 -118t-41 -96z" />
<glyph unicode="&#xc1;" horiz-adv-x="1366" d="M-95 0l712 1492h342l347 -1492h-258q-43 0 -67.5 20t-33.5 53l-46 268h-507l-110 -268q-14 -28 -45.5 -50.5t-71.5 -22.5h-262zM0 0zM487 568h375l-72 426q-8 40 -18 94.5t-19 117.5q-25 -63 -49 -118t-41 -96zM637 1588l209 277q13 16 25.5 26t26 14.5t29.5 5.5t38 1 h321l-336 -292q-13 -11 -24 -17.5t-23 -9.5t-24.5 -4t-29.5 -1h-212z" />
<glyph unicode="&#xc2;" horiz-adv-x="1366" d="M-95 0l712 1492h342l347 -1492h-258q-43 0 -67.5 20t-33.5 53l-46 268h-507l-110 -268q-14 -28 -45.5 -50.5t-71.5 -22.5h-262zM0 0zM447 1588l262 285h265l199 -285h-211q-9 0 -19.5 1t-22.5 5.5t-23.5 14t-21.5 26.5l-39 80l-15 26l-19 -26l-55 -80q-31 -34 -56 -40.5 t-43 -6.5h-201zM487 568h375l-72 426q-8 40 -18 94.5t-19 117.5q-25 -63 -49 -118t-41 -96z" />
<glyph unicode="&#xc3;" horiz-adv-x="1366" d="M-95 0l712 1492h342l347 -1492h-258q-43 0 -67.5 20t-33.5 53l-46 268h-507l-110 -268q-14 -28 -45.5 -50.5t-71.5 -22.5h-262zM0 0zM448 1578q6 56 26.5 108.5t52.5 93.5t75 65.5t96 24.5t88.5 -15.5t62.5 -34.5t48 -34.5t46 -15.5q20 0 35.5 9t26 23t16 29.5t7.5 30.5 h177q-6 -56 -26 -108.5t-52 -93t-75 -64.5t-96 -24q-52 0 -87.5 15.5t-63 34t-49 34t-45.5 15.5q-20 0 -35.5 -9t-26 -23t-16 -30.5t-6.5 -30.5h-179zM487 568h375l-72 426q-8 40 -18 94.5t-19 117.5q-25 -63 -49 -118t-41 -96z" />
<glyph unicode="&#xc4;" horiz-adv-x="1366" d="M-95 0l712 1492h342l347 -1492h-258q-43 0 -67.5 20t-33.5 53l-46 268h-507l-110 -268q-14 -28 -45.5 -50.5t-71.5 -22.5h-262zM0 0zM425 1706q0 34 13.5 63t35.5 51.5t51 35.5t62 13q35 0 65 -13t53.5 -35.5t36.5 -51.5t13 -63q0 -33 -13 -61.5t-36.5 -49.5t-53.5 -33.5 t-65 -12.5q-33 0 -62 12.5t-51 33.5t-35.5 49.5t-13.5 61.5zM487 568h375l-72 426q-8 40 -18 94.5t-19 117.5q-25 -63 -49 -118t-41 -96zM851 1706q0 34 13 63t35.5 51.5t52 35.5t63.5 13q35 0 65 -13t53 -35.5t35.5 -51.5t12.5 -63q0 -33 -12.5 -61.5t-35.5 -49.5 t-53 -33.5t-65 -12.5q-34 0 -63.5 12.5t-52 33.5t-35.5 49.5t-13 61.5z" />
<glyph unicode="&#xc5;" horiz-adv-x="1366" d="M-95 0l712 1492h342l347 -1492h-258q-43 0 -67.5 20t-33.5 53l-46 268h-507l-110 -268q-14 -28 -45.5 -50.5t-71.5 -22.5h-262zM0 0zM487 568h375l-72 426q-8 40 -18 94.5t-19 117.5q-25 -63 -49 -118t-41 -96zM609 1755q5 47 27.5 85.5t54 65.5t71 42t80.5 15 q43 0 80.5 -15t64 -42t39.5 -65.5t7 -85.5q-5 -45 -26.5 -82.5t-53.5 -64t-73 -41t-84 -14.5q-41 0 -77.5 14.5t-62.5 41t-39 64t-8 82.5zM748 1755q-4 -36 11.5 -59t54.5 -23q34 0 56 23t26 59q4 39 -13.5 61.5t-50.5 22.5q-38 0 -59 -22.5t-25 -61.5z" />
<glyph unicode="&#xc6;" horiz-adv-x="1793" d="M-91 0l837 1492h1082l-33 -257h-612v-363h436l-31 -247h-405v-368h493l-32 -257h-777v341h-439l-134 -268q-17 -28 -50 -50.5t-75 -22.5h-260zM542 568h325v659q-22 -52 -43 -98.5t-45 -85.5z" />
<glyph unicode="&#xc7;" horiz-adv-x="1263" d="M67 634q0 128 28.5 242.5t80.5 212t125.5 175t162.5 132t191.5 83.5t213.5 29q84 0 153.5 -15.5t125 -44t99.5 -67.5t77 -86l-117 -135q-12 -14 -28.5 -25.5t-42.5 -11.5q-17 0 -31.5 8.5t-29.5 20t-33.5 26t-44 26t-61 20t-83.5 8.5q-94 0 -175.5 -40t-141.5 -114 t-93.5 -180t-33.5 -238q0 -95 23 -169.5t63 -126.5t95 -79t120 -27q56 0 97.5 8.5t71 22t50 29.5t37 29t31 22t30.5 9t27 -5.5t16 -13.5l117 -140q-83 -98 -191 -156t-242 -73l-16 -41q78 -24 106.5 -60t28.5 -79q0 -41 -21 -73.5t-58 -55t-89 -34.5t-114 -12q-39 0 -71 4.5 t-67 12.5l41 95q8 28 37 28q14 0 25.5 -3.5t27.5 -3.5q24 0 33 10.5t9 21.5q0 20 -26 30.5t-89 21.5l61 137q-123 13 -217 67.5t-158 140t-97 197t-33 240.5z" />
<glyph unicode="&#xc8;" horiz-adv-x="1096" d="M58 0l185 1492h889l-33 -257h-552l-45 -361h423l-33 -247h-421l-45 -370h556l-33 -257h-891zM58 0zM318 1912h303q22 0 37.5 -1.5t28 -6t22 -14t20.5 -25.5l165 -277h-213q-17 0 -29.5 0.5t-22.5 3.5t-18.5 9t-19.5 17z" />
<glyph unicode="&#xc9;" horiz-adv-x="1096" d="M58 0l185 1492h889l-33 -257h-552l-45 -361h423l-33 -247h-421l-45 -370h556l-33 -257h-891zM58 0zM555 1588l209 277q13 16 25.5 26t26 14.5t29.5 5.5t38 1h321l-336 -292q-13 -11 -24 -17.5t-23 -9.5t-24.5 -4t-29.5 -1h-212z" />
<glyph unicode="&#xca;" horiz-adv-x="1096" d="M58 0l185 1492h889l-33 -257h-552l-45 -361h423l-33 -247h-421l-45 -370h556l-33 -257h-891zM58 0zM350 1588l262 285h265l199 -285h-211q-9 0 -19.5 1t-22.5 5.5t-23.5 14t-21.5 26.5l-39 80l-15 26l-19 -26l-55 -80q-31 -34 -56 -40.5t-43 -6.5h-201z" />
<glyph unicode="&#xcb;" horiz-adv-x="1096" d="M58 0l185 1492h889l-33 -257h-552l-45 -361h423l-33 -247h-421l-45 -370h556l-33 -257h-891zM58 0zM340 1706q0 34 13.5 63t35.5 51.5t51 35.5t62 13q35 0 65 -13t53.5 -35.5t36.5 -51.5t13 -63q0 -33 -13 -61.5t-36.5 -49.5t-53.5 -33.5t-65 -12.5q-33 0 -62 12.5 t-51 33.5t-35.5 49.5t-13.5 61.5zM766 1706q0 34 13 63t35.5 51.5t52 35.5t63.5 13q35 0 65 -13t53 -35.5t35.5 -51.5t12.5 -63q0 -33 -12.5 -61.5t-35.5 -49.5t-53 -33.5t-65 -12.5q-34 0 -63.5 12.5t-52 33.5t-35.5 49.5t-13 61.5z" />
<glyph unicode="&#xcc;" horiz-adv-x="607" d="M-7 1912h303q22 0 37.5 -1.5t28 -6t22 -14t20.5 -25.5l165 -277h-213q-17 0 -29.5 0.5t-22.5 3.5t-18.5 9t-19.5 17zM0 0zM58 0l183 1492h336l-183 -1492h-336z" />
<glyph unicode="&#xcd;" horiz-adv-x="607" d="M58 0l183 1492h336l-183 -1492h-336zM58 0zM256 1588l209 277q13 16 25.5 26t26 14.5t29.5 5.5t38 1h321l-336 -292q-13 -11 -24 -17.5t-23 -9.5t-24.5 -4t-29.5 -1h-212z" />
<glyph unicode="&#xce;" horiz-adv-x="607" d="M58 0l183 1492h336l-183 -1492h-336zM58 0zM59 1588l262 285h265l199 -285h-211q-9 0 -19.5 1t-22.5 5.5t-23.5 14t-21.5 26.5l-39 80l-15 26l-19 -26l-55 -80q-31 -34 -56 -40.5t-43 -6.5h-201z" />
<glyph unicode="&#xcf;" horiz-adv-x="607" d="M50 0zM50 1706q0 34 13.5 63t35.5 51.5t51 35.5t62 13q35 0 65 -13t53.5 -35.5t36.5 -51.5t13 -63q0 -33 -13 -61.5t-36.5 -49.5t-53.5 -33.5t-65 -12.5q-33 0 -62 12.5t-51 33.5t-35.5 49.5t-13.5 61.5zM58 0l183 1492h336l-183 -1492h-336zM476 1706q0 34 13 63 t35.5 51.5t52 35.5t63.5 13q35 0 65 -13t53 -35.5t35.5 -51.5t12.5 -63q0 -33 -12.5 -61.5t-35.5 -49.5t-53 -33.5t-65 -12.5q-34 0 -63.5 12.5t-52 33.5t-35.5 49.5t-13 61.5z" />
<glyph unicode="&#xd0;" horiz-adv-x="1468" d="M3 656l25 183h151l80 653h537q147 0 264.5 -49.5t199 -136.5t125 -206t43.5 -258q0 -122 -27.5 -231t-78.5 -203t-124.5 -169t-164 -128.5t-196.5 -82t-224 -28.5h-536l80 656h-154zM445 257h201q102 0 183.5 40.5t138.5 115t87.5 181.5t30.5 240q0 91 -21 165t-62 126.5 t-101.5 81t-138.5 28.5h-201l-47 -396h320l-23 -183h-319z" />
<glyph unicode="&#xd1;" horiz-adv-x="1482" d="M58 0l185 1492h176q22 0 36.5 -1.5t26 -7t20.5 -16t19 -26.5l523 -922q2 36 6 69t8 61l100 843h295l-184 -1492h-174q-39 0 -63 13t-46 42l-521 921q-2 -29 -4.5 -55.5t-4.5 -50.5l-103 -870h-295zM492 1578q6 56 26.5 108.5t52.5 93.5t75 65.5t95 24.5q53 0 89 -15.5 t63 -34.5t48 -34.5t46 -15.5q20 0 35.5 9t26 23t16 29.5t7.5 30.5h177q-6 -56 -26 -108.5t-52 -93t-75 -64.5t-97 -24q-52 0 -87 15.5t-62.5 34t-49 34t-45.5 15.5q-20 0 -36 -9t-26 -23t-15.5 -30.5t-6.5 -30.5h-179z" />
<glyph unicode="&#xd2;" horiz-adv-x="1556" d="M67 0zM67 649q0 121 28 232t79.5 206.5t125.5 173t165 132.5t197.5 85t225.5 30q146 0 263.5 -51.5t199 -141.5t125 -212t43.5 -261q0 -121 -28.5 -231.5t-80 -206t-125 -173t-164.5 -132.5t-197.5 -85t-224.5 -30q-147 0 -264.5 51.5t-199 141t-125 211t-43.5 261.5z M409 656q0 -92 21.5 -166.5t63 -128t102.5 -82.5t140 -29q102 0 183.5 42t138.5 118.5t88 184.5t31 239q0 92 -22 167t-64.5 129t-104 83t-139.5 29q-102 0 -183 -42.5t-138 -119t-87 -185t-30 -239.5zM484 1912h303q22 0 37.5 -1.5t28 -6t22 -14t20.5 -25.5l165 -277h-213 q-17 0 -29.5 0.5t-22.5 3.5t-18.5 9t-19.5 17z" />
<glyph unicode="&#xd3;" horiz-adv-x="1556" d="M67 0zM67 649q0 121 28 232t79.5 206.5t125.5 173t165 132.5t197.5 85t225.5 30q146 0 263.5 -51.5t199 -141.5t125 -212t43.5 -261q0 -121 -28.5 -231.5t-80 -206t-125 -173t-164.5 -132.5t-197.5 -85t-224.5 -30q-147 0 -264.5 51.5t-199 141t-125 211t-43.5 261.5z M409 656q0 -92 21.5 -166.5t63 -128t102.5 -82.5t140 -29q102 0 183.5 42t138.5 118.5t88 184.5t31 239q0 92 -22 167t-64.5 129t-104 83t-139.5 29q-102 0 -183 -42.5t-138 -119t-87 -185t-30 -239.5zM733 1588l209 277q13 16 25.5 26t26 14.5t29.5 5.5t38 1h321l-336 -292 q-13 -11 -24 -17.5t-23 -9.5t-24.5 -4t-29.5 -1h-212z" />
<glyph unicode="&#xd4;" horiz-adv-x="1556" d="M67 0zM67 649q0 121 28 232t79.5 206.5t125.5 173t165 132.5t197.5 85t225.5 30q146 0 263.5 -51.5t199 -141.5t125 -212t43.5 -261q0 -121 -28.5 -231.5t-80 -206t-125 -173t-164.5 -132.5t-197.5 -85t-224.5 -30q-147 0 -264.5 51.5t-199 141t-125 211t-43.5 261.5z M409 656q0 -92 21.5 -166.5t63 -128t102.5 -82.5t140 -29q102 0 183.5 42t138.5 118.5t88 184.5t31 239q0 92 -22 167t-64.5 129t-104 83t-139.5 29q-102 0 -183 -42.5t-138 -119t-87 -185t-30 -239.5zM537 1588l262 285h265l199 -285h-211q-9 0 -19.5 1t-22.5 5.5t-23.5 14 t-21.5 26.5l-39 80l-15 26l-19 -26l-55 -80q-31 -34 -56 -40.5t-43 -6.5h-201z" />
<glyph unicode="&#xd5;" horiz-adv-x="1556" d="M67 0zM67 649q0 121 28 232t79.5 206.5t125.5 173t165 132.5t197.5 85t225.5 30q146 0 263.5 -51.5t199 -141.5t125 -212t43.5 -261q0 -121 -28.5 -231.5t-80 -206t-125 -173t-164.5 -132.5t-197.5 -85t-224.5 -30q-147 0 -264.5 51.5t-199 141t-125 211t-43.5 261.5z M409 656q0 -92 21.5 -166.5t63 -128t102.5 -82.5t140 -29q102 0 183.5 42t138.5 118.5t88 184.5t31 239q0 92 -22 167t-64.5 129t-104 83t-139.5 29q-102 0 -183 -42.5t-138 -119t-87 -185t-30 -239.5zM538 1578q6 56 26.5 108.5t52.5 93.5t75 65.5t96 24.5t88.5 -15.5 t62.5 -34.5t48 -34.5t46 -15.5q20 0 35.5 9t26 23t16 29.5t7.5 30.5h177q-6 -56 -26 -108.5t-52 -93t-75 -64.5t-96 -24q-52 0 -87.5 15.5t-63 34t-49 34t-45.5 15.5q-20 0 -35.5 -9t-26 -23t-16 -30.5t-6.5 -30.5h-179z" />
<glyph unicode="&#xd6;" horiz-adv-x="1556" d="M67 0zM67 649q0 121 28 232t79.5 206.5t125.5 173t165 132.5t197.5 85t225.5 30q146 0 263.5 -51.5t199 -141.5t125 -212t43.5 -261q0 -121 -28.5 -231.5t-80 -206t-125 -173t-164.5 -132.5t-197.5 -85t-224.5 -30q-147 0 -264.5 51.5t-199 141t-125 211t-43.5 261.5z M409 656q0 -92 21.5 -166.5t63 -128t102.5 -82.5t140 -29q102 0 183.5 42t138.5 118.5t88 184.5t31 239q0 92 -22 167t-64.5 129t-104 83t-139.5 29q-102 0 -183 -42.5t-138 -119t-87 -185t-30 -239.5zM558 1706q0 34 13.5 63t35.5 51.5t51 35.5t62 13q35 0 65 -13 t53.5 -35.5t36.5 -51.5t13 -63q0 -33 -13 -61.5t-36.5 -49.5t-53.5 -33.5t-65 -12.5q-33 0 -62 12.5t-51 33.5t-35.5 49.5t-13.5 61.5zM984 1706q0 34 13 63t35.5 51.5t52 35.5t63.5 13q35 0 65 -13t53 -35.5t35.5 -51.5t12.5 -63q0 -33 -12.5 -61.5t-35.5 -49.5t-53 -33.5 t-65 -12.5q-34 0 -63.5 12.5t-52 33.5t-35.5 49.5t-13 61.5z" />
<glyph unicode="&#xd7;" d="M59 347l383 341l-282 323l180 155l281 -319l356 317l141 -155l-359 -320l298 -340l-180 -154l-296 335l-380 -337z" />
<glyph unicode="&#xd8;" horiz-adv-x="1556" d="M13 -116l227 288q-84 91 -128.5 213t-44.5 264q0 121 28 232t79.5 206.5t125.5 173t165 132.5t197.5 85t225.5 30q96 0 179 -22.5t153 -64.5l45 58q19 22 34 36.5t31 24t34.5 14t45.5 4.5h170l-210 -268q73 -89 111 -203t38 -245q0 -121 -28.5 -231.5t-80 -206t-125 -173 t-164.5 -132.5t-197.5 -85t-224.5 -30q-86 0 -161 17t-140 50l-63 -81q-42 -47 -93.5 -66.5t-97.5 -19.5h-131zM409 656q0 -126 40 -218l584 747q-38 28 -84.5 42.5t-101.5 14.5q-102 0 -183 -42.5t-138 -119t-87 -185t-30 -239.5zM582 286q67 -36 154 -36q102 0 183.5 42 t138.5 118.5t88 184.5t31 239q0 49 -7 93.5t-19 83.5z" />
<glyph unicode="&#xd9;" horiz-adv-x="1429" d="M99 0zM117 605l106 887h334l-108 -887q-9 -79 1 -142.5t38 -108t74 -68.5t108 -24t114 24t90.5 68.5t64 108t34.5 142.5l108 887h334l-108 -887q-17 -136 -72 -250t-142.5 -196.5t-203.5 -128.5t-254 -46t-242.5 46t-171.5 128.5t-94.5 196.5t-9.5 250zM421 1912h303 q22 0 37.5 -1.5t28 -6t22 -14t20.5 -25.5l165 -277h-213q-17 0 -29.5 0.5t-22.5 3.5t-18.5 9t-19.5 17z" />
<glyph unicode="&#xda;" horiz-adv-x="1429" d="M99 0zM117 605l106 887h334l-108 -887q-9 -79 1 -142.5t38 -108t74 -68.5t108 -24t114 24t90.5 68.5t64 108t34.5 142.5l108 887h334l-108 -887q-17 -136 -72 -250t-142.5 -196.5t-203.5 -128.5t-254 -46t-242.5 46t-171.5 128.5t-94.5 196.5t-9.5 250zM659 1588l209 277 q13 16 25.5 26t26 14.5t29.5 5.5t38 1h321l-336 -292q-13 -11 -24 -17.5t-23 -9.5t-24.5 -4t-29.5 -1h-212z" />
<glyph unicode="&#xdb;" horiz-adv-x="1429" d="M99 0zM117 605l106 887h334l-108 -887q-9 -79 1 -142.5t38 -108t74 -68.5t108 -24t114 24t90.5 68.5t64 108t34.5 142.5l108 887h334l-108 -887q-17 -136 -72 -250t-142.5 -196.5t-203.5 -128.5t-254 -46t-242.5 46t-171.5 128.5t-94.5 196.5t-9.5 250zM463 1588l262 285 h265l199 -285h-211q-9 0 -19.5 1t-22.5 5.5t-23.5 14t-21.5 26.5l-39 80l-15 26l-19 -26l-55 -80q-31 -34 -56 -40.5t-43 -6.5h-201z" />
<glyph unicode="&#xdc;" horiz-adv-x="1429" d="M99 0zM117 605l106 887h334l-108 -887q-9 -79 1 -142.5t38 -108t74 -68.5t108 -24t114 24t90.5 68.5t64 108t34.5 142.5l108 887h334l-108 -887q-17 -136 -72 -250t-142.5 -196.5t-203.5 -128.5t-254 -46t-242.5 46t-171.5 128.5t-94.5 196.5t-9.5 250zM474 1706 q0 34 13.5 63t35.5 51.5t51 35.5t62 13q35 0 65 -13t53.5 -35.5t36.5 -51.5t13 -63q0 -33 -13 -61.5t-36.5 -49.5t-53.5 -33.5t-65 -12.5q-33 0 -62 12.5t-51 33.5t-35.5 49.5t-13.5 61.5zM900 1706q0 34 13 63t35.5 51.5t52 35.5t63.5 13q35 0 65 -13t53 -35.5t35.5 -51.5 t12.5 -63q0 -33 -12.5 -61.5t-35.5 -49.5t-53 -33.5t-65 -12.5q-34 0 -63.5 12.5t-52 33.5t-35.5 49.5t-13 61.5z" />
<glyph unicode="&#xdd;" horiz-adv-x="1291" d="M87 0zM87 1492h297q43 0 67 -20t35 -53l144 -451q31 -88 46 -166q19 39 42 79.5t51 86.5l254 451q17 27 46 50t71 23h276l-611 -921l-71 -571h-334l71 568zM577 1588l209 277q13 16 25.5 26t26 14.5t29.5 5.5t38 1h321l-336 -292q-13 -11 -24 -17.5t-23 -9.5t-24.5 -4 t-29.5 -1h-212z" />
<glyph unicode="&#xde;" horiz-adv-x="1218" d="M58 0l183 1492h333l-30 -247h162q132 0 226.5 -32t156 -88t90 -132.5t28.5 -165.5q0 -123 -37 -226.5t-114 -179.5t-195 -118.5t-278 -42.5h-161l-32 -260h-332zM453 511h162q72 0 120.5 21t79 59.5t43.5 91.5t13 117q0 44 -11.5 79.5t-36 62t-62 40.5t-88.5 14h-160z " />
<glyph unicode="&#xdf;" horiz-adv-x="1297" d="M63 935l15 121h173q31 91 85 174.5t128 147.5t165.5 102.5t197.5 38.5q116 0 194 -34t125 -84.5t67 -109t20 -108.5q0 -67 -20 -113t-49.5 -79t-64.5 -56.5t-64.5 -44.5t-49.5 -43.5t-20 -52.5q0 -27 19.5 -48.5t48 -44t62 -48t62.5 -61.5t48.5 -83.5t19.5 -113.5 q0 -103 -38 -180.5t-100.5 -128.5t-142 -76.5t-162.5 -25.5q-42 0 -84 10t-80.5 27.5t-72.5 41.5t-60 52l86 112q14 19 34.5 30.5t47.5 11.5q26 0 45.5 -12t39 -27.5t42.5 -28t56 -12.5q17 0 34.5 9.5t31 26.5t22 40t8.5 50q0 37 -22 64t-55 50t-72 46.5t-71.5 54.5 t-54.5 73t-22 103q0 73 22.5 122.5t55.5 85.5t72 63.5t72.5 55.5t56 60.5t22.5 81.5q0 58 -36.5 94t-113.5 36q-59 0 -103.5 -35.5t-77 -92.5t-51.5 -129t-28 -146l-102 -851l-55 -178q-20 -58 -57.5 -91.5t-106.5 -33.5h-129l133 1096l-78 18q-34 7 -53.5 23.5t-14.5 49.5z " />
<glyph unicode="&#xe0;" horiz-adv-x="1086" d="M22 0zM22 366q0 144 52.5 273.5t147 227t225 154.5t285.5 57q76 0 154 -10t153 -37l-129 -1031h-170q-30 0 -49.5 7.5t-31.5 21t-16.5 32t-4.5 39.5v76q-66 -90 -145.5 -141t-176.5 -51q-57 0 -110 23t-94 69.5t-65.5 118.5t-24.5 171zM339 422q0 -51 8 -87t22 -58 t32.5 -32.5t41.5 -10.5q35 0 68 26.5t62 71.5t53.5 105.5t42.5 128.5l37 294h-19q-78 0 -142 -34.5t-110 -94.5t-71 -139.5t-25 -169.5zM407 1508h273q44 0 64 -15.5t32 -45.5l100 -251h-166q-33 0 -52 9.5t-37 33.5z" />
<glyph unicode="&#xe1;" horiz-adv-x="1086" d="M22 0zM22 366q0 144 52.5 273.5t147 227t225 154.5t285.5 57q76 0 154 -10t153 -37l-129 -1031h-170q-30 0 -49.5 7.5t-31.5 21t-16.5 32t-4.5 39.5v76q-66 -90 -145.5 -141t-176.5 -51q-57 0 -110 23t-94 69.5t-65.5 118.5t-24.5 171zM339 422q0 -51 8 -87t22 -58 t32.5 -32.5t41.5 -10.5q35 0 68 26.5t62 71.5t53.5 105.5t42.5 128.5l37 294h-19q-78 0 -142 -34.5t-110 -94.5t-71 -139.5t-25 -169.5zM599 1196l155 251q19 30 43.5 45.5t68.5 15.5h283l-277 -269q-24 -24 -44.5 -33.5t-53.5 -9.5h-175z" />
<glyph unicode="&#xe2;" horiz-adv-x="1086" d="M22 0zM22 366q0 144 52.5 273.5t147 227t225 154.5t285.5 57q76 0 154 -10t153 -37l-129 -1031h-170q-30 0 -49.5 7.5t-31.5 21t-16.5 32t-4.5 39.5v76q-66 -90 -145.5 -141t-176.5 -51q-57 0 -110 23t-94 69.5t-65.5 118.5t-24.5 171zM339 422q0 -51 8 -87t22 -58 t32.5 -32.5t41.5 -10.5q35 0 68 26.5t62 71.5t53.5 105.5t42.5 128.5l37 294h-19q-78 0 -142 -34.5t-110 -94.5t-71 -139.5t-25 -169.5zM350 1196l254 296h275l186 -296h-193q-17 0 -32.5 5.5t-30.5 23.5l-61 85q-5 6 -10 13t-11 15q-15 -18 -26 -28l-82 -85 q-15 -14 -32.5 -21.5t-35.5 -7.5h-201z" />
<glyph unicode="&#xe3;" horiz-adv-x="1086" d="M22 0zM22 366q0 144 52.5 273.5t147 227t225 154.5t285.5 57q76 0 154 -10t153 -37l-129 -1031h-170q-30 0 -49.5 7.5t-31.5 21t-16.5 32t-4.5 39.5v76q-66 -90 -145.5 -141t-176.5 -51q-57 0 -110 23t-94 69.5t-65.5 118.5t-24.5 171zM339 422q0 -51 8 -87t22 -58 t32.5 -32.5t41.5 -10.5q35 0 68 26.5t62 71.5t53.5 105.5t42.5 128.5l37 294h-19q-78 0 -142 -34.5t-110 -94.5t-71 -139.5t-25 -169.5zM396 1214q7 65 30.5 116.5t57 88.5t75.5 57t87 20q35 0 64 -11.5t53.5 -26t44 -26.5t35.5 -12q23 0 38 13t20 55h177 q-8 -65 -30.5 -116.5t-55.5 -88t-75 -56t-88 -19.5q-35 0 -64 12t-53.5 26.5t-44 26t-35.5 11.5q-24 0 -37.5 -14t-18.5 -56h-180z" />
<glyph unicode="&#xe4;" horiz-adv-x="1086" d="M22 0zM22 366q0 144 52.5 273.5t147 227t225 154.5t285.5 57q76 0 154 -10t153 -37l-129 -1031h-170q-30 0 -49.5 7.5t-31.5 21t-16.5 32t-4.5 39.5v76q-66 -90 -145.5 -141t-176.5 -51q-57 0 -110 23t-94 69.5t-65.5 118.5t-24.5 171zM339 422q0 -51 8 -87t22 -58 t32.5 -32.5t41.5 -10.5q35 0 68 26.5t62 71.5t53.5 105.5t42.5 128.5l37 294h-19q-78 0 -142 -34.5t-110 -94.5t-71 -139.5t-25 -169.5zM369 1326q0 34 13 63.5t35 51.5t51.5 35t61.5 13q35 0 65.5 -13t53.5 -35t36 -51.5t13 -63.5q0 -33 -13 -61.5t-36 -49.5t-53.5 -33.5 t-65.5 -12.5q-33 0 -62 12.5t-51 33.5t-35 49.5t-13 61.5zM784 1326q0 34 13 63.5t35.5 51.5t52 35t63.5 13q35 0 65 -13t52.5 -35t35.5 -51.5t13 -63.5q0 -33 -13 -61.5t-35.5 -49.5t-52.5 -33.5t-65 -12.5q-34 0 -63.5 12.5t-52 33.5t-35.5 49.5t-13 61.5z" />
<glyph unicode="&#xe5;" horiz-adv-x="1086" d="M22 0zM22 366q0 144 52.5 273.5t147 227t225 154.5t285.5 57q76 0 154 -10t153 -37l-129 -1031h-170q-30 0 -49.5 7.5t-31.5 21t-16.5 32t-4.5 39.5v76q-66 -90 -145.5 -141t-176.5 -51q-57 0 -110 23t-94 69.5t-65.5 118.5t-24.5 171zM339 422q0 -51 8 -87t22 -58 t32.5 -32.5t41.5 -10.5q35 0 68 26.5t62 71.5t53.5 105.5t42.5 128.5l37 294h-19q-78 0 -142 -34.5t-110 -94.5t-71 -139.5t-25 -169.5zM531 1366q6 51 29 92.5t58 71.5t78.5 45.5t88.5 15.5q46 0 86.5 -15.5t69.5 -45.5t43.5 -71.5t8.5 -92.5q-6 -50 -29.5 -90.5t-59 -69 t-79.5 -44.5t-91 -16q-45 0 -84.5 16t-67.5 44.5t-42.5 69t-8.5 90.5zM688 1366q-4 -36 11.5 -59t54.5 -23q34 0 56 23t26 59q5 39 -13 61.5t-51 22.5q-39 0 -59 -22.5t-25 -61.5z" />
<glyph unicode="&#xe6;" horiz-adv-x="1538" d="M-10 243q0 43 11.5 88.5t39.5 88t74 81t114 67.5t160.5 47.5t214.5 21.5l4 27q10 95 -18.5 138t-89.5 43q-51 0 -84.5 -13t-61 -27.5t-54 -27.5t-60.5 -13q-31 0 -51 15.5t-31 37.5l-43 96q99 84 201.5 125.5t218.5 41.5q105 0 170.5 -37t98.5 -103q65 65 148.5 100.5 t186.5 35.5q69 0 128.5 -22.5t104 -61.5t69.5 -90.5t25 -109.5q0 -37 -9 -75.5t-33.5 -75t-66.5 -68.5t-108 -58t-158.5 -42.5t-216.5 -20.5q3 -122 51.5 -176.5t135.5 -54.5q42 0 72.5 7.5t53.5 18.5t41.5 23.5t35.5 23.5t35.5 18t41.5 7q15 0 29.5 -7.5t26.5 -19.5l82 -95 q-56 -55 -110 -96t-111 -67t-121 -38t-140 -12q-94 0 -176 44.5t-134 139.5q-36 -48 -79.5 -83t-92 -57.5t-100 -33t-102.5 -10.5q-166 0 -244.5 68.5t-78.5 190.5zM285 280q0 -94 88 -95q38 0 72 13.5t61.5 43t46 77.5t27.5 116l2 22q-93 -5 -151 -21t-90.5 -39.5t-44 -54 t-11.5 -62.5zM886 626q98 9 158 25t92 35.5t43 42.5t11 47q0 36 -20.5 62t-71.5 26q-45 0 -80.5 -17t-61.5 -48t-43.5 -75t-26.5 -98z" />
<glyph unicode="&#xe7;" horiz-adv-x="926" d="M31 433q0 130 42.5 247t118.5 205t180.5 139.5t229.5 51.5q106 0 182.5 -36t137.5 -114l-103 -118q-11 -11 -25.5 -20t-31.5 -9q-20 0 -34 9t-30.5 18.5t-40 18.5t-61.5 9q-47 0 -91.5 -27.5t-79.5 -78.5t-56 -126t-21 -170q0 -53 12.5 -92.5t34 -65.5t50 -39.5 t61.5 -13.5q49 0 79 14t52.5 30.5t42 30t47.5 13.5q15 0 29.5 -7.5t25.5 -18.5l82 -97q-44 -49 -85.5 -84t-84.5 -59.5t-89 -37.5t-100 -18l-15 -38q39 -11 65.5 -26.5t42 -33.5t22.5 -38t7 -41q0 -41 -21 -73.5t-58.5 -55t-89 -34.5t-114.5 -12q-39 0 -70.5 4.5t-67.5 12.5 l41 95q9 28 38 28q14 0 25.5 -3.5t26.5 -3.5q24 0 33 10.5t9 21.5q0 20 -25.5 30.5t-89.5 21.5l65 144q-70 16 -125.5 53.5t-93.5 93.5t-58.5 129t-20.5 161z" />
<glyph unicode="&#xe8;" horiz-adv-x="1012" d="M30 0zM30 433q0 85 19 166t54 152t86.5 131t115.5 103t140 67t162 24q85 0 151 -24.5t111 -64t69 -88.5t24 -98q0 -73 -29 -133.5t-100 -107t-191.5 -79t-302.5 -51.5q2 -109 47.5 -159t134.5 -50q42 0 73 7.5t54 18.5t41.5 23.5t35 23.5t35 18t42.5 7q15 0 29.5 -7.5 t25.5 -19.5l82 -95q-56 -55 -110 -96t-110.5 -67t-120.5 -38t-140 -12q-94 0 -173 32t-136 91t-88 142t-31 184zM271 1508h273q44 0 64 -15.5t32 -45.5l100 -251h-166q-33 0 -52 9.5t-37 33.5zM361 627q99 15 161 32t95.5 37t45.5 43t12 49q0 27 -20.5 50.5t-65.5 23.5 q-79 0 -138.5 -63t-89.5 -172z" />
<glyph unicode="&#xe9;" horiz-adv-x="1012" d="M30 0zM30 433q0 85 19 166t54 152t86.5 131t115.5 103t140 67t162 24q85 0 151 -24.5t111 -64t69 -88.5t24 -98q0 -73 -29 -133.5t-100 -107t-191.5 -79t-302.5 -51.5q2 -109 47.5 -159t134.5 -50q42 0 73 7.5t54 18.5t41.5 23.5t35 23.5t35 18t42.5 7q15 0 29.5 -7.5 t25.5 -19.5l82 -95q-56 -55 -110 -96t-110.5 -67t-120.5 -38t-140 -12q-94 0 -173 32t-136 91t-88 142t-31 184zM361 627q99 15 161 32t95.5 37t45.5 43t12 49q0 27 -20.5 50.5t-65.5 23.5q-79 0 -138.5 -63t-89.5 -172zM468 1196l155 251q19 30 43.5 45.5t68.5 15.5h283 l-277 -269q-24 -24 -44.5 -33.5t-53.5 -9.5h-175z" />
<glyph unicode="&#xea;" horiz-adv-x="1012" d="M30 0zM30 433q0 85 19 166t54 152t86.5 131t115.5 103t140 67t162 24q85 0 151 -24.5t111 -64t69 -88.5t24 -98q0 -73 -29 -133.5t-100 -107t-191.5 -79t-302.5 -51.5q2 -109 47.5 -159t134.5 -50q42 0 73 7.5t54 18.5t41.5 23.5t35 23.5t35 18t42.5 7q15 0 29.5 -7.5 t25.5 -19.5l82 -95q-56 -55 -110 -96t-110.5 -67t-120.5 -38t-140 -12q-94 0 -173 32t-136 91t-88 142t-31 184zM247 1196l254 296h275l186 -296h-193q-17 0 -32.5 5.5t-30.5 23.5l-61 85q-5 6 -10 13t-11 15q-15 -18 -26 -28l-82 -85q-15 -14 -32.5 -21.5t-35.5 -7.5h-201z M361 627q99 15 161 32t95.5 37t45.5 43t12 49q0 27 -20.5 50.5t-65.5 23.5q-79 0 -138.5 -63t-89.5 -172z" />
<glyph unicode="&#xeb;" horiz-adv-x="1012" d="M30 0zM30 433q0 85 19 166t54 152t86.5 131t115.5 103t140 67t162 24q85 0 151 -24.5t111 -64t69 -88.5t24 -98q0 -73 -29 -133.5t-100 -107t-191.5 -79t-302.5 -51.5q2 -109 47.5 -159t134.5 -50q42 0 73 7.5t54 18.5t41.5 23.5t35 23.5t35 18t42.5 7q15 0 29.5 -7.5 t25.5 -19.5l82 -95q-56 -55 -110 -96t-110.5 -67t-120.5 -38t-140 -12q-94 0 -173 32t-136 91t-88 142t-31 184zM255 1326q0 34 13 63.5t35 51.5t51.5 35t61.5 13q35 0 65.5 -13t53.5 -35t36 -51.5t13 -63.5q0 -33 -13 -61.5t-36 -49.5t-53.5 -33.5t-65.5 -12.5 q-33 0 -62 12.5t-51 33.5t-35 49.5t-13 61.5zM361 627q99 15 161 32t95.5 37t45.5 43t12 49q0 27 -20.5 50.5t-65.5 23.5q-79 0 -138.5 -63t-89.5 -172zM670 1326q0 34 13 63.5t35.5 51.5t52 35t63.5 13q35 0 65 -13t52.5 -35t35.5 -51.5t13 -63.5q0 -33 -13 -61.5 t-35.5 -49.5t-52.5 -33.5t-65 -12.5q-34 0 -63.5 12.5t-52 33.5t-35.5 49.5t-13 61.5z" />
<glyph unicode="&#xec;" horiz-adv-x="530" d="M11 0zM12 1508h273q44 0 64 -15.5t32 -45.5l100 -251h-166q-33 0 -52 9.5t-37 33.5zM33 0l127 1062h313l-127 -1062h-313z" />
<glyph unicode="&#xed;" horiz-adv-x="530" d="M33 0l127 1062h313l-127 -1062h-313zM33 0zM174 1196l155 251q19 30 43.5 45.5t68.5 15.5h283l-277 -269q-24 -24 -44.5 -33.5t-53.5 -9.5h-175z" />
<glyph unicode="&#xee;" horiz-adv-x="530" d="M-22 1196l254 296h275l186 -296h-193q-17 0 -32.5 5.5t-30.5 23.5l-61 85q-5 6 -10 13t-11 15q-15 -18 -26 -28l-82 -85q-15 -14 -32.5 -21.5t-35.5 -7.5h-201zM0 0zM33 0l127 1062h313l-127 -1062h-313z" />
<glyph unicode="&#xef;" horiz-adv-x="530" d="M14 0zM14 1326q0 34 13.5 63.5t35.5 51.5t51 35t62 13q35 0 65 -13t53.5 -35t36.5 -51.5t13 -63.5q0 -33 -13 -61.5t-36.5 -49.5t-53.5 -33.5t-65 -12.5q-33 0 -62 12.5t-51 33.5t-35.5 49.5t-13.5 61.5zM33 0l127 1062h313l-127 -1062h-313zM369 1326q0 34 12.5 63.5 t35 51.5t52.5 35t64 13q35 0 65 -13t52.5 -35t35 -51.5t12.5 -63.5q0 -33 -12.5 -61.5t-35 -49.5t-53 -33.5t-64.5 -12.5t-64 12.5t-52.5 33.5t-35 49.5t-12.5 61.5z" />
<glyph unicode="&#xf0;" horiz-adv-x="1099" d="M25 421q0 109 38 206.5t106 170.5t159.5 116t197.5 43q93 0 161.5 -33t115.5 -97q-5 90 -33.5 161t-87.5 127l-227 -132l-58 99q-13 23 -6 43t25 31l106 62q-27 12 -55.5 22.5t-59.5 22.5q-51 16 -59.5 46.5t12.5 73.5l48 95q102 -17 192.5 -52.5t167.5 -91.5l196 110 l51 -97q11 -20 8 -43t-32 -38l-93 -55q71 -88 110 -203.5t39 -262.5q0 -178 -41 -319t-118 -239.5t-187.5 -150.5t-249.5 -52q-94 0 -172.5 30t-135 86.5t-87.5 137.5t-31 183zM328 434q0 -109 44 -166.5t115 -57.5q40 0 79.5 17.5t74 59.5t61.5 112.5t42 178.5 q-10 33 -24.5 61t-37.5 49t-52.5 32.5t-68.5 11.5q-54 0 -97 -23t-73.5 -63t-46.5 -94t-16 -118z" />
<glyph unicode="&#xf1;" horiz-adv-x="1129" d="M25 0l127 1062h163q49 0 77 -23t28 -75v-85q77 102 168 150.5t188 48.5q66 0 120.5 -26.5t91 -77.5t52 -126.5t2.5 -172.5l-79 -675h-318l80 675q5 43 3.5 72.5t-10.5 47t-25.5 25t-39.5 7.5q-35 0 -72.5 -21.5t-72 -60t-63 -94.5t-45.5 -124l-58 -527h-317zM25 0z M307 1214q7 65 30.5 116.5t57 88.5t75.5 57t87 20q35 0 64 -11.5t53.5 -26t44 -26.5t35.5 -12q23 0 38 13t20 55h177q-8 -65 -30.5 -116.5t-55.5 -88t-75 -56t-88 -19.5q-35 0 -64 12t-53.5 26.5t-44 26t-35.5 11.5q-24 0 -37.5 -14t-18.5 -56h-180z" />
<glyph unicode="&#xf2;" horiz-adv-x="1080" d="M31 0zM31 432q0 141 46.5 259.5t125.5 204.5t182.5 134t218.5 48q89 0 166 -29.5t134 -86.5t89.5 -140.5t32.5 -191.5q0 -139 -46.5 -257.5t-125.5 -205t-182.5 -135t-218.5 -48.5q-89 0 -166.5 29.5t-134.5 86.5t-89 140.5t-32 191.5zM306 1508h273q44 0 64 -15.5 t32 -45.5l100 -251h-166q-33 0 -52 9.5t-37 33.5zM348 434q0 -114 31 -164.5t102 -50.5q53 0 95 32.5t71.5 88t45.5 130t16 158.5q0 116 -31.5 165.5t-102.5 49.5q-53 0 -95 -32.5t-71 -87.5t-45 -130t-16 -159z" />
<glyph unicode="&#xf3;" horiz-adv-x="1080" d="M31 0zM31 432q0 141 46.5 259.5t125.5 204.5t182.5 134t218.5 48q89 0 166 -29.5t134 -86.5t89.5 -140.5t32.5 -191.5q0 -139 -46.5 -257.5t-125.5 -205t-182.5 -135t-218.5 -48.5q-89 0 -166.5 29.5t-134.5 86.5t-89 140.5t-32 191.5zM348 434q0 -114 31 -164.5 t102 -50.5q53 0 95 32.5t71.5 88t45.5 130t16 158.5q0 116 -31.5 165.5t-102.5 49.5q-53 0 -95 -32.5t-71 -87.5t-45 -130t-16 -159zM476 1196l155 251q19 30 43.5 45.5t68.5 15.5h283l-277 -269q-24 -24 -44.5 -33.5t-53.5 -9.5h-175z" />
<glyph unicode="&#xf4;" horiz-adv-x="1080" d="M31 0zM31 432q0 141 46.5 259.5t125.5 204.5t182.5 134t218.5 48q89 0 166 -29.5t134 -86.5t89.5 -140.5t32.5 -191.5q0 -139 -46.5 -257.5t-125.5 -205t-182.5 -135t-218.5 -48.5q-89 0 -166.5 29.5t-134.5 86.5t-89 140.5t-32 191.5zM270 1196l254 296h275l186 -296 h-193q-17 0 -32.5 5.5t-30.5 23.5l-61 85q-5 6 -10 13t-11 15q-15 -18 -26 -28l-82 -85q-15 -14 -32.5 -21.5t-35.5 -7.5h-201zM348 434q0 -114 31 -164.5t102 -50.5q53 0 95 32.5t71.5 88t45.5 130t16 158.5q0 116 -31.5 165.5t-102.5 49.5q-53 0 -95 -32.5t-71 -87.5 t-45 -130t-16 -159z" />
<glyph unicode="&#xf5;" horiz-adv-x="1080" d="M31 0zM31 432q0 141 46.5 259.5t125.5 204.5t182.5 134t218.5 48q89 0 166 -29.5t134 -86.5t89.5 -140.5t32.5 -191.5q0 -139 -46.5 -257.5t-125.5 -205t-182.5 -135t-218.5 -48.5q-89 0 -166.5 29.5t-134.5 86.5t-89 140.5t-32 191.5zM306 1214q7 65 30.5 116.5t57 88.5 t75.5 57t87 20q35 0 64 -11.5t53.5 -26t44 -26.5t35.5 -12q23 0 38 13t20 55h177q-8 -65 -30.5 -116.5t-55.5 -88t-75 -56t-88 -19.5q-35 0 -64 12t-53.5 26.5t-44 26t-35.5 11.5q-24 0 -37.5 -14t-18.5 -56h-180zM348 434q0 -114 31 -164.5t102 -50.5q53 0 95 32.5t71.5 88 t45.5 130t16 158.5q0 116 -31.5 165.5t-102.5 49.5q-53 0 -95 -32.5t-71 -87.5t-45 -130t-16 -159z" />
<glyph unicode="&#xf6;" horiz-adv-x="1080" d="M31 0zM31 432q0 141 46.5 259.5t125.5 204.5t182.5 134t218.5 48q89 0 166 -29.5t134 -86.5t89.5 -140.5t32.5 -191.5q0 -139 -46.5 -257.5t-125.5 -205t-182.5 -135t-218.5 -48.5q-89 0 -166.5 29.5t-134.5 86.5t-89 140.5t-32 191.5zM268 1326q0 34 13 63.5t35 51.5 t51.5 35t61.5 13q35 0 65.5 -13t53.5 -35t36 -51.5t13 -63.5q0 -33 -13 -61.5t-36 -49.5t-53.5 -33.5t-65.5 -12.5q-33 0 -62 12.5t-51 33.5t-35 49.5t-13 61.5zM348 434q0 -114 31 -164.5t102 -50.5q53 0 95 32.5t71.5 88t45.5 130t16 158.5q0 116 -31.5 165.5t-102.5 49.5 q-53 0 -95 -32.5t-71 -87.5t-45 -130t-16 -159zM683 1326q0 34 13 63.5t35.5 51.5t52 35t63.5 13q35 0 65 -13t52.5 -35t35.5 -51.5t13 -63.5q0 -33 -13 -61.5t-35.5 -49.5t-52.5 -33.5t-65 -12.5q-34 0 -63.5 12.5t-52 33.5t-35.5 49.5t-13 61.5z" />
<glyph unicode="&#xf7;" d="M80 579l29 219h1011l-28 -219h-1012zM377 303q0 40 16 75t43 61t63 41t76 15q34 0 63 -12t49.5 -33t32 -49t11.5 -60q0 -40 -16.5 -75t-44 -60t-63.5 -39t-75 -14q-35 0 -63.5 11.5t-49 31.5t-31.5 47.5t-11 59.5zM467 1032q0 40 16 75t43 61t63 41t77 15q34 0 62.5 -12 t49 -33t32 -49t11.5 -60q0 -40 -16.5 -74.5t-44 -60t-63 -39.5t-74.5 -14q-35 0 -64 11.5t-49.5 31.5t-31.5 47.5t-11 59.5z" />
<glyph unicode="&#xf8;" horiz-adv-x="1078" d="M-38 -44l144 197q-37 54 -56.5 123.5t-19.5 155.5q0 141 46.5 259.5t125.5 204.5t182.5 134t218.5 48q108 0 199 -44q15 20 28.5 34.5t28.5 24t34 13.5t46 4h156l-148 -201q37 -54 57.5 -123.5t20.5 -155.5q0 -139 -46.5 -257.5t-125.5 -205t-182.5 -135t-218.5 -48.5 q-110 0 -200 44q-37 -39 -83.5 -55.5t-91.5 -16.5h-115zM327 417l308 432q-29 13 -61 13q-53 0 -98 -29.5t-78 -85t-52 -134.5t-19 -179v-17zM417 214q28 -14 63 -14q53 0 98.5 30t78.5 85.5t52 134.5t19 178q0 5 -0.5 9t-0.5 9z" />
<glyph unicode="&#xf9;" horiz-adv-x="1128" d="M50 0zM62 388l80 674h318l-80 -674q-5 -43 -3.5 -72.5t10.5 -47.5t25 -26t40 -8q32 0 67 19t68 53.5t61 83.5t46 110l69 562h317l-129 -1062h-161q-113 0 -113 104v68q-77 -96 -165 -142t-183 -46q-67 0 -121 26.5t-90.5 78t-52 127t-3.5 172.5zM300 1508h273 q44 0 64 -15.5t32 -45.5l100 -251h-166q-33 0 -52 9.5t-37 33.5z" />
<glyph unicode="&#xfa;" horiz-adv-x="1128" d="M50 0zM62 388l80 674h318l-80 -674q-5 -43 -3.5 -72.5t10.5 -47.5t25 -26t40 -8q32 0 67 19t68 53.5t61 83.5t46 110l69 562h317l-129 -1062h-161q-113 0 -113 104v68q-77 -96 -165 -142t-183 -46q-67 0 -121 26.5t-90.5 78t-52 127t-3.5 172.5zM515 1196l155 251 q19 30 43.5 45.5t68.5 15.5h283l-277 -269q-24 -24 -44.5 -33.5t-53.5 -9.5h-175z" />
<glyph unicode="&#xfb;" horiz-adv-x="1128" d="M50 0zM62 388l80 674h318l-80 -674q-5 -43 -3.5 -72.5t10.5 -47.5t25 -26t40 -8q32 0 67 19t68 53.5t61 83.5t46 110l69 562h317l-129 -1062h-161q-113 0 -113 104v68q-77 -96 -165 -142t-183 -46q-67 0 -121 26.5t-90.5 78t-52 127t-3.5 172.5zM285 1196l254 296h275 l186 -296h-193q-17 0 -32.5 5.5t-30.5 23.5l-61 85q-5 6 -10 13t-11 15q-15 -18 -26 -28l-82 -85q-15 -14 -32.5 -21.5t-35.5 -7.5h-201z" />
<glyph unicode="&#xfc;" horiz-adv-x="1128" d="M50 0zM62 388l80 674h318l-80 -674q-5 -43 -3.5 -72.5t10.5 -47.5t25 -26t40 -8q32 0 67 19t68 53.5t61 83.5t46 110l69 562h317l-129 -1062h-161q-113 0 -113 104v68q-77 -96 -165 -142t-183 -46q-67 0 -121 26.5t-90.5 78t-52 127t-3.5 172.5zM271 1326q0 34 13 63.5 t35 51.5t51.5 35t61.5 13q35 0 65.5 -13t53.5 -35t36 -51.5t13 -63.5q0 -33 -13 -61.5t-36 -49.5t-53.5 -33.5t-65.5 -12.5q-33 0 -62 12.5t-51 33.5t-35 49.5t-13 61.5zM686 1326q0 34 13 63.5t35.5 51.5t52 35t63.5 13q35 0 65 -13t52.5 -35t35.5 -51.5t13 -63.5 q0 -33 -13 -61.5t-35.5 -49.5t-52.5 -33.5t-65 -12.5q-34 0 -63.5 12.5t-52 33.5t-35.5 49.5t-13 61.5z" />
<glyph unicode="&#xfd;" horiz-adv-x="1030" d="M49 0zM49 1062h268q34 0 51 -16.5t23 -38.5l92 -458q6 -30 11.5 -59t8.5 -59q12 30 26 60l28 60l197 456q12 24 35.5 39.5t48.5 15.5h256l-688 -1338q-33 -60 -99 -61h-237l242 432zM451 1196l155 251q19 30 43.5 45.5t68.5 15.5h283l-277 -269q-24 -24 -44.5 -33.5 t-53.5 -9.5h-175z" />
<glyph unicode="&#xfe;" horiz-adv-x="1123" d="M-17 -337l227 1870h313l-79 -636q70 84 153 132.5t176 48.5q66 0 120 -23t93.5 -72t61.5 -125.5t22 -181.5q0 -139 -42.5 -264.5t-114 -221t-165.5 -151t-196 -55.5q-67 0 -119 21.5t-92 56.5l-37 -299q-2 -19 -11.5 -37t-25.5 -31.5t-38 -22.5t-48 -9h-198zM366 261 q30 -24 66 -34t69 -10q55 0 101.5 37t80.5 97t53 136.5t19 156.5q0 101 -30 147.5t-79 46.5q-33 0 -68.5 -25.5t-69 -69t-62.5 -101.5t-49 -125z" />
<glyph unicode="&#xff;" horiz-adv-x="1030" d="M49 0zM49 1062h268q34 0 51 -16.5t23 -38.5l92 -458q6 -30 11.5 -59t8.5 -59q12 30 26 60l28 60l197 456q12 24 35.5 39.5t48.5 15.5h256l-688 -1338q-33 -60 -99 -61h-237l242 432zM236 1326q0 34 13 63.5t35 51.5t51.5 35t61.5 13q35 0 65.5 -13t53.5 -35t36 -51.5 t13 -63.5q0 -33 -13 -61.5t-36 -49.5t-53.5 -33.5t-65.5 -12.5q-33 0 -62 12.5t-51 33.5t-35 49.5t-13 61.5zM651 1326q0 34 13 63.5t35.5 51.5t52 35t63.5 13q35 0 65 -13t52.5 -35t35.5 -51.5t13 -63.5q0 -33 -13 -61.5t-35.5 -49.5t-52.5 -33.5t-65 -12.5 q-34 0 -63.5 12.5t-52 33.5t-35.5 49.5t-13 61.5z" />
<glyph unicode="&#x100;" horiz-adv-x="1366" d="M-95 0l712 1492h342l347 -1492h-258q-43 0 -67.5 20t-33.5 53l-46 268h-507l-110 -268q-14 -28 -45.5 -50.5t-71.5 -22.5h-262zM0 0zM487 568h375l-72 426q-8 40 -18 94.5t-19 117.5q-25 -63 -49 -118t-41 -96zM493 1593l21 174h603l-21 -174h-603z" />
<glyph unicode="&#x101;" horiz-adv-x="1086" d="M22 0zM22 366q0 144 52.5 273.5t147 227t225 154.5t285.5 57q76 0 154 -10t153 -37l-129 -1031h-170q-30 0 -49.5 7.5t-31.5 21t-16.5 32t-4.5 39.5v76q-66 -90 -145.5 -141t-176.5 -51q-57 0 -110 23t-94 69.5t-65.5 118.5t-24.5 171zM339 422q0 -51 8 -87t22 -58 t32.5 -32.5t41.5 -10.5q35 0 68 26.5t62 71.5t53.5 105.5t42.5 128.5l37 294h-19q-78 0 -142 -34.5t-110 -94.5t-71 -139.5t-25 -169.5zM442 1230l23 194h584l-23 -194h-584z" />
<glyph unicode="&#x102;" horiz-adv-x="1366" d="M-95 0l712 1492h342l347 -1492h-258q-43 0 -67.5 20t-33.5 53l-46 268h-507l-110 -268q-14 -28 -45.5 -50.5t-71.5 -22.5h-262zM0 0zM487 568h375l-72 426q-8 40 -18 94.5t-19 117.5q-25 -63 -49 -118t-41 -96zM498 1872h222q-5 -50 16.5 -78t87.5 -28t93 28t32 78h223 q-7 -67 -38 -120t-80 -90.5t-113.5 -57.5t-138.5 -20t-134 17t-100.5 52.5t-59 89.5t-10.5 129z" />
<glyph unicode="&#x103;" horiz-adv-x="1086" d="M22 0zM22 366q0 144 52.5 273.5t147 227t225 154.5t285.5 57q76 0 154 -10t153 -37l-129 -1031h-170q-30 0 -49.5 7.5t-31.5 21t-16.5 32t-4.5 39.5v76q-66 -90 -145.5 -141t-176.5 -51q-57 0 -110 23t-94 69.5t-65.5 118.5t-24.5 171zM339 422q0 -51 8 -87t22 -58 t32.5 -32.5t41.5 -10.5q35 0 68 26.5t62 71.5t53.5 105.5t42.5 128.5l37 294h-19q-78 0 -142 -34.5t-110 -94.5t-71 -139.5t-25 -169.5zM468 1492h203q-3 -28 -1.5 -49.5t12 -35t30.5 -21t53 -7.5q32 0 53 7.5t34 21t20 35t10 49.5h203q-7 -62 -28 -117.5t-62 -97t-103 -66 t-150 -24.5t-145 24.5t-87.5 66t-40 97t-1.5 117.5z" />
<glyph unicode="&#x104;" horiz-adv-x="1366" d="M-95 0l712 1492h342l347 -1492h-33q-43 -24 -71 -57.5t-28 -76.5q0 -20 8.5 -32.5t28.5 -12.5q12 0 20 1t12.5 2.5t8.5 3t9 1.5q23 0 25 -19l33 -114q-36 -22 -88 -36.5t-110 -14.5q-97 0 -145 38.5t-48 98.5q0 56 36 112t125 106h-41q-43 0 -67.5 20t-33.5 53l-46 268 h-507l-110 -268q-14 -28 -45.5 -50.5t-71.5 -22.5h-262zM487 568h375l-72 426q-8 40 -18 94.5t-19 117.5q-25 -63 -49 -118t-41 -96z" />
<glyph unicode="&#x105;" horiz-adv-x="1087" d="M23 366q0 144 52.5 273.5t147 227t225 154.5t285.5 57q76 0 154 -10t153 -37l-129 -1031h-38q-43 -24 -71 -57.5t-28 -76.5q0 -20 9 -32.5t29 -12.5q12 0 20 1t12.5 2.5t8 3t8.5 1.5q23 0 26 -19l33 -114q-36 -22 -88.5 -36.5t-109.5 -14.5q-97 0 -145.5 38.5t-48.5 98.5 q0 57 39 114.5t131 108.5q-34 10 -46.5 35.5t-12.5 59.5v76q-66 -90 -145.5 -141t-176.5 -51q-57 0 -110 23t-94 69.5t-65.5 118.5t-24.5 171zM340 422q0 -51 8 -87t22 -58t32.5 -32.5t41.5 -10.5q35 0 68 26.5t62 71.5t53.5 105.5t42.5 128.5l37 294h-19q-78 0 -142 -34.5 t-110 -94.5t-71 -139.5t-25 -169.5z" />
<glyph unicode="&#x106;" horiz-adv-x="1263" d="M67 0zM67 634q0 128 28.5 242.5t80.5 212t125.5 175t162.5 132t191.5 83.5t213.5 29q84 0 153.5 -15.5t125 -44t99.5 -67.5t77 -86l-117 -135q-12 -14 -28.5 -25.5t-42.5 -11.5q-17 0 -31.5 8.5t-29.5 20t-33.5 26t-44 26t-61 20t-83.5 8.5q-94 0 -175.5 -40t-141.5 -114 t-93.5 -180t-33.5 -238q0 -95 23 -169.5t63 -126.5t95 -79t120 -27q56 0 97.5 8.5t71 22t50 29.5t37 29t31 22t30.5 9t27 -5.5t16 -13.5l117 -140q-97 -116 -231 -175.5t-304 -59.5q-141 0 -250 49.5t-184 136.5t-113 206.5t-38 257.5zM690 1588l209 277q13 16 25.5 26 t26 14.5t29.5 5.5t38 1h321l-336 -292q-13 -11 -24 -17.5t-23 -9.5t-24.5 -4t-29.5 -1h-212z" />
<glyph unicode="&#x107;" horiz-adv-x="926" d="M31 0zM31 433q0 130 42.5 247t118.5 205t180.5 139.5t229.5 51.5q106 0 182.5 -36t137.5 -114l-103 -118q-11 -11 -25.5 -20t-31.5 -9q-20 0 -34 9t-30.5 18.5t-40 18.5t-61.5 9q-47 0 -91.5 -27.5t-79.5 -78.5t-56 -126t-21 -170q0 -53 12.5 -92.5t34 -65.5t50 -39.5 t61.5 -13.5q49 0 79 14t52.5 30.5t42 30t47.5 13.5q15 0 29.5 -7.5t25.5 -18.5l82 -97q-51 -56 -98 -95t-97.5 -62.5t-107 -34t-125.5 -10.5q-93 0 -167.5 31.5t-127.5 90t-81.5 141.5t-28.5 186zM462 1196l155 251q19 30 43.5 45.5t68.5 15.5h283l-277 -269 q-24 -24 -44.5 -33.5t-53.5 -9.5h-175z" />
<glyph unicode="&#x108;" horiz-adv-x="1263" d="M67 0zM67 634q0 128 28.5 242.5t80.5 212t125.5 175t162.5 132t191.5 83.5t213.5 29q84 0 153.5 -15.5t125 -44t99.5 -67.5t77 -86l-117 -135q-12 -14 -28.5 -25.5t-42.5 -11.5q-17 0 -31.5 8.5t-29.5 20t-33.5 26t-44 26t-61 20t-83.5 8.5q-94 0 -175.5 -40t-141.5 -114 t-93.5 -180t-33.5 -238q0 -95 23 -169.5t63 -126.5t95 -79t120 -27q56 0 97.5 8.5t71 22t50 29.5t37 29t31 22t30.5 9t27 -5.5t16 -13.5l117 -140q-97 -116 -231 -175.5t-304 -59.5q-141 0 -250 49.5t-184 136.5t-113 206.5t-38 257.5zM504 1588l262 285h265l199 -285h-211 q-9 0 -19.5 1t-22.5 5.5t-23.5 14t-21.5 26.5l-39 80l-15 26l-19 -26l-55 -80q-31 -34 -56 -40.5t-43 -6.5h-201z" />
<glyph unicode="&#x109;" horiz-adv-x="926" d="M31 0zM31 433q0 130 42.5 247t118.5 205t180.5 139.5t229.5 51.5q106 0 182.5 -36t137.5 -114l-103 -118q-11 -11 -25.5 -20t-31.5 -9q-20 0 -34 9t-30.5 18.5t-40 18.5t-61.5 9q-47 0 -91.5 -27.5t-79.5 -78.5t-56 -126t-21 -170q0 -53 12.5 -92.5t34 -65.5t50 -39.5 t61.5 -13.5q49 0 79 14t52.5 30.5t42 30t47.5 13.5q15 0 29.5 -7.5t25.5 -18.5l82 -97q-51 -56 -98 -95t-97.5 -62.5t-107 -34t-125.5 -10.5q-93 0 -167.5 31.5t-127.5 90t-81.5 141.5t-28.5 186zM255 1196l254 296h275l186 -296h-193q-17 0 -32.5 5.5t-30.5 23.5l-61 85 q-5 6 -10 13t-11 15q-15 -18 -26 -28l-82 -85q-15 -14 -32.5 -21.5t-35.5 -7.5h-201z" />
<glyph unicode="&#x10a;" horiz-adv-x="1263" d="M67 0zM67 634q0 128 28.5 242.5t80.5 212t125.5 175t162.5 132t191.5 83.5t213.5 29q84 0 153.5 -15.5t125 -44t99.5 -67.5t77 -86l-117 -135q-12 -14 -28.5 -25.5t-42.5 -11.5q-17 0 -31.5 8.5t-29.5 20t-33.5 26t-44 26t-61 20t-83.5 8.5q-94 0 -175.5 -40t-141.5 -114 t-93.5 -180t-33.5 -238q0 -95 23 -169.5t63 -126.5t95 -79t120 -27q56 0 97.5 8.5t71 22t50 29.5t37 29t31 22t30.5 9t27 -5.5t16 -13.5l117 -140q-97 -116 -231 -175.5t-304 -59.5q-141 0 -250 49.5t-184 136.5t-113 206.5t-38 257.5zM731 1740q0 38 15.5 71.5t41.5 59 t59 40.5t68 15q37 0 71 -15t60 -40t42 -59t16 -72t-16.5 -72t-43 -59t-61 -39t-70.5 -14t-68.5 14t-57.5 39t-40.5 59t-15.5 72z" />
<glyph unicode="&#x10b;" horiz-adv-x="926" d="M31 0zM31 433q0 130 42.5 247t118.5 205t180.5 139.5t229.5 51.5q106 0 182.5 -36t137.5 -114l-103 -118q-11 -11 -25.5 -20t-31.5 -9q-20 0 -34 9t-30.5 18.5t-40 18.5t-61.5 9q-47 0 -91.5 -27.5t-79.5 -78.5t-56 -126t-21 -170q0 -53 12.5 -92.5t34 -65.5t50 -39.5 t61.5 -13.5q49 0 79 14t52.5 30.5t42 30t47.5 13.5q15 0 29.5 -7.5t25.5 -18.5l82 -97q-51 -56 -98 -95t-97.5 -62.5t-107 -34t-125.5 -10.5q-93 0 -167.5 31.5t-127.5 90t-81.5 141.5t-28.5 186zM438 1353q0 38 15.5 71.5t41.5 59t59 40.5t68 15q37 0 71 -14.5t60 -40 t42 -59t16 -72.5q0 -38 -16.5 -71.5t-43 -58.5t-61 -40t-70.5 -15t-68.5 15t-57.5 40t-40.5 58.5t-15.5 71.5z" />
<glyph unicode="&#x10c;" horiz-adv-x="1263" d="M67 0zM67 634q0 128 28.5 242.5t80.5 212t125.5 175t162.5 132t191.5 83.5t213.5 29q84 0 153.5 -15.5t125 -44t99.5 -67.5t77 -86l-117 -135q-12 -14 -28.5 -25.5t-42.5 -11.5q-17 0 -31.5 8.5t-29.5 20t-33.5 26t-44 26t-61 20t-83.5 8.5q-94 0 -175.5 -40t-141.5 -114 t-93.5 -180t-33.5 -238q0 -95 23 -169.5t63 -126.5t95 -79t120 -27q56 0 97.5 8.5t71 22t50 29.5t37 29t31 22t30.5 9t27 -5.5t16 -13.5l117 -140q-97 -116 -231 -175.5t-304 -59.5q-141 0 -250 49.5t-184 136.5t-113 206.5t-38 257.5zM547 1873h211q17 0 41 -4.5t40 -31.5 l46 -91l13 -27l21 27l63 90q10 13 22.5 21t24.5 11.5t23 4t19 0.5h211l-262 -285h-275z" />
<glyph unicode="&#x10d;" horiz-adv-x="926" d="M31 0zM31 433q0 130 42.5 247t118.5 205t180.5 139.5t229.5 51.5q106 0 182.5 -36t137.5 -114l-103 -118q-11 -11 -25.5 -20t-31.5 -9q-20 0 -34 9t-30.5 18.5t-40 18.5t-61.5 9q-47 0 -91.5 -27.5t-79.5 -78.5t-56 -126t-21 -170q0 -53 12.5 -92.5t34 -65.5t50 -39.5 t61.5 -13.5q49 0 79 14t52.5 30.5t42 30t47.5 13.5q15 0 29.5 -7.5t25.5 -18.5l82 -97q-51 -56 -98 -95t-97.5 -62.5t-107 -34t-125.5 -10.5q-93 0 -167.5 31.5t-127.5 90t-81.5 141.5t-28.5 186zM267 1492h202q17 0 31.5 -5.5t21.5 -13.5l70 -94q5 -7 10.5 -14.5 t11.5 -15.5q13 16 27 30l89 94q9 6 25.5 12.5t34.5 6.5h193l-254 -296h-275z" />
<glyph unicode="&#x10e;" horiz-adv-x="1452" d="M58 0l185 1492h536q146 0 263.5 -49.5t199.5 -136.5t126 -206t44 -258q0 -122 -27.5 -231t-79 -203t-124.5 -169t-163.5 -128.5t-197.5 -82t-225 -28.5h-537zM58 0zM427 257h201q102 0 184 40.5t139.5 115t88 181.5t30.5 240q0 91 -21 165t-62.5 126.5t-102 81 t-138.5 28.5h-200zM430 1873h211q17 0 41 -4.5t40 -31.5l46 -91l13 -27l21 27l63 90q10 13 22.5 21t24.5 11.5t23 4t19 0.5h211l-262 -285h-275z" />
<glyph unicode="&#x10f;" horiz-adv-x="1125" d="M29 387q0 92 19.5 179.5t54 164.5t82.5 141t106 109.5t122.5 71t133.5 25.5q66 0 118.5 -22t92.5 -58l67 535h312l-191 -1533h-170q-30 0 -49.5 7.5t-31.5 21t-16.5 32t-4.5 39.5v89q-73 -96 -161 -150.5t-187 -54.5q-66 0 -120 23t-93.5 72t-61.5 125.5t-22 182.5z M344 418q0 -101 30 -147t79 -46q33 0 68 24.5t68.5 67.5t62 101t48.5 125l33 258q-30 24 -66 34t-69 10q-55 0 -101.5 -37t-80.5 -97t-53 -136.5t-19 -156.5zM1108 1166l109 367h176q28 0 35.5 -11.5t7.5 -22.5q0 -9 -3 -22t-17 -41.5t-41.5 -80t-78.5 -137.5 q-20 -34 -45.5 -43t-64.5 -9h-78z" />
<glyph unicode="&#x110;" horiz-adv-x="1468" d="M3 656l25 183h151l80 653h537q147 0 264.5 -49.5t199 -136.5t125 -206t43.5 -258q0 -122 -27.5 -231t-78.5 -203t-124.5 -169t-164 -128.5t-196.5 -82t-224 -28.5h-536l80 656h-154zM445 257h201q102 0 183.5 40.5t138.5 115t87.5 181.5t30.5 240q0 91 -21 165t-62 126.5 t-101.5 81t-138.5 28.5h-201l-47 -396h320l-23 -183h-319z" />
<glyph unicode="&#x111;" horiz-adv-x="1124" d="M29 387q0 139 42.5 258.5t114 207.5t165 138t196.5 50q65 0 116.5 -20.5t90.5 -54.5l23 185h-95q-61 0 -84.5 24t-13.5 80l12 79h204l25 199h312l-25 -199h123l-23 -183h-123l-143 -1151h-170q-30 0 -49.5 7.5t-31.5 21t-16.5 32t-4.5 39.5v89q-73 -96 -161 -150.5 t-187 -54.5q-66 0 -120 23t-93.5 72t-61.5 125.5t-22 182.5zM344 418q0 -101 30 -147t79 -46q33 0 68 24.5t68.5 67.5t62 101t48.5 125l29 224q-30 23 -64.5 32t-66.5 9q-55 0 -101.5 -31t-80.5 -84t-53 -124t-19 -151z" />
<glyph unicode="&#x112;" horiz-adv-x="1096" d="M58 0l185 1492h889l-33 -257h-552l-45 -361h423l-33 -247h-421l-45 -370h556l-33 -257h-891zM58 0zM415 1593l21 174h603l-21 -174h-603z" />
<glyph unicode="&#x113;" horiz-adv-x="1012" d="M30 0zM30 433q0 85 19 166t54 152t86.5 131t115.5 103t140 67t162 24q85 0 151 -24.5t111 -64t69 -88.5t24 -98q0 -73 -29 -133.5t-100 -107t-191.5 -79t-302.5 -51.5q2 -109 47.5 -159t134.5 -50q42 0 73 7.5t54 18.5t41.5 23.5t35 23.5t35 18t42.5 7q15 0 29.5 -7.5 t25.5 -19.5l82 -95q-56 -55 -110 -96t-110.5 -67t-120.5 -38t-140 -12q-94 0 -173 32t-136 91t-88 142t-31 184zM319 1230l23 194h584l-23 -194h-584zM361 627q99 15 161 32t95.5 37t45.5 43t12 49q0 27 -20.5 50.5t-65.5 23.5q-79 0 -138.5 -63t-89.5 -172z" />
<glyph unicode="&#x114;" horiz-adv-x="1096" d="M58 0l185 1492h889l-33 -257h-552l-45 -361h423l-33 -247h-421l-45 -370h556l-33 -257h-891zM58 0zM412 1872h222q-5 -50 16.5 -78t87.5 -28t93 28t32 78h223q-7 -67 -38 -120t-80 -90.5t-113.5 -57.5t-138.5 -20t-134 17t-100.5 52.5t-59 89.5t-10.5 129z" />
<glyph unicode="&#x115;" horiz-adv-x="1012" d="M30 0zM30 433q0 85 19 166t54 152t86.5 131t115.5 103t140 67t162 24q85 0 151 -24.5t111 -64t69 -88.5t24 -98q0 -73 -29 -133.5t-100 -107t-191.5 -79t-302.5 -51.5q2 -109 47.5 -159t134.5 -50q42 0 73 7.5t54 18.5t41.5 23.5t35 23.5t35 18t42.5 7q15 0 29.5 -7.5 t25.5 -19.5l82 -95q-56 -55 -110 -96t-110.5 -67t-120.5 -38t-140 -12q-94 0 -173 32t-136 91t-88 142t-31 184zM323 1492h203q-3 -28 -1.5 -49.5t12 -35t30.5 -21t53 -7.5q32 0 53 7.5t34 21t20 35t10 49.5h203q-7 -62 -28 -117.5t-62 -97t-103 -66t-150 -24.5t-145 24.5 t-87.5 66t-40 97t-1.5 117.5zM361 627q99 15 161 32t95.5 37t45.5 43t12 49q0 27 -20.5 50.5t-65.5 23.5q-79 0 -138.5 -63t-89.5 -172z" />
<glyph unicode="&#x116;" horiz-adv-x="1096" d="M58 0l185 1492h889l-33 -257h-552l-45 -361h423l-33 -247h-421l-45 -370h556l-33 -257h-891zM58 0zM539 1740q0 38 15.5 71.5t41.5 59t59 40.5t68 15q37 0 71 -15t60 -40t42 -59t16 -72t-16.5 -72t-43 -59t-61 -39t-70.5 -14t-68.5 14t-57.5 39t-40.5 59t-15.5 72z" />
<glyph unicode="&#x117;" horiz-adv-x="1012" d="M30 0zM30 433q0 85 19 166t54 152t86.5 131t115.5 103t140 67t162 24q85 0 151 -24.5t111 -64t69 -88.5t24 -98q0 -73 -29 -133.5t-100 -107t-191.5 -79t-302.5 -51.5q2 -109 47.5 -159t134.5 -50q42 0 73 7.5t54 18.5t41.5 23.5t35 23.5t35 18t42.5 7q15 0 29.5 -7.5 t25.5 -19.5l82 -95q-56 -55 -110 -96t-110.5 -67t-120.5 -38t-140 -12q-94 0 -173 32t-136 91t-88 142t-31 184zM361 627q99 15 161 32t95.5 37t45.5 43t12 49q0 27 -20.5 50.5t-65.5 23.5q-79 0 -138.5 -63t-89.5 -172zM442 1353q0 38 15.5 71.5t41.5 59t59 40.5t68 15 q37 0 71 -14.5t60 -40t42 -59t16 -72.5q0 -38 -16.5 -71.5t-43 -58.5t-61 -40t-70.5 -15t-68.5 15t-57.5 40t-40.5 58.5t-15.5 71.5z" />
<glyph unicode="&#x118;" horiz-adv-x="1096" d="M58 0l185 1492h889l-33 -257h-552l-45 -361h423l-33 -247h-421l-45 -370h556l-33 -257h-38q-43 -24 -71 -57.5t-28 -76.5q0 -20 8.5 -32.5t29.5 -12.5q12 0 20 1t12.5 2.5t8 3t8.5 1.5q23 0 26 -19l32 -114q-36 -22 -88 -36.5t-109 -14.5q-97 0 -145.5 38.5t-48.5 98.5 q0 56 36.5 112t124.5 106h-669z" />
<glyph unicode="&#x119;" horiz-adv-x="1012" d="M30 433q0 85 19 166t54 152t86.5 131t115.5 103t140 67t162 24q85 0 151 -24.5t111 -64t69 -88.5t24 -98q0 -73 -29 -133.5t-100 -107t-191.5 -79t-302.5 -51.5q2 -109 47.5 -159t134.5 -50q42 0 73 7.5t54 18.5t41.5 23.5t35 23.5t35 18t42.5 7q15 0 29.5 -7.5 t25.5 -19.5l82 -95q-81 -79 -157 -128t-167 -69q-43 -24 -71 -57.5t-28 -76.5q0 -20 9 -32.5t29 -12.5q12 0 20 1t12.5 2.5t8 3t8.5 1.5q23 0 26 -19l33 -114q-36 -22 -88.5 -36.5t-109.5 -14.5q-97 0 -145.5 38.5t-48.5 98.5q0 52 32 104.5t107 100.5q-85 8 -155 43.5 t-119.5 93t-77 136t-27.5 173.5zM361 627q99 15 161 32t95.5 37t45.5 43t12 49q0 27 -20.5 50.5t-65.5 23.5q-79 0 -138.5 -63t-89.5 -172z" />
<glyph unicode="&#x11a;" horiz-adv-x="1096" d="M58 0l185 1492h889l-33 -257h-552l-45 -361h423l-33 -247h-421l-45 -370h556l-33 -257h-891zM58 0zM372 1873h211q17 0 41 -4.5t40 -31.5l46 -91l13 -27l21 27l63 90q10 13 22.5 21t24.5 11.5t23 4t19 0.5h211l-262 -285h-275z" />
<glyph unicode="&#x11b;" horiz-adv-x="1012" d="M30 0zM30 433q0 85 19 166t54 152t86.5 131t115.5 103t140 67t162 24q85 0 151 -24.5t111 -64t69 -88.5t24 -98q0 -73 -29 -133.5t-100 -107t-191.5 -79t-302.5 -51.5q2 -109 47.5 -159t134.5 -50q42 0 73 7.5t54 18.5t41.5 23.5t35 23.5t35 18t42.5 7q15 0 29.5 -7.5 t25.5 -19.5l82 -95q-56 -55 -110 -96t-110.5 -67t-120.5 -38t-140 -12q-94 0 -173 32t-136 91t-88 142t-31 184zM269 1492h202q17 0 31.5 -5.5t21.5 -13.5l70 -94q5 -7 10.5 -14.5t11.5 -15.5q13 16 27 30l89 94q9 6 25.5 12.5t34.5 6.5h193l-254 -296h-275zM361 627 q99 15 161 32t95.5 37t45.5 43t12 49q0 27 -20.5 50.5t-65.5 23.5q-79 0 -138.5 -63t-89.5 -172z" />
<glyph unicode="&#x11c;" horiz-adv-x="1382" d="M67 649q0 124 28 236t80 207.5t125.5 172t163 131t193 83.5t216.5 29q95 0 172.5 -17t139 -46.5t109.5 -68t85 -79.5l-108 -134q-27 -36 -64 -43.5t-75 17.5q-36 25 -68 42.5t-64.5 29.5t-69 17.5t-81.5 5.5q-97 0 -178 -41.5t-139.5 -117t-90.5 -181t-32 -232.5 q0 -98 24 -176t68 -132t105 -82.5t136 -28.5q61 0 110.5 10.5t94.5 30.5l29 243h-127q-31 0 -47 16t-12 42l22 184h498l-78 -624q-57 -42 -118.5 -72t-128.5 -49.5t-141.5 -28.5t-158.5 -9q-138 0 -252.5 50.5t-195.5 139.5t-125.5 211t-44.5 264zM513 1588l262 285h265 l199 -285h-211q-9 0 -19.5 1t-22 5.5t-23.5 14t-22 26.5l-39 80l-14 26l-20 -26l-55 -80q-31 -34 -56 -40.5t-42 -6.5h-202z" />
<glyph unicode="&#x11d;" horiz-adv-x="1062" d="M-72 -87q0 77 34 131.5t89 91.5t126 57t144 27t143 3.5t124 -13.5q-2 12 -2 25v27q0 54 27 124q-40 -27 -91.5 -42t-128.5 -15q-60 0 -115.5 20t-98 61t-68 102.5t-25.5 146.5q0 79 30 154.5t90 134.5t148.5 94.5t206.5 35.5q60 0 116 -13.5t103 -41.5h305l-14 -99 q-9 -58 -59 -79l-90 -31q6 -34 6 -70q0 -66 -18 -111.5t-39.5 -86.5t-39.5 -84t-18 -102q0 -42 14 -77t30 -72t30 -78t14 -94q-1 -82 -37 -155t-103.5 -128t-165.5 -87.5t-224 -32.5q-103 0 -185.5 21.5t-139 58.5t-87.5 88t-31 109zM0 0zM229 -48q0 -52 38.5 -79t129.5 -27 q47 0 87 12.5t68.5 34.5t44 52.5t15.5 68.5v12.5t-1 11.5q-104 17 -177.5 16t-118.5 -14.5t-65.5 -36.5t-20.5 -51zM244 1196l254 296h275l186 -296h-193q-17 0 -32.5 5.5t-30.5 23.5l-61 85q-5 6 -10 13t-11 15q-15 -18 -26 -28l-82 -85q-15 -14 -32.5 -21.5t-35.5 -7.5 h-201zM375 657q0 -68 27.5 -106t82.5 -38q38 0 66.5 19.5t46.5 50.5t28 70t11 79q0 67 -27.5 103.5t-85.5 36.5q-38 0 -66 -17.5t-46.5 -47.5t-27.5 -69t-9 -81z" />
<glyph unicode="&#x11e;" horiz-adv-x="1382" d="M67 649q0 124 28 236t80 207.5t125.5 172t163 131t193 83.5t216.5 29q95 0 172.5 -17t139 -46.5t109.5 -68t85 -79.5l-108 -134q-27 -36 -64 -43.5t-75 17.5q-36 25 -68 42.5t-64.5 29.5t-69 17.5t-81.5 5.5q-97 0 -178 -41.5t-139.5 -117t-90.5 -181t-32 -232.5 q0 -98 24 -176t68 -132t105 -82.5t136 -28.5q61 0 110.5 10.5t94.5 30.5l29 243h-127q-31 0 -47 16t-12 42l22 184h498l-78 -624q-57 -42 -118.5 -72t-128.5 -49.5t-141.5 -28.5t-158.5 -9q-138 0 -252.5 50.5t-195.5 139.5t-125.5 211t-44.5 264zM555 1872h222 q-5 -50 16.5 -78t87.5 -28t93 28t33 78h222q-7 -67 -38 -120t-80 -90.5t-113.5 -57.5t-138.5 -20t-133.5 17t-100.5 52.5t-59.5 89.5t-10.5 129z" />
<glyph unicode="&#x11f;" horiz-adv-x="1062" d="M-72 -87q0 77 34 131.5t89 91.5t126 57t144 27t143 3.5t124 -13.5q-2 12 -2 25v27q0 54 27 124q-40 -27 -91.5 -42t-128.5 -15q-60 0 -115.5 20t-98 61t-68 102.5t-25.5 146.5q0 79 30 154.5t90 134.5t148.5 94.5t206.5 35.5q60 0 116 -13.5t103 -41.5h305l-14 -99 q-9 -58 -59 -79l-90 -31q6 -34 6 -70q0 -66 -18 -111.5t-39.5 -86.5t-39.5 -84t-18 -102q0 -42 14 -77t30 -72t30 -78t14 -94q-1 -82 -37 -155t-103.5 -128t-165.5 -87.5t-224 -32.5q-103 0 -185.5 21.5t-139 58.5t-87.5 88t-31 109zM0 0zM229 -48q0 -52 38.5 -79t129.5 -27 q47 0 87 12.5t68.5 34.5t44 52.5t15.5 68.5v12.5t-1 11.5q-104 17 -177.5 16t-118.5 -14.5t-65.5 -36.5t-20.5 -51zM315 1492h203q-3 -28 -1.5 -49.5t12 -35t30.5 -21t53 -7.5q32 0 53 7.5t34 21t20 35t10 49.5h203q-7 -62 -28 -117.5t-62 -97t-103 -66t-150 -24.5 t-145 24.5t-87.5 66t-40 97t-1.5 117.5zM375 657q0 -68 27.5 -106t82.5 -38q38 0 66.5 19.5t46.5 50.5t28 70t11 79q0 67 -27.5 103.5t-85.5 36.5q-38 0 -66 -17.5t-46.5 -47.5t-27.5 -69t-9 -81z" />
<glyph unicode="&#x120;" horiz-adv-x="1382" d="M67 649q0 124 28 236t80 207.5t125.5 172t163 131t193 83.5t216.5 29q95 0 172.5 -17t139 -46.5t109.5 -68t85 -79.5l-108 -134q-27 -36 -64 -43.5t-75 17.5q-36 25 -68 42.5t-64.5 29.5t-69 17.5t-81.5 5.5q-97 0 -178 -41.5t-139.5 -117t-90.5 -181t-32 -232.5 q0 -98 24 -176t68 -132t105 -82.5t136 -28.5q61 0 110.5 10.5t94.5 30.5l29 243h-127q-31 0 -47 16t-12 42l22 184h498l-78 -624q-57 -42 -118.5 -72t-128.5 -49.5t-141.5 -28.5t-158.5 -9q-138 0 -252.5 50.5t-195.5 139.5t-125.5 211t-44.5 264zM712 1740q0 38 15 71.5 t41.5 59t59 40.5t68.5 15q37 0 70.5 -15t60 -40t42 -59t15.5 -72t-16 -72t-43 -59t-61 -39.5t-70 -14.5t-68.5 14.5t-58 39.5t-40.5 59t-15 72z" />
<glyph unicode="&#x121;" horiz-adv-x="1062" d="M-72 -87q0 77 34 131.5t89 91.5t126 57t144 27t143 3.5t124 -13.5q-2 12 -2 25v27q0 54 27 124q-40 -27 -91.5 -42t-128.5 -15q-60 0 -115.5 20t-98 61t-68 102.5t-25.5 146.5q0 79 30 154.5t90 134.5t148.5 94.5t206.5 35.5q60 0 116 -13.5t103 -41.5h305l-14 -99 q-9 -58 -59 -79l-90 -31q6 -34 6 -70q0 -66 -18 -111.5t-39.5 -86.5t-39.5 -84t-18 -102q0 -42 14 -77t30 -72t30 -78t14 -94q-1 -82 -37 -155t-103.5 -128t-165.5 -87.5t-224 -32.5q-103 0 -185.5 21.5t-139 58.5t-87.5 88t-31 109zM0 0zM229 -48q0 -52 38.5 -79t129.5 -27 q47 0 87 12.5t68.5 34.5t44 52.5t15.5 68.5v12.5t-1 11.5q-104 17 -177.5 16t-118.5 -14.5t-65.5 -36.5t-20.5 -51zM375 657q0 -68 27.5 -106t82.5 -38q38 0 66.5 19.5t46.5 50.5t28 70t11 79q0 67 -27.5 103.5t-85.5 36.5q-38 0 -66 -17.5t-46.5 -47.5t-27.5 -69t-9 -81z M433 1353q0 38 15.5 71.5t41.5 59t59 40.5t68 15q37 0 71 -14.5t60 -40t42 -59t16 -72.5q0 -38 -16.5 -71.5t-43 -58.5t-61 -40t-70.5 -15t-68.5 15t-57.5 40t-40.5 58.5t-15.5 71.5z" />
<glyph unicode="&#x122;" horiz-adv-x="1382" d="M67 649q0 124 28 236t80 207.5t125.5 172t163 131t193 83.5t216.5 29q95 0 172.5 -17t139 -46.5t109.5 -68t85 -79.5l-108 -134q-27 -36 -64 -43.5t-75 17.5q-36 25 -68 42.5t-64.5 29.5t-69 17.5t-81.5 5.5q-97 0 -178 -41.5t-139.5 -117t-90.5 -181t-32 -232.5 q0 -98 24 -176t68 -132t105 -82.5t136 -28.5q61 0 110.5 10.5t94.5 30.5l29 243h-127q-31 0 -47 16t-12 42l22 184h498l-78 -624q-57 -42 -118.5 -72t-128.5 -49.5t-141.5 -28.5t-158.5 -9q-138 0 -252.5 50.5t-195.5 139.5t-125.5 211t-44.5 264zM504 -397l87 310h195 q28 0 35.5 -12t7.5 -23t-3.5 -28t-14 -43t-29.5 -63t-51 -88q-20 -34 -47.5 -43.5t-67.5 -9.5h-112z" />
<glyph unicode="&#x123;" horiz-adv-x="1062" d="M-72 -87q0 77 34 131.5t89 91.5t126 57t144 27t143 3.5t124 -13.5q-2 12 -2 25v27q0 54 27 124q-40 -27 -91.5 -42t-128.5 -15q-60 0 -115.5 20t-98 61t-68 102.5t-25.5 146.5q0 79 30 154.5t90 134.5t148.5 94.5t206.5 35.5q60 0 116 -13.5t103 -41.5h305l-14 -99 q-9 -58 -59 -79l-90 -31q6 -34 6 -70q0 -66 -18 -111.5t-39.5 -86.5t-39.5 -84t-18 -102q0 -42 14 -77t30 -72t30 -78t14 -94q-1 -82 -37 -155t-103.5 -128t-165.5 -87.5t-224 -32.5q-103 0 -185.5 21.5t-139 58.5t-87.5 88t-31 109zM0 0zM229 -48q0 -52 38.5 -79t129.5 -27 q47 0 87 12.5t68.5 34.5t44 52.5t15.5 68.5v12.5t-1 11.5q-104 17 -177.5 16t-118.5 -14.5t-65.5 -36.5t-20.5 -51zM375 657q0 -68 27.5 -106t82.5 -38q38 0 66.5 19.5t46.5 50.5t28 70t11 79q0 67 -27.5 103.5t-85.5 36.5q-38 0 -66 -17.5t-46.5 -47.5t-27.5 -69t-9 -81z M464 1202l148 291h183l-82 -291h-249z" />
<glyph unicode="&#x124;" horiz-adv-x="1482" d="M58 0l185 1492h336l-78 -630h538l78 630h336l-184 -1492h-336l78 635h-539l-78 -635h-336zM58 0zM504 1588l262 285h265l199 -285h-211q-9 0 -19.5 1t-22.5 5.5t-23.5 14t-21.5 26.5l-39 80l-15 26l-19 -26l-55 -80q-31 -34 -56 -40.5t-43 -6.5h-201z" />
<glyph unicode="&#x125;" horiz-adv-x="1129" d="M-7 1588l258 231h307l203 -231h-232q-17 0 -36 6.5t-33 12.5l-58 50q-5 3 -8.5 6.5t-7.5 6.5l-20 -13l-70 -50q-14 -8 -34.5 -13.5t-39.5 -5.5h-229zM24 0l186 1533h317l-74 -610q73 80 153.5 117.5t166.5 37.5q67 0 121.5 -26.5t91.5 -77.5t52.5 -126.5t2.5 -172.5 l-79 -675h-318l80 675q5 43 3 72.5t-11 48t-25.5 26t-40.5 7.5q-32 0 -66.5 -18.5t-67 -53.5t-60.5 -84t-46 -110l-69 -563h-317z" />
<glyph unicode="&#x126;" horiz-adv-x="1504" d="M70 0l130 1059h-127l22 188h128l31 245h336l-31 -245h539l30 245h336l-30 -245h130l-23 -188h-131l-130 -1059h-336l78 635h-539l-77 -635h-336zM512 862h539l23 197h-538z" />
<glyph unicode="&#x127;" horiz-adv-x="1129" d="M24 0l139 1149h-137l26 188h134l24 196h317l-23 -196h259l-17 -109q-6 -37 -31 -58t-67 -21h-168l-31 -266q72 80 153 118t167 38q67 0 121.5 -26.5t91.5 -78t52.5 -127t2.5 -172.5l-75 -635h-318l76 635q11 87 -7.5 121.5t-66.5 34.5q-33 0 -67.5 -19.5t-67 -55 t-60.5 -85t-47 -111.5l-63 -520h-317z" />
<glyph unicode="&#x128;" horiz-adv-x="607" d="M58 0l183 1492h336l-183 -1492h-336zM58 0zM61 1578q6 56 26.5 108.5t52.5 93.5t75 65.5t96 24.5t88.5 -15.5t62.5 -34.5t48 -34.5t46 -15.5q20 0 35.5 9t26 23t16 29.5t7.5 30.5h177q-6 -56 -26 -108.5t-52 -93t-75 -64.5t-96 -24q-52 0 -87.5 15.5t-63 34t-49 34 t-45.5 15.5q-20 0 -35.5 -9t-26 -23t-16 -30.5t-6.5 -30.5h-179z" />
<glyph unicode="&#x129;" horiz-adv-x="530" d="M13 0zM13 1214q7 65 30.5 116.5t57 88.5t75.5 57t87 20q35 0 64 -11.5t53.5 -26t44 -26.5t35.5 -12q23 0 38 13t20 55h177q-8 -65 -30.5 -116.5t-55.5 -88t-75 -56t-88 -19.5q-35 0 -64 12t-53.5 26.5t-44 26t-35.5 11.5q-24 0 -37.5 -14t-18.5 -56h-180zM33 0l127 1062 h313l-127 -1062h-313z" />
<glyph unicode="&#x12a;" horiz-adv-x="607" d="M58 0l183 1492h336l-183 -1492h-336zM58 0zM115 1593l21 174h603l-21 -174h-603z" />
<glyph unicode="&#x12b;" horiz-adv-x="530" d="M33 0l127 1062h313l-127 -1062h-313zM33 0zM50 1230l23 194h584l-23 -194h-584z" />
<glyph unicode="&#x12e;" horiz-adv-x="607" d="M-7 -218q0 56 36.5 112t124.5 106h-96l183 1492h336l-183 -1492h-56q-43 -24 -71 -57.5t-28 -76.5q0 -20 8.5 -32.5t28.5 -12.5q12 0 20 1t12.5 2.5t8.5 3t9 1.5q23 0 25 -19l33 -114q-36 -22 -88 -36.5t-110 -14.5q-97 0 -145 38.5t-48 98.5z" />
<glyph unicode="&#x12f;" horiz-adv-x="530" d="M-47 -218q0 30 9.5 59.5t31.5 58.5t57 57.5t85 54.5l162 -12q-43 -24 -71.5 -57.5t-28.5 -76.5q0 -20 9 -32.5t29 -12.5q12 0 20 1t12.5 2.5t8 3t8.5 1.5q23 0 26 -19l33 -114q-36 -22 -88 -36.5t-110 -14.5q-97 0 -145 38.5t-48 98.5zM0 0zM33 0l127 1062h313 l-127 -1062h-313zM160 1353q0 38 15 71.5t41.5 59t59 40.5t68.5 15q37 0 71 -14.5t60 -40t41.5 -59t15.5 -72.5q0 -38 -16 -71.5t-43 -58.5t-61 -40t-70 -15t-68.5 15t-58 40t-40.5 58.5t-15 71.5z" />
<glyph unicode="&#x130;" horiz-adv-x="607" d="M58 0l183 1492h336l-183 -1492h-336zM252 1740q0 38 15.5 71.5t41.5 59t58.5 40.5t68.5 15q37 0 71 -15t60 -40t42 -59t16 -72t-16.5 -72t-43 -59t-61 -39.5t-70.5 -14.5t-68.5 14.5t-57.5 39.5t-40.5 59t-15.5 72z" />
<glyph unicode="&#x131;" horiz-adv-x="530" d="M33 0l127 1062h313l-127 -1062h-313z" />
<glyph unicode="&#x132;" horiz-adv-x="1427" d="M58 0l183 1492h336l-183 -1492h-336zM58 0zM538 10l25 192q3 26 18 42.5t47 16.5q25 0 55.5 -5.5t67.5 -5.5q83 0 136.5 65t70.5 212l117 965h334l-117 -956q-15 -125 -56 -226.5t-109 -174.5t-161.5 -112t-214.5 -39q-54 0 -106 6t-107 20z" />
<glyph unicode="&#x133;" horiz-adv-x="1048" d="M32 0l127 1062h313l-127 -1062h-313zM32 0zM159 1353q0 38 15 71.5t41.5 59t59 40.5t68.5 15q37 0 71 -14.5t60 -40t41.5 -59t15.5 -72.5q0 -38 -16 -71.5t-43 -58.5t-61 -40t-70 -15t-68.5 15t-58 40t-40.5 58.5t-15 71.5zM329 -347l30 167q5 22 18.5 32t47.5 10 q33 0 55 6t36 21.5t22.5 41.5t13.5 67l129 1064h311l-129 -1064q-9 -75 -37 -141t-77 -115.5t-118.5 -78.5t-160.5 -29q-45 0 -77 5t-64 14zM666 1353q0 38 15.5 71.5t41.5 59t59 40.5t69 15q37 0 70.5 -14.5t59.5 -40t42 -59t16 -72.5q0 -38 -16.5 -71.5t-43 -58.5 t-60.5 -40t-70 -15t-69 15t-58 40t-40.5 58.5t-15.5 71.5z" />
<glyph unicode="&#x134;" horiz-adv-x="852" d="M-36 10l25 192q3 26 18 42.5t47 16.5q25 0 55.5 -5.5t67.5 -5.5q83 0 136.5 65t70.5 212l117 965h334l-117 -956q-15 -125 -56 -226.5t-109 -174.5t-161.5 -112t-214.5 -39q-54 0 -106 6t-107 20zM0 0zM339 1588l262 285h265l199 -285h-211q-9 0 -19.5 1t-22.5 5.5 t-23.5 14t-21.5 26.5l-39 80l-15 26l-19 -26l-55 -80q-31 -34 -56 -40.5t-43 -6.5h-201z" />
<glyph unicode="&#x135;" horiz-adv-x="528" d="M-191 -347l30 167q5 22 18.5 32t47.5 10q33 0 55 6t36 21.5t22.5 41.5t13.5 67l129 1064h311l-129 -1064q-9 -75 -37 -141t-77 -115.5t-118.5 -78.5t-160.5 -29q-45 0 -77 5t-64 14zM-12 1196l254 296h275l186 -296h-193q-17 0 -32.5 5.5t-30.5 23.5l-61 85q-5 6 -10 13 t-11 15q-15 -18 -26 -28l-82 -85q-15 -14 -32.5 -21.5t-35.5 -7.5h-201zM0 0z" />
<glyph unicode="&#x136;" horiz-adv-x="1357" d="M58 0l183 1492h333l-75 -610h49q72 0 108 49l355 494q30 39 66 53t85 14h289l-469 -609q-48 -59 -102 -87q35 -14 61 -39t45 -65l316 -692h-297q-29 0 -48.5 4t-33.5 12.5t-23 19.5t-16 25l-232 525q-12 30 -37.5 41.5t-68.5 11.5h-77l-79 -639h-332zM58 0zM403 -397 l88 310h195q28 0 35.5 -12t7.5 -23t-3.5 -28t-14.5 -43t-29.5 -63t-50.5 -88q-20 -34 -47.5 -43.5t-67.5 -9.5h-113z" />
<glyph unicode="&#x137;" horiz-adv-x="1074" d="M22 0l188 1533h313l-105 -859h21q27 0 43 8.5t33 29.5l219 299q20 26 43.5 38.5t57.5 12.5h284l-297 -378q-43 -53 -96 -83q22 -17 37 -40.5t29 -52.5l213 -508h-277q-34 0 -56 12t-34 41l-148 376q-11 26 -23.5 33.5t-41.5 7.5h-33l-57 -470h-313zM22 0zM260 -397 l88 310h195q28 0 35.5 -12t7.5 -23t-3.5 -28t-14.5 -43t-29.5 -63t-50.5 -88q-20 -34 -47.5 -43.5t-67.5 -9.5h-113z" />
<glyph unicode="&#x138;" horiz-adv-x="1073" d="M23 0l131 1062h313l-48 -388h21q27 0 43 8.5t33 29.5l219 299q20 26 43.5 38.5t57.5 12.5h282l-291 -378q-42 -52 -96 -85q20 -17 34 -40t28 -51l213 -508h-275q-34 0 -56.5 12t-33.5 41l-149 376q-11 26 -24 33.5t-42 7.5h-33l-57 -470h-313z" />
<glyph unicode="&#x139;" horiz-adv-x="1002" d="M58 0l185 1492h334l-152 -1226h502l-33 -266h-836zM58 0zM266 1588l209 277q13 16 25.5 26t26 14.5t29.5 5.5t38 1h321l-336 -292q-13 -11 -24 -17.5t-23 -9.5t-24.5 -4t-29.5 -1h-212z" />
<glyph unicode="&#x13a;" horiz-adv-x="514" d="M24 0l186 1533h313l-186 -1533h-313zM24 0zM214 1588l209 277q13 16 25.5 26t26 14.5t29.5 5.5t38 1h321l-336 -292q-13 -11 -24 -17.5t-23 -9.5t-24.5 -4t-29.5 -1h-212z" />
<glyph unicode="&#x13b;" horiz-adv-x="1002" d="M58 0l185 1492h334l-152 -1226h502l-33 -266h-836zM58 0zM292 -397l88 310h195q28 0 35.5 -12t7.5 -23t-3.5 -28t-14.5 -43t-29.5 -63t-50.5 -88q-20 -34 -47.5 -43.5t-67.5 -9.5h-113z" />
<glyph unicode="&#x13c;" horiz-adv-x="514" d="M-35 -397l88 310h195q28 0 35.5 -12t7.5 -23t-3.5 -28t-14.5 -43t-29.5 -63t-50.5 -88q-20 -34 -47.5 -43.5t-67.5 -9.5h-113zM0 0zM24 0l186 1533h313l-186 -1533h-313z" />
<glyph unicode="&#x13d;" horiz-adv-x="1003" d="M58 0l185 1492h334l-152 -1226h502l-33 -266h-836zM654 1166l109 367h207q28 0 35.5 -11.5t7.5 -22.5q0 -9 -3 -22t-17 -41.5t-41.5 -80t-78.5 -137.5q-20 -34 -45.5 -43t-64.5 -9h-109z" />
<glyph unicode="&#x13e;" horiz-adv-x="514" d="M24 0l186 1533h313l-186 -1533h-313zM499 1166l108 367h176q28 0 35.5 -11.5t7.5 -22.5q0 -9 -3 -22t-16.5 -41.5t-41.5 -80t-78 -137.5q-20 -34 -46 -43t-64 -9h-78z" />
<glyph unicode="&#x13f;" horiz-adv-x="1031" d="M58 0l185 1492h334l-152 -1226h502l-33 -266h-836zM58 0zM591 818q0 37 14 68.5t38 55t57 37.5t72 14q38 0 70.5 -14t57 -37.5t38.5 -55t14 -68.5t-14 -69.5t-38.5 -56t-57.5 -36.5t-70 -13q-39 0 -72 13t-57 36.5t-38 56t-14 69.5z" />
<glyph unicode="&#x140;" horiz-adv-x="828" d="M24 0l186 1533h313l-186 -1533h-313zM24 0zM510 789q0 37 14 68.5t38 55t57 37.5t72 14q38 0 70.5 -14t57 -37.5t38.5 -55t14 -68.5t-14 -69.5t-38.5 -56t-57.5 -36.5t-70 -13q-39 0 -72 13t-57 36.5t-38 56t-14 69.5z" />
<glyph unicode="&#x141;" horiz-adv-x="1046" d="M-22 434l29 223q3 41 41 56l151 74l87 705h334l-68 -545l315 160l-28 -219q-6 -47 -45 -62l-275 -145l-51 -415h502l-33 -266h-836l65 524z" />
<glyph unicode="&#x142;" horiz-adv-x="654" d="M39 580v184q0 40 37 55l129 53l81 661h313l-67 -550l132 51v-178q0 -48 -41 -63l-120 -50l-90 -743h-314l77 633z" />
<glyph unicode="&#x143;" horiz-adv-x="1482" d="M58 0l185 1492h176q22 0 36.5 -1.5t26 -7t20.5 -16t19 -26.5l523 -922q2 36 6 69t8 61l100 843h295l-184 -1492h-174q-39 0 -63 13t-46 42l-521 921q-2 -29 -4.5 -55.5t-4.5 -50.5l-103 -870h-295zM677 1588l209 277q13 16 25.5 26t25.5 14.5t29.5 5.5t38.5 1h321 l-337 -292q-13 -11 -24 -17.5t-22.5 -9.5t-24.5 -4t-29 -1h-212z" />
<glyph unicode="&#x144;" horiz-adv-x="1129" d="M25 0l127 1062h163q49 0 77 -23t28 -75v-85q77 102 168 150.5t188 48.5q66 0 120.5 -26.5t91 -77.5t52 -126.5t2.5 -172.5l-79 -675h-318l80 675q5 43 3.5 72.5t-10.5 47t-25.5 25t-39.5 7.5q-35 0 -72.5 -21.5t-72 -60t-63 -94.5t-45.5 -124l-58 -527h-317zM25 0z M479 1196l155 251q19 30 43.5 45.5t68.5 15.5h283l-277 -269q-24 -24 -44.5 -33.5t-53.5 -9.5h-175z" />
<glyph unicode="&#x145;" horiz-adv-x="1482" d="M58 0l185 1492h176q22 0 36.5 -1.5t26 -7t20.5 -16t19 -26.5l523 -922q2 36 6 69t8 61l100 843h295l-184 -1492h-174q-39 0 -63 13t-46 42l-521 921q-2 -29 -4.5 -55.5t-4.5 -50.5l-103 -870h-295zM472 -397l87 310h196q28 0 35.5 -12t7.5 -23t-3.5 -28t-14.5 -43 t-30 -63t-51 -88q-20 -34 -47 -43.5t-67 -9.5h-113z" />
<glyph unicode="&#x146;" horiz-adv-x="1129" d="M25 0l127 1062h163q49 0 77 -23t28 -75v-85q77 102 168 150.5t188 48.5q66 0 120.5 -26.5t91 -77.5t52 -126.5t2.5 -172.5l-79 -675h-318l80 675q5 43 3.5 72.5t-10.5 47t-25.5 25t-39.5 7.5q-35 0 -72.5 -21.5t-72 -60t-63 -94.5t-45.5 -124l-58 -527h-317zM25 0z M277 -397l88 310h195q28 0 35.5 -12t7.5 -23t-3.5 -28t-14.5 -43t-29.5 -63t-50.5 -88q-20 -34 -47.5 -43.5t-67.5 -9.5h-113z" />
<glyph unicode="&#x147;" horiz-adv-x="1482" d="M58 0l185 1492h176q22 0 36.5 -1.5t26 -7t20.5 -16t19 -26.5l523 -922q2 36 6 69t8 61l100 843h295l-184 -1492h-174q-39 0 -63 13t-46 42l-521 921q-2 -29 -4.5 -55.5t-4.5 -50.5l-103 -870h-295zM523 1873h211q17 0 41 -4.5t40 -31.5l46 -91l13 -27l21 27l63 90 q10 13 22.5 21t24.5 11.5t23 4t20 0.5h210l-262 -285h-275z" />
<glyph unicode="&#x148;" horiz-adv-x="1129" d="M25 0l127 1062h163q49 0 77 -23t28 -75v-85q77 102 168 150.5t188 48.5q66 0 120.5 -26.5t91 -77.5t52 -126.5t2.5 -172.5l-79 -675h-318l80 675q5 43 3.5 72.5t-10.5 47t-25.5 25t-39.5 7.5q-35 0 -72.5 -21.5t-72 -60t-63 -94.5t-45.5 -124l-58 -527h-317zM25 0z M295 1492h202q17 0 31.5 -5.5t21.5 -13.5l70 -94q5 -7 10.5 -14.5t11.5 -15.5q13 16 27 30l89 94q9 6 25.5 12.5t34.5 6.5h193l-254 -296h-275z" />
<glyph unicode="&#x149;" horiz-adv-x="1292" d="M7 0zM7 1028q0 14 7.5 24.5t22.5 26.5q13 15 35 48t36.5 79t13.5 104t-33 124q-11 24 4 45t46 32l192 69q41 -86 46.5 -172t-22.5 -168.5t-89 -159.5t-152 -142l-87 55q-9 5 -14.5 15t-5.5 20zM187 0l127 1062h163q49 0 77 -23t28 -75v-85q77 102 168 150.5t188 48.5 q66 0 120.5 -26.5t91 -77.5t52 -126.5t2.5 -172.5l-79 -675h-318l80 675q5 43 3.5 72.5t-10.5 47t-25.5 25t-39.5 7.5q-35 0 -72.5 -21.5t-72 -60t-63 -94.5t-45.5 -124l-58 -527h-317z" />
<glyph unicode="&#x14c;" horiz-adv-x="1556" d="M67 0zM67 649q0 121 28 232t79.5 206.5t125.5 173t165 132.5t197.5 85t225.5 30q146 0 263.5 -51.5t199 -141.5t125 -212t43.5 -261q0 -121 -28.5 -231.5t-80 -206t-125 -173t-164.5 -132.5t-197.5 -85t-224.5 -30q-147 0 -264.5 51.5t-199 141t-125 211t-43.5 261.5z M409 656q0 -92 21.5 -166.5t63 -128t102.5 -82.5t140 -29q102 0 183.5 42t138.5 118.5t88 184.5t31 239q0 92 -22 167t-64.5 129t-104 83t-139.5 29q-102 0 -183 -42.5t-138 -119t-87 -185t-30 -239.5zM613 1593l21 174h603l-21 -174h-603z" />
<glyph unicode="&#x14d;" horiz-adv-x="1080" d="M31 0zM31 432q0 141 46.5 259.5t125.5 204.5t182.5 134t218.5 48q89 0 166 -29.5t134 -86.5t89.5 -140.5t32.5 -191.5q0 -139 -46.5 -257.5t-125.5 -205t-182.5 -135t-218.5 -48.5q-89 0 -166.5 29.5t-134.5 86.5t-89 140.5t-32 191.5zM341 1230l23 194h584l-23 -194 h-584zM348 434q0 -114 31 -164.5t102 -50.5q53 0 95 32.5t71.5 88t45.5 130t16 158.5q0 116 -31.5 165.5t-102.5 49.5q-53 0 -95 -32.5t-71 -87.5t-45 -130t-16 -159z" />
<glyph unicode="&#x14e;" horiz-adv-x="1556" d="M67 0zM67 649q0 121 28 232t79.5 206.5t125.5 173t165 132.5t197.5 85t225.5 30q146 0 263.5 -51.5t199 -141.5t125 -212t43.5 -261q0 -121 -28.5 -231.5t-80 -206t-125 -173t-164.5 -132.5t-197.5 -85t-224.5 -30q-147 0 -264.5 51.5t-199 141t-125 211t-43.5 261.5z M409 656q0 -92 21.5 -166.5t63 -128t102.5 -82.5t140 -29q102 0 183.5 42t138.5 118.5t88 184.5t31 239q0 92 -22 167t-64.5 129t-104 83t-139.5 29q-102 0 -183 -42.5t-138 -119t-87 -185t-30 -239.5zM610 1872h222q-5 -50 16.5 -78t87.5 -28t93 28t32 78h223 q-7 -67 -38 -120t-80 -90.5t-113.5 -57.5t-138.5 -20t-134 17t-100.5 52.5t-59 89.5t-10.5 129z" />
<glyph unicode="&#x14f;" horiz-adv-x="1080" d="M31 0zM31 432q0 141 46.5 259.5t125.5 204.5t182.5 134t218.5 48q89 0 166 -29.5t134 -86.5t89.5 -140.5t32.5 -191.5q0 -139 -46.5 -257.5t-125.5 -205t-182.5 -135t-218.5 -48.5q-89 0 -166.5 29.5t-134.5 86.5t-89 140.5t-32 191.5zM348 434q0 -114 31 -164.5 t102 -50.5q53 0 95 32.5t71.5 88t45.5 130t16 158.5q0 116 -31.5 165.5t-102.5 49.5q-53 0 -95 -32.5t-71 -87.5t-45 -130t-16 -159zM355 1492h203q-3 -28 -1.5 -49.5t12 -35t30.5 -21t53 -7.5q32 0 53 7.5t34 21t20 35t10 49.5h203q-7 -62 -28 -117.5t-62 -97t-103 -66 t-150 -24.5t-145 24.5t-87.5 66t-40 97t-1.5 117.5z" />
<glyph unicode="&#x150;" horiz-adv-x="1556" d="M67 0zM67 649q0 121 28 232t79.5 206.5t125.5 173t165 132.5t197.5 85t225.5 30q146 0 263.5 -51.5t199 -141.5t125 -212t43.5 -261q0 -121 -28.5 -231.5t-80 -206t-125 -173t-164.5 -132.5t-197.5 -85t-224.5 -30q-147 0 -264.5 51.5t-199 141t-125 211t-43.5 261.5z M409 656q0 -92 21.5 -166.5t63 -128t102.5 -82.5t140 -29q102 0 183.5 42t138.5 118.5t88 184.5t31 239q0 92 -22 167t-64.5 129t-104 83t-139.5 29q-102 0 -183 -42.5t-138 -119t-87 -185t-30 -239.5zM597 1588l147 223q19 29 49 45.5t74 16.5h188l-222 -241 q-25 -20 -45 -32t-53 -12h-138zM908 1588l195 223q25 27 56 44.5t75 17.5h218l-280 -241q-26 -22 -50.5 -33t-57.5 -11h-156z" />
<glyph unicode="&#x151;" horiz-adv-x="1080" d="M31 0zM31 432q0 141 46.5 259.5t125.5 204.5t182.5 134t218.5 48q89 0 166 -29.5t134 -86.5t89.5 -140.5t32.5 -191.5q0 -139 -46.5 -257.5t-125.5 -205t-182.5 -135t-218.5 -48.5q-89 0 -166.5 29.5t-134.5 86.5t-89 140.5t-32 191.5zM329 1196l138 251q17 30 42 45.5 t69 15.5h188l-219 -269q-22 -26 -44.5 -34.5t-55.5 -8.5h-118zM348 434q0 -114 31 -164.5t102 -50.5q53 0 95 32.5t71.5 88t45.5 130t16 158.5q0 116 -31.5 165.5t-102.5 49.5q-53 0 -95 -32.5t-71 -87.5t-45 -130t-16 -159zM611 1196l195 251q10 14 21 25.5t23 19.5 t28.5 12t37.5 4h208l-276 -269q-24 -24 -45 -33.5t-53 -9.5h-139z" />
<glyph unicode="&#x152;" horiz-adv-x="2038" d="M69 639q0 183 56 342t156 276t236.5 184t298.5 67q126 0 223 -47.5t164 -130.5l21 162h850l-33 -257h-554l-44 -363h422l-31 -247h-422l-45 -368h555l-33 -257h-850l18 139q-88 -74 -195.5 -114.5t-231.5 -40.5q-131 0 -235.5 50.5t-177 138.5t-110.5 208t-38 258z M411 646q0 -89 17.5 -163.5t53.5 -128.5t89.5 -83.5t123.5 -29.5q93 0 168 44.5t127 124t80.5 190.5t28.5 244q0 90 -18 164.5t-53.5 128.5t-88 84t-121.5 30q-95 0 -171 -44.5t-128 -125t-80 -191.5t-28 -244z" />
<glyph unicode="&#x153;" horiz-adv-x="1638" d="M28 375q0 116 23 213t63.5 175t95.5 137t120.5 98.5t138.5 59.5t147 20q94 0 165.5 -36t117.5 -103q67 66 155 102.5t200 36.5q73 0 133 -20.5t102.5 -57t66 -88t23.5 -113.5q0 -72 -28.5 -131.5t-98.5 -106t-188 -79.5t-297 -52q7 -111 54.5 -160t130.5 -49 q42 0 72.5 7.5t54 18.5t41.5 23.5t35 23.5t35.5 18t42.5 7q15 0 29.5 -7.5t25.5 -19.5l82 -95q-56 -55 -110 -96t-111 -67t-121 -38t-139 -12q-91 0 -170.5 42t-132.5 131q-77 -83 -177 -128t-218 -45q-87 0 -154.5 31.5t-114 85.5t-70.5 124.5t-24 149.5zM337 391 q0 -36 6.5 -68.5t21.5 -57t40 -39.5t62 -15q59 0 102.5 29t73.5 83t47 129.5t23 169.5q8 110 -22.5 169.5t-102.5 59.5q-60 0 -107 -34t-78.5 -94t-48.5 -144.5t-17 -187.5zM978 614q101 15 165.5 35.5t102.5 43t52.5 46.5t14.5 48q0 32 -27 55.5t-82 23.5q-82 0 -142.5 -64 t-83.5 -188z" />
<glyph unicode="&#x154;" horiz-adv-x="1257" d="M58 0l183 1492h452q137 0 234 -29t158.5 -80.5t89.5 -121.5t28 -152q0 -83 -22 -156.5t-64 -135.5t-103 -110t-138 -78q31 -17 56 -42.5t44 -61.5l217 -525h-301q-42 0 -70 17t-41 46l-161 442q-12 28 -31 40t-55 12h-75l-69 -557h-332zM58 0zM487 787h122q72 0 122 22 t81.5 59t45 86.5t13.5 103.5q0 42 -12 76t-38 58.5t-65.5 37.5t-92.5 13h-119zM556 1588l209 277q13 16 25.5 26t26 14.5t29.5 5.5t38 1h321l-336 -292q-13 -11 -24 -17.5t-23 -9.5t-24.5 -4t-29.5 -1h-212z" />
<glyph unicode="&#x155;" horiz-adv-x="744" d="M24 0l129 1062h163q49 0 77 -23t28 -75v-121q39 69 83 118t90.5 76t95 30.5t97.5 -18.5l-57 -294q-58 25 -109 22.5t-93.5 -35t-76.5 -98t-59 -167.5l-57 -477h-311zM24 0zM338 1196l155 251q19 30 43.5 45.5t68.5 15.5h283l-277 -269q-24 -24 -44.5 -33.5t-53.5 -9.5 h-175z" />
<glyph unicode="&#x156;" horiz-adv-x="1257" d="M58 0l183 1492h452q137 0 234 -29t158.5 -80.5t89.5 -121.5t28 -152q0 -83 -22 -156.5t-64 -135.5t-103 -110t-138 -78q31 -17 56 -42.5t44 -61.5l217 -525h-301q-42 0 -70 17t-41 46l-161 442q-12 28 -31 40t-55 12h-75l-69 -557h-332zM58 0zM393 -397l88 310h195 q28 0 35.5 -12t7.5 -23t-3.5 -28t-14.5 -43t-29.5 -63t-50.5 -88q-20 -34 -47.5 -43.5t-67.5 -9.5h-113zM487 787h122q72 0 122 22t81.5 59t45 86.5t13.5 103.5q0 42 -12 76t-38 58.5t-65.5 37.5t-92.5 13h-119z" />
<glyph unicode="&#x157;" horiz-adv-x="744" d="M-43 -397l88 310h195q28 0 35.5 -12t7.5 -23t-3.5 -28t-14.5 -43t-29.5 -63t-50.5 -88q-20 -34 -47.5 -43.5t-67.5 -9.5h-113zM0 0zM24 0l129 1062h163q49 0 77 -23t28 -75v-121q39 69 83 118t90.5 76t95 30.5t97.5 -18.5l-57 -294q-58 25 -109 22.5t-93.5 -35t-76.5 -98 t-59 -167.5l-57 -477h-311z" />
<glyph unicode="&#x158;" horiz-adv-x="1257" d="M58 0l183 1492h452q137 0 234 -29t158.5 -80.5t89.5 -121.5t28 -152q0 -83 -22 -156.5t-64 -135.5t-103 -110t-138 -78q31 -17 56 -42.5t44 -61.5l217 -525h-301q-42 0 -70 17t-41 46l-161 442q-12 28 -31 40t-55 12h-75l-69 -557h-332zM58 0zM393 1873h211q17 0 41 -4.5 t40 -31.5l46 -91l13 -27l21 27l63 90q10 13 22.5 21t24.5 11.5t23 4t19 0.5h211l-262 -285h-275zM487 787h122q72 0 122 22t81.5 59t45 86.5t13.5 103.5q0 42 -12 76t-38 58.5t-65.5 37.5t-92.5 13h-119z" />
<glyph unicode="&#x159;" horiz-adv-x="744" d="M24 0l129 1062h163q49 0 77 -23t28 -75v-121q39 69 83 118t90.5 76t95 30.5t97.5 -18.5l-57 -294q-58 25 -109 22.5t-93.5 -35t-76.5 -98t-59 -167.5l-57 -477h-311zM24 0zM157 1492h202q17 0 31.5 -5.5t21.5 -13.5l70 -94q5 -7 10.5 -14.5t11.5 -15.5q13 16 27 30l89 94 q9 6 25.5 12.5t34.5 6.5h193l-254 -296h-275z" />
<glyph unicode="&#x15a;" horiz-adv-x="1071" d="M-18 180l118 156q14 17 35.5 28.5t42.5 11.5q29 0 56 -20t60 -44t76.5 -44t106.5 -20q93 0 144 50.5t51 150.5q0 46 -23 75.5t-60.5 50t-85.5 36.5t-98.5 34.5t-98.5 43.5t-85.5 65.5t-60.5 99t-23 144.5q0 99 37.5 191t107 162.5t169 112.5t223.5 42q63 0 123 -13 t112.5 -36.5t95.5 -56t72 -70.5l-100 -137q-18 -24 -35.5 -35.5t-42.5 -11.5q-24 0 -47.5 15.5t-52.5 33.5t-67 33.5t-89 15.5q-47 0 -82.5 -13t-59 -37t-35 -55.5t-11.5 -69.5q0 -41 23 -68.5t61.5 -48.5t86.5 -38.5t98.5 -38t99 -47t87 -66.5t61.5 -96.5t23 -135.5 q0 -113 -38.5 -212t-111.5 -173t-177 -117.5t-234 -43.5q-65 0 -129.5 14t-124.5 40.5t-111.5 62t-86.5 79.5zM0 0zM510 1588l209 277q13 16 25.5 26t26 14.5t29.5 5.5t38 1h321l-336 -292q-13 -11 -24 -17.5t-23 -9.5t-24.5 -4t-29.5 -1h-212z" />
<glyph unicode="&#x15b;" horiz-adv-x="840" d="M-34 115l78 116q14 20 33 32t47 12q26 0 44 -12t39.5 -26.5t51.5 -26.5t78 -12q68 0 100.5 30t32.5 71q0 32 -17 52.5t-44.5 35t-62.5 26.5t-71.5 26.5t-71.5 33.5t-62.5 47.5t-44.5 70.5t-17 101q0 74 27 143.5t81 123.5t133.5 86.5t186.5 32.5q106 0 189.5 -36.5 t138.5 -90.5l-82 -112q-14 -18 -26.5 -26.5t-33.5 -8.5q-20 0 -40 9t-43 21t-52.5 21t-67.5 9q-71 0 -101 -27t-30 -70q0 -28 17 -47.5t45 -34.5t63 -28t72 -29t72.5 -36.5t63 -50t44.5 -70.5t17 -97q0 -80 -32 -151t-91.5 -124t-144 -84t-189.5 -31q-50 0 -99.5 10 t-93 27.5t-79 41.5t-58.5 52zM0 0zM383 1196l155 251q19 30 43.5 45.5t68.5 15.5h283l-277 -269q-24 -24 -44.5 -33.5t-53.5 -9.5h-175z" />
<glyph unicode="&#x15c;" horiz-adv-x="1071" d="M-18 180l118 156q14 17 35.5 28.5t42.5 11.5q29 0 56 -20t60 -44t76.5 -44t106.5 -20q93 0 144 50.5t51 150.5q0 46 -23 75.5t-60.5 50t-85.5 36.5t-98.5 34.5t-98.5 43.5t-85.5 65.5t-60.5 99t-23 144.5q0 99 37.5 191t107 162.5t169 112.5t223.5 42q63 0 123 -13 t112.5 -36.5t95.5 -56t72 -70.5l-100 -137q-18 -24 -35.5 -35.5t-42.5 -11.5q-24 0 -47.5 15.5t-52.5 33.5t-67 33.5t-89 15.5q-47 0 -82.5 -13t-59 -37t-35 -55.5t-11.5 -69.5q0 -41 23 -68.5t61.5 -48.5t86.5 -38.5t98.5 -38t99 -47t87 -66.5t61.5 -96.5t23 -135.5 q0 -113 -38.5 -212t-111.5 -173t-177 -117.5t-234 -43.5q-65 0 -129.5 14t-124.5 40.5t-111.5 62t-86.5 79.5zM0 0zM335 1588l262 285h265l199 -285h-211q-9 0 -19.5 1t-22.5 5.5t-23.5 14t-21.5 26.5l-39 80l-15 26l-19 -26l-55 -80q-31 -34 -56 -40.5t-43 -6.5h-201z" />
<glyph unicode="&#x15d;" horiz-adv-x="840" d="M-34 115l78 116q14 20 33 32t47 12q26 0 44 -12t39.5 -26.5t51.5 -26.5t78 -12q68 0 100.5 30t32.5 71q0 32 -17 52.5t-44.5 35t-62.5 26.5t-71.5 26.5t-71.5 33.5t-62.5 47.5t-44.5 70.5t-17 101q0 74 27 143.5t81 123.5t133.5 86.5t186.5 32.5q106 0 189.5 -36.5 t138.5 -90.5l-82 -112q-14 -18 -26.5 -26.5t-33.5 -8.5q-20 0 -40 9t-43 21t-52.5 21t-67.5 9q-71 0 -101 -27t-30 -70q0 -28 17 -47.5t45 -34.5t63 -28t72 -29t72.5 -36.5t63 -50t44.5 -70.5t17 -97q0 -80 -32 -151t-91.5 -124t-144 -84t-189.5 -31q-50 0 -99.5 10 t-93 27.5t-79 41.5t-58.5 52zM0 0zM177 1196l254 296h275l186 -296h-193q-17 0 -32.5 5.5t-30.5 23.5l-61 85q-5 6 -10 13t-11 15q-15 -18 -26 -28l-82 -85q-15 -14 -32.5 -21.5t-35.5 -7.5h-201z" />
<glyph unicode="&#x15e;" horiz-adv-x="1071" d="M-18 180l118 156q14 17 35.5 28.5t42.5 11.5q29 0 56 -20t60 -44t76.5 -44t106.5 -20q93 0 144 50.5t51 150.5q0 46 -23 75.5t-60.5 50t-85.5 36.5t-98.5 34.5t-98.5 43.5t-85.5 65.5t-60.5 99t-23 144.5q0 99 37.5 191t107 162.5t169 112.5t223.5 42q63 0 123 -13 t112.5 -36.5t95.5 -56t72 -70.5l-100 -137q-18 -24 -35.5 -35.5t-42.5 -11.5q-24 0 -47.5 15.5t-52.5 33.5t-67 33.5t-89 15.5q-47 0 -82.5 -13t-59 -37t-35 -55.5t-11.5 -69.5q0 -41 23 -68.5t61.5 -48.5t86.5 -38.5t98.5 -38t99 -47t87 -66.5t61.5 -96.5t23 -135.5 q0 -103 -33 -195.5t-95 -165t-151 -120t-201 -60.5l-15 -40q39 -11 65 -26.5t42 -33.5t22.5 -38t6.5 -41q0 -41 -21 -73.5t-58.5 -55t-89 -34.5t-114.5 -12q-39 0 -70.5 4.5t-67.5 12.5l41 95q9 28 38 28q14 0 25.5 -3.5t26.5 -3.5q24 0 33 10.5t9 21.5q0 20 -25.5 30.5 t-89.5 21.5l63 140q-52 8 -103.5 25.5t-97.5 41.5t-85.5 54.5t-67.5 66.5z" />
<glyph unicode="&#x15f;" horiz-adv-x="840" d="M-34 115l78 116q14 20 33 32t47 12q26 0 44 -12t39.5 -26.5t51.5 -26.5t78 -12q68 0 100.5 30t32.5 71q0 32 -17 52.5t-44.5 35t-62.5 26.5t-71.5 26.5t-71.5 33.5t-62.5 47.5t-44.5 70.5t-17 101q0 74 27 143.5t81 123.5t133.5 86.5t186.5 32.5q106 0 189.5 -36.5 t138.5 -90.5l-82 -112q-14 -18 -26.5 -26.5t-33.5 -8.5q-20 0 -40 9t-43 21t-52.5 21t-67.5 9q-71 0 -101 -27t-30 -70q0 -28 17 -47.5t45 -34.5t63 -28t72 -29t72.5 -36.5t63 -50t44.5 -70.5t17 -97q0 -71 -25 -134.5t-71.5 -114t-113 -85.5t-150.5 -48l-16 -43 q39 -11 65 -26.5t42 -33.5t22.5 -38t6.5 -41q0 -41 -21 -73.5t-58.5 -55t-89 -34.5t-114.5 -12q-39 0 -70.5 4.5t-67.5 12.5l41 95q9 28 38 28q14 0 25.5 -3.5t26.5 -3.5q24 0 33 10.5t9 21.5q0 20 -25.5 30.5t-88.5 21.5l62 139q-39 6 -75.5 18.5t-68.5 28t-58 35.5t-45 42 z" />
<glyph unicode="&#x160;" horiz-adv-x="1071" d="M-18 180l118 156q14 17 35.5 28.5t42.5 11.5q29 0 56 -20t60 -44t76.5 -44t106.5 -20q93 0 144 50.5t51 150.5q0 46 -23 75.5t-60.5 50t-85.5 36.5t-98.5 34.5t-98.5 43.5t-85.5 65.5t-60.5 99t-23 144.5q0 99 37.5 191t107 162.5t169 112.5t223.5 42q63 0 123 -13 t112.5 -36.5t95.5 -56t72 -70.5l-100 -137q-18 -24 -35.5 -35.5t-42.5 -11.5q-24 0 -47.5 15.5t-52.5 33.5t-67 33.5t-89 15.5q-47 0 -82.5 -13t-59 -37t-35 -55.5t-11.5 -69.5q0 -41 23 -68.5t61.5 -48.5t86.5 -38.5t98.5 -38t99 -47t87 -66.5t61.5 -96.5t23 -135.5 q0 -113 -38.5 -212t-111.5 -173t-177 -117.5t-234 -43.5q-65 0 -129.5 14t-124.5 40.5t-111.5 62t-86.5 79.5zM0 0zM347 1873h211q17 0 41 -4.5t40 -31.5l46 -91l13 -27l21 27l63 90q10 13 22.5 21t24.5 11.5t23 4t19 0.5h211l-262 -285h-275z" />
<glyph unicode="&#x161;" horiz-adv-x="840" d="M-34 115l78 116q14 20 33 32t47 12q26 0 44 -12t39.5 -26.5t51.5 -26.5t78 -12q68 0 100.5 30t32.5 71q0 32 -17 52.5t-44.5 35t-62.5 26.5t-71.5 26.5t-71.5 33.5t-62.5 47.5t-44.5 70.5t-17 101q0 74 27 143.5t81 123.5t133.5 86.5t186.5 32.5q106 0 189.5 -36.5 t138.5 -90.5l-82 -112q-14 -18 -26.5 -26.5t-33.5 -8.5q-20 0 -40 9t-43 21t-52.5 21t-67.5 9q-71 0 -101 -27t-30 -70q0 -28 17 -47.5t45 -34.5t63 -28t72 -29t72.5 -36.5t63 -50t44.5 -70.5t17 -97q0 -80 -32 -151t-91.5 -124t-144 -84t-189.5 -31q-50 0 -99.5 10 t-93 27.5t-79 41.5t-58.5 52zM0 0zM199 1492h202q17 0 31.5 -5.5t21.5 -13.5l70 -94q5 -7 10.5 -14.5t11.5 -15.5q13 16 27 30l89 94q9 6 25.5 12.5t34.5 6.5h193l-254 -296h-275z" />
<glyph unicode="&#x162;" horiz-adv-x="1161" d="M105 1228l33 264h1096l-35 -264h-379l-151 -1228h-84l-20 -51q39 -11 65 -26.5t42 -33.5t22.5 -38t6.5 -41q0 -41 -21 -73.5t-58 -55t-89 -34.5t-114 -12q-39 0 -71 4.5t-67 12.5l41 95q8 28 37 28q14 0 25.5 -3.5t27.5 -3.5q24 0 33 10.5t9 21.5q0 20 -26 30.5t-89 21.5 l67 148h-69l149 1228h-381z" />
<glyph unicode="&#x163;" horiz-adv-x="771" d="M60 905l15 124l161 33l89 259q17 49 69 49h172l-39 -310h238l-27 -217h-237l-51 -417q-5 -42 -8.5 -66t-5 -37t-1.5 -17.5v-5.5q0 -30 14 -50t44 -20q16 0 26.5 4t19 8.5t15.5 8t16 3.5q14 0 21 -6.5t14 -21.5l70 -150q-52 -38 -110 -60t-120 -29l-14 -38 q39 -11 65 -26.5t42 -33.5t22.5 -38t6.5 -41q0 -41 -21 -73.5t-58 -55t-89 -34.5t-114 -12q-39 0 -71 4.5t-68 12.5l41 95q9 28 38 28q14 0 25.5 -3.5t27.5 -3.5q24 0 32.5 10.5t8.5 21.5q0 20 -25.5 30.5t-88.5 21.5l68 151q-71 27 -110.5 85t-42.5 141v17.5t1.5 29.5t5 50 t9.5 83l54 434h-85q-22 0 -36 15.5t-9 46.5z" />
<glyph unicode="&#x164;" horiz-adv-x="1161" d="M105 0zM105 1228l33 264h1096l-35 -264h-379l-151 -1228h-332l149 1228h-381zM353 1873h211q17 0 41 -4.5t40 -31.5l46 -91l13 -27l21 27l63 90q10 13 22.5 21t24.5 11.5t23 4t19 0.5h211l-262 -285h-275z" />
<glyph unicode="&#x165;" horiz-adv-x="769" d="M59 905l15 124l160 33l90 259q17 49 69 49h172l-39 -310h238l-27 -217h-237l-51 -417q-5 -42 -8.5 -66t-5 -37t-1.5 -17.5v-5.5q0 -30 14 -50t44 -20q16 0 26.5 4t19 8.5t15.5 8t16 3.5q14 0 21 -6.5t14 -21.5l70 -150q-63 -46 -136 -69t-147 -23q-61 0 -110.5 16.5 t-84.5 49t-55 77.5t-22 102v17.5t1.5 29.5t5 50t9.5 83l54 434h-85q-22 0 -36 15.5t-9 46.5zM602 1166l109 367h176q28 0 35.5 -11.5t7.5 -22.5q0 -9 -3 -22t-17 -41.5t-41.5 -80t-77.5 -137.5q-20 -34 -46 -43t-65 -9h-78z" />
<glyph unicode="&#x166;" horiz-adv-x="1185" d="M118 1228l33 264h1095l-35 -264h-378l-45 -354h280l-22 -183h-280l-85 -691h-332l84 691h-280l22 183h281l43 354h-381z" />
<glyph unicode="&#x167;" horiz-adv-x="777" d="M18 589l17 124h144l17 130h-85q-22 0 -36.5 15.5t-8.5 46.5l14 124l161 33l89 259q17 49 69 49h172l-39 -310h238l-27 -217h-237l-17 -130h240l-24 -189h-238l-12 -98q-5 -42 -8.5 -66t-5 -37t-1.5 -17.5v-5.5q0 -30 14 -50t44 -20q16 0 27 4t19 8.5t15 8t16 3.5 q14 0 21 -6.5t14 -21.5l70 -150q-63 -46 -136 -69t-147 -23q-61 0 -110 16.5t-84.5 49t-55.5 77.5t-22 102v17.5t1.5 29.5t5 50t9.5 83l15 115h-84q-24 0 -40.5 17.5t-13.5 47.5z" />
<glyph unicode="&#x168;" horiz-adv-x="1429" d="M99 0zM117 605l106 887h334l-108 -887q-9 -79 1 -142.5t38 -108t74 -68.5t108 -24t114 24t90.5 68.5t64 108t34.5 142.5l108 887h334l-108 -887q-17 -136 -72 -250t-142.5 -196.5t-203.5 -128.5t-254 -46t-242.5 46t-171.5 128.5t-94.5 196.5t-9.5 250zM474 1578 q6 56 26.5 108.5t52.5 93.5t75 65.5t96 24.5t88.5 -15.5t62.5 -34.5t48 -34.5t46 -15.5q20 0 35.5 9t26 23t16 29.5t7.5 30.5h177q-6 -56 -26 -108.5t-52 -93t-75 -64.5t-96 -24q-52 0 -87.5 15.5t-63 34t-49 34t-45.5 15.5q-20 0 -35.5 -9t-26 -23t-16 -30.5t-6.5 -30.5 h-179z" />
<glyph unicode="&#x169;" horiz-adv-x="1128" d="M50 0zM62 388l80 674h318l-80 -674q-5 -43 -3.5 -72.5t10.5 -47.5t25 -26t40 -8q32 0 67 19t68 53.5t61 83.5t46 110l69 562h317l-129 -1062h-161q-113 0 -113 104v68q-77 -96 -165 -142t-183 -46q-67 0 -121 26.5t-90.5 78t-52 127t-3.5 172.5zM310 1216 q7 65 30.5 116.5t57 88.5t75.5 57t87 20q35 0 64 -11.5t53.5 -26t44 -26.5t35.5 -12q23 0 38 13t20 55h177q-8 -65 -30.5 -116.5t-55.5 -88t-75 -56t-88 -19.5q-35 0 -64 12t-53.5 26.5t-44 26t-35.5 11.5q-24 0 -37.5 -14t-18.5 -56h-180z" />
<glyph unicode="&#x16a;" horiz-adv-x="1429" d="M99 0zM117 605l106 887h334l-108 -887q-9 -79 1 -142.5t38 -108t74 -68.5t108 -24t114 24t90.5 68.5t64 108t34.5 142.5l108 887h334l-108 -887q-17 -136 -72 -250t-142.5 -196.5t-203.5 -128.5t-254 -46t-242.5 46t-171.5 128.5t-94.5 196.5t-9.5 250zM529 1593l21 174 h603l-21 -174h-603z" />
<glyph unicode="&#x16b;" horiz-adv-x="1128" d="M50 0zM62 388l80 674h318l-80 -674q-5 -43 -3.5 -72.5t10.5 -47.5t25 -26t40 -8q32 0 67 19t68 53.5t61 83.5t46 110l69 562h317l-129 -1062h-161q-113 0 -113 104v68q-77 -96 -165 -142t-183 -46q-67 0 -121 26.5t-90.5 78t-52 127t-3.5 172.5zM345 1230l23 194h584 l-23 -194h-584z" />
<glyph unicode="&#x16c;" horiz-adv-x="1429" d="M99 0zM117 605l106 887h334l-108 -887q-9 -79 1 -142.5t38 -108t74 -68.5t108 -24t114 24t90.5 68.5t64 108t34.5 142.5l108 887h334l-108 -887q-17 -136 -72 -250t-142.5 -196.5t-203.5 -128.5t-254 -46t-242.5 46t-171.5 128.5t-94.5 196.5t-9.5 250zM526 1872h222 q-5 -50 16.5 -78t87.5 -28t93 28t32 78h223q-7 -67 -38 -120t-80 -90.5t-113.5 -57.5t-138.5 -20t-134 17t-100.5 52.5t-59 89.5t-10.5 129z" />
<glyph unicode="&#x16d;" horiz-adv-x="1128" d="M50 0zM62 388l80 674h318l-80 -674q-5 -43 -3.5 -72.5t10.5 -47.5t25 -26t40 -8q32 0 67 19t68 53.5t61 83.5t46 110l69 562h317l-129 -1062h-161q-113 0 -113 104v68q-77 -96 -165 -142t-183 -46q-67 0 -121 26.5t-90.5 78t-52 127t-3.5 172.5zM359 1492h203 q-3 -28 -1.5 -49.5t12 -35t30.5 -21t53 -7.5q32 0 53 7.5t34 21t20 35t10 49.5h203q-7 -62 -28 -117.5t-62 -97t-103 -66t-150 -24.5t-145 24.5t-87.5 66t-40 97t-1.5 117.5z" />
<glyph unicode="&#x16e;" horiz-adv-x="1429" d="M99 0zM117 605l106 887h334l-108 -887q-9 -79 1 -142.5t38 -108t74 -68.5t108 -24t114 24t90.5 68.5t64 108t34.5 142.5l108 887h334l-108 -887q-17 -136 -72 -250t-142.5 -196.5t-203.5 -128.5t-254 -46t-242.5 46t-171.5 128.5t-94.5 196.5t-9.5 250zM637 1755 q5 47 27.5 85.5t54 65.5t71 42t80.5 15q43 0 80.5 -15t64 -42t39.5 -65.5t7 -85.5q-5 -45 -26.5 -82.5t-53.5 -64t-73 -41t-84 -14.5q-41 0 -77.5 14.5t-62.5 41t-39 64t-8 82.5zM776 1755q-4 -36 11.5 -59t54.5 -23q34 0 56 23t26 59q4 39 -13.5 61.5t-50.5 22.5 q-38 0 -59 -22.5t-25 -61.5z" />
<glyph unicode="&#x16f;" horiz-adv-x="1128" d="M50 0zM62 388l80 674h318l-80 -674q-5 -43 -3.5 -72.5t10.5 -47.5t25 -26t40 -8q32 0 67 19t68 53.5t61 83.5t46 110l69 562h317l-129 -1062h-161q-113 0 -113 104v68q-77 -96 -165 -142t-183 -46q-67 0 -121 26.5t-90.5 78t-52 127t-3.5 172.5zM423 1366q6 51 29 92.5 t58 71.5t78.5 45.5t88.5 15.5q46 0 86.5 -15.5t69.5 -45.5t43.5 -71.5t8.5 -92.5q-6 -50 -29.5 -90.5t-59 -69t-79.5 -44.5t-91 -16q-45 0 -84.5 16t-67.5 44.5t-42.5 69t-8.5 90.5zM580 1366q-4 -36 11.5 -59t54.5 -23q34 0 56 23t26 59q5 39 -13 61.5t-51 22.5 q-39 0 -59 -22.5t-25 -61.5z" />
<glyph unicode="&#x170;" horiz-adv-x="1429" d="M99 0zM117 605l106 887h334l-108 -887q-9 -79 1 -142.5t38 -108t74 -68.5t108 -24t114 24t90.5 68.5t64 108t34.5 142.5l108 887h334l-108 -887q-17 -136 -72 -250t-142.5 -196.5t-203.5 -128.5t-254 -46t-242.5 46t-171.5 128.5t-94.5 196.5t-9.5 250zM544 1588l147 223 q19 29 49 45.5t74 16.5h188l-222 -241q-25 -20 -45 -32t-53 -12h-138zM855 1588l195 223q25 27 56 44.5t75 17.5h218l-280 -241q-26 -22 -50.5 -33t-57.5 -11h-156z" />
<glyph unicode="&#x171;" horiz-adv-x="1128" d="M50 0zM62 388l80 674h318l-80 -674q-5 -43 -3.5 -72.5t10.5 -47.5t25 -26t40 -8q32 0 67 19t68 53.5t61 83.5t46 110l69 562h317l-129 -1062h-161q-113 0 -113 104v68q-77 -96 -165 -142t-183 -46q-67 0 -121 26.5t-90.5 78t-52 127t-3.5 172.5zM365 1196l138 251 q17 30 42 45.5t69 15.5h188l-219 -269q-22 -26 -44.5 -34.5t-55.5 -8.5h-118zM647 1196l195 251q10 14 21 25.5t23 19.5t28.5 12t37.5 4h208l-276 -269q-24 -24 -45 -33.5t-53 -9.5h-139z" />
<glyph unicode="&#x172;" horiz-adv-x="1429" d="M117 605l106 887h334l-108 -887q-9 -79 1 -142.5t38 -108t73.5 -68.5t108.5 -24q62 0 114 24t90.5 68.5t64 108t34.5 142.5l108 887h334l-108 -887q-14 -117 -57.5 -217t-110.5 -179t-156 -132.5t-197 -76.5l6 -1q-43 -24 -71.5 -57.5t-28.5 -76.5q0 -20 9 -32.5 t29 -12.5q12 0 20 1t12.5 2.5t8 3t8.5 1.5q23 0 26 -19l33 -114q-36 -22 -88.5 -36.5t-109.5 -14.5q-97 0 -145.5 38.5t-48.5 98.5q0 52 31.5 104.5t107.5 100.5q-126 8 -221 57t-155.5 131t-84.5 191.5t-7 239.5z" />
<glyph unicode="&#x173;" horiz-adv-x="1128" d="M62 388l80 674h318l-80 -674q-5 -43 -3.5 -72.5t10.5 -47.5t25 -26t40 -8q32 0 67 19t68 53.5t61 83.5t46 110l69 562h317l-129 -1062h-44q-43 -24 -71 -57.5t-28 -76.5q0 -20 8.5 -32.5t29.5 -12.5q12 0 19.5 1t12.5 2.5t8.5 3t8.5 1.5q23 0 26 -19l32 -114 q-36 -22 -88 -36.5t-109 -14.5q-97 0 -145.5 38.5t-48.5 98.5q0 58 40 116t134 109q-59 22 -59 97v68q-77 -96 -165 -142t-183 -46q-67 0 -121 26.5t-90.5 78t-52 127t-3.5 172.5z" />
<glyph unicode="&#x174;" horiz-adv-x="2009" d="M101 0zM101 1492h263q43 0 69 -20t31 -53l104 -804l13 -171q15 48 31 91.5t32 79.5l305 804q6 13 17.5 26.5t27 24t34 16.5t38.5 6h78q43 0 68 -20.5t34 -52.5l115 -804q6 -36 11 -78t9 -88q14 46 27 88t27 78l295 804q4 14 15.5 27.5t27.5 23.5t35.5 16t39.5 6h265 l-609 -1492h-303l-137 942q-4 23 -7.5 50t-6.5 57q-11 -30 -21.5 -57t-19.5 -50l-365 -942h-301zM764 1588l262 285h265l199 -285h-211q-9 0 -19.5 1t-22.5 5.5t-23.5 14t-21.5 26.5l-39 80l-15 26l-19 -26l-55 -80q-31 -34 -56 -40.5t-43 -6.5h-201z" />
<glyph unicode="&#x175;" horiz-adv-x="1538" d="M51 0zM51 1062h244q31 0 51 -16t25 -39l30 -477q3 -53 6 -103t4 -99q18 49 38.5 99.5t42.5 102.5l178 478q9 24 32.5 39.5t51.5 15.5h137q33 0 53 -16t23 -39l61 -478q8 -52 14.5 -102t11.5 -99q14 49 30 98.5t34 102.5l150 477q8 24 31 39.5t51 15.5h233l-432 -1062 h-248q-18 0 -30 12.5t-17 40.5l-78 530q-4 23 -6 44.5t-4 44.5q-8 -24 -17 -46.5t-18 -44.5l-203 -528q-22 -53 -67 -53h-238zM477 1196l254 296h275l186 -296h-193q-17 0 -32.5 5.5t-30.5 23.5l-61 85q-5 6 -10 13t-11 15q-15 -18 -26 -28l-82 -85q-15 -14 -32.5 -21.5 t-35.5 -7.5h-201z" />
<glyph unicode="&#x176;" horiz-adv-x="1291" d="M87 0zM87 1492h297q43 0 67 -20t35 -53l144 -451q31 -88 46 -166q19 39 42 79.5t51 86.5l254 451q17 27 46 50t71 23h276l-611 -921l-71 -571h-334l71 568zM401 1588l262 285h265l199 -285h-211q-9 0 -19.5 1t-22.5 5.5t-23.5 14t-21.5 26.5l-39 80l-15 26l-19 -26 l-55 -80q-31 -34 -56 -40.5t-43 -6.5h-201z" />
<glyph unicode="&#x177;" horiz-adv-x="1030" d="M49 0zM49 1062h268q34 0 51 -16.5t23 -38.5l92 -458q6 -30 11.5 -59t8.5 -59q12 30 26 60l28 60l197 456q12 24 35.5 39.5t48.5 15.5h256l-688 -1338q-33 -60 -99 -61h-237l242 432zM230 1196l254 296h275l186 -296h-193q-17 0 -32.5 5.5t-30.5 23.5l-61 85q-5 6 -10 13 t-11 15q-15 -18 -26 -28l-82 -85q-15 -14 -32.5 -21.5t-35.5 -7.5h-201z" />
<glyph unicode="&#x178;" horiz-adv-x="1291" d="M87 0zM87 1492h297q43 0 67 -20t35 -53l144 -451q31 -88 46 -166q19 39 42 79.5t51 86.5l254 451q17 27 46 50t71 23h276l-611 -921l-71 -571h-334l71 568zM391 1706q0 34 13.5 63t35.5 51.5t51 35.5t62 13q35 0 65 -13t53.5 -35.5t36.5 -51.5t13 -63q0 -33 -13 -61.5 t-36.5 -49.5t-53.5 -33.5t-65 -12.5q-33 0 -62 12.5t-51 33.5t-35.5 49.5t-13.5 61.5zM817 1706q0 34 13 63t35.5 51.5t52 35.5t63.5 13q35 0 65 -13t53 -35.5t35.5 -51.5t12.5 -63q0 -33 -12.5 -61.5t-35.5 -49.5t-53 -33.5t-65 -12.5q-34 0 -63.5 12.5t-52 33.5 t-35.5 49.5t-13 61.5z" />
<glyph unicode="&#x179;" horiz-adv-x="1159" d="M-48 0l12 98q3 20 13 39t22 36l755 1062h-597l32 257h1033l-15 -100q-3 -20 -12.5 -39t-22.5 -36l-753 -1060h631l-33 -257h-1065zM0 0zM520 1588l209 277q13 16 25.5 26t26 14.5t29.5 5.5t38 1h321l-336 -292q-13 -11 -24 -17.5t-23 -9.5t-24.5 -4t-29.5 -1h-212z" />
<glyph unicode="&#x17a;" horiz-adv-x="903" d="M-32 0l17 129q2 19 15.5 49t35.5 55l463 593h-404l29 236h776l-16 -127q-3 -33 -18.5 -63t-32.5 -51l-459 -585h418l-29 -236h-795zM0 0zM394 1196l155 251q19 30 43.5 45.5t68.5 15.5h283l-277 -269q-24 -24 -44.5 -33.5t-53.5 -9.5h-175z" />
<glyph unicode="&#x17b;" horiz-adv-x="1159" d="M-48 0l12 98q3 20 13 39t22 36l755 1062h-597l32 257h1033l-15 -100q-3 -20 -12.5 -39t-22.5 -36l-753 -1060h631l-33 -257h-1065zM0 0zM553 1740q0 38 15.5 71.5t41.5 59t59 40.5t68 15q37 0 71 -15t60 -40t42 -59t16 -72t-16.5 -72t-43 -59t-61 -39t-70.5 -14t-68.5 14 t-57.5 39t-40.5 59t-15.5 72z" />
<glyph unicode="&#x17c;" horiz-adv-x="903" d="M-32 0l17 129q2 19 15.5 49t35.5 55l463 593h-404l29 236h776l-16 -127q-3 -33 -18.5 -63t-32.5 -51l-459 -585h418l-29 -236h-795zM0 0zM370 1353q0 38 15.5 71.5t41.5 59t59 40.5t68 15q37 0 71 -14.5t60 -40t42 -59t16 -72.5q0 -38 -16.5 -71.5t-43 -58.5t-61 -40 t-70.5 -15t-68.5 15t-57.5 40t-40.5 58.5t-15.5 71.5z" />
<glyph unicode="&#x17d;" horiz-adv-x="1159" d="M-48 0l12 98q3 20 13 39t22 36l755 1062h-597l32 257h1033l-15 -100q-3 -20 -12.5 -39t-22.5 -36l-753 -1060h631l-33 -257h-1065zM0 0zM376 1873h211q17 0 41 -4.5t40 -31.5l46 -91l13 -27l21 27l63 90q10 13 22.5 21t24.5 11.5t23 4t19 0.5h211l-262 -285h-275z" />
<glyph unicode="&#x17e;" horiz-adv-x="903" d="M-32 0l17 129q2 19 15.5 49t35.5 55l463 593h-404l29 236h776l-16 -127q-3 -33 -18.5 -63t-32.5 -51l-459 -585h418l-29 -236h-795zM0 0zM210 1492h202q17 0 31.5 -5.5t21.5 -13.5l70 -94q5 -7 10.5 -14.5t11.5 -15.5q13 16 27 30l89 94q9 6 25.5 12.5t34.5 6.5h193 l-254 -296h-275z" />
<glyph unicode="&#x17f;" horiz-adv-x="631" d="M63 935l15 121h155l9 64q11 91 47.5 165t94 125.5t135 80t171.5 28.5q37 0 66.5 -6t62.5 -15l-28 -153q-5 -26 -28 -33t-46 -7q-39 0 -67 -10.5t-48 -33.5t-32.5 -60.5t-18.5 -90.5l-127 -1059l-55 -178q-20 -58 -57.5 -91.5t-106.5 -33.5h-129l132 1096l-77 18 q-34 7 -53.5 23.5t-14.5 49.5z" />
<glyph unicode="&#x192;" horiz-adv-x="680" d="M-245 -361l50 129q14 35 33 45.5t40 10.5q8 0 15 -1.5l14 -3t15.5 -3t21.5 -1.5q61 0 94.5 41t44.5 131l11 97l93 766l-58 13q-33 6 -52.5 23.5t-14.5 50.5l16 120h135l8 64q11 90 47.5 164t94.5 125.5t135 80t172 28.5q36 0 65.5 -5t62.5 -14l-26 -149q-3 -16 -11 -27 t-19.5 -17.5t-23.5 -9t-24 -2.5q-39 0 -69 -8.5t-52 -29.5t-36.5 -57t-20.5 -89l-7 -54h224l-26 -210h-213l-94 -763h-1l-6 -62q-11 -92 -43.5 -170.5t-87 -135.5t-133.5 -88.5t-184 -31.5q-29 0 -53 2.5t-46 7.5t-44 13t-47 20z" />
<glyph unicode="&#x218;" horiz-adv-x="1071" d="M-18 180l118 156q14 17 35.5 28.5t42.5 11.5q29 0 56 -20t60 -44t76.5 -44t106.5 -20q93 0 144 50.5t51 150.5q0 46 -23 75.5t-60.5 50t-85.5 36.5t-98.5 34.5t-98.5 43.5t-85.5 65.5t-60.5 99t-23 144.5q0 99 37.5 191t107 162.5t169 112.5t223.5 42q63 0 123 -13 t112.5 -36.5t95.5 -56t72 -70.5l-100 -137q-18 -24 -35.5 -35.5t-42.5 -11.5q-24 0 -47.5 15.5t-52.5 33.5t-67 33.5t-89 15.5q-47 0 -82.5 -13t-59 -37t-35 -55.5t-11.5 -69.5q0 -41 23 -68.5t61.5 -48.5t86.5 -38.5t98.5 -38t99 -47t87 -66.5t61.5 -96.5t23 -135.5 q0 -113 -38.5 -212t-111.5 -173t-177 -117.5t-234 -43.5q-65 0 -129.5 14t-124.5 40.5t-111.5 62t-86.5 79.5zM0 0zM253 -397l88 310h195q28 0 35.5 -12t7.5 -23t-3.5 -28t-14.5 -43t-29.5 -63t-50.5 -88q-20 -34 -47.5 -43.5t-67.5 -9.5h-113z" />
<glyph unicode="&#x219;" horiz-adv-x="840" d="M-34 115l78 116q14 20 33 32t47 12q26 0 44 -12t39.5 -26.5t51.5 -26.5t78 -12q68 0 100.5 30t32.5 71q0 32 -17 52.5t-44.5 35t-62.5 26.5t-71.5 26.5t-71.5 33.5t-62.5 47.5t-44.5 70.5t-17 101q0 74 27 143.5t81 123.5t133.5 86.5t186.5 32.5q106 0 189.5 -36.5 t138.5 -90.5l-82 -112q-14 -18 -26.5 -26.5t-33.5 -8.5q-20 0 -40 9t-43 21t-52.5 21t-67.5 9q-71 0 -101 -27t-30 -70q0 -28 17 -47.5t45 -34.5t63 -28t72 -29t72.5 -36.5t63 -50t44.5 -70.5t17 -97q0 -80 -32 -151t-91.5 -124t-144 -84t-189.5 -31q-50 0 -99.5 10 t-93 27.5t-79 41.5t-58.5 52zM0 0zM118 -397l88 310h195q28 0 35.5 -12t7.5 -23t-3.5 -28t-14.5 -43t-29.5 -63t-50.5 -88q-20 -34 -47.5 -43.5t-67.5 -9.5h-113z" />
<glyph unicode="&#x21a;" horiz-adv-x="1161" d="M105 0zM105 1228l33 264h1096l-35 -264h-379l-151 -1228h-332l149 1228h-381zM283 -397l88 310h195q28 0 35.5 -12t7.5 -23t-3.5 -28t-14.5 -43t-29.5 -63t-50.5 -88q-20 -34 -47.5 -43.5t-67.5 -9.5h-113z" />
<glyph unicode="&#x21b;" horiz-adv-x="770" d="M54 0zM59 905l15 124l160 33l90 259q17 49 69 49h172l-39 -310h238l-27 -217h-237l-51 -417q-5 -42 -8.5 -66t-5 -37t-1.5 -17.5v-5.5q0 -30 14 -50t44 -20q16 0 26.5 4t19 8.5t15.5 8t16 3.5q14 0 21 -6.5t14 -21.5l70 -150q-63 -46 -136 -69t-147 -23 q-61 0 -110.5 16.5t-84.5 49t-55 77.5t-22 102v17.5t1.5 29.5t5 50t9.5 83l54 434h-85q-22 0 -36 15.5t-9 46.5zM151 -397l88 310h195q28 0 35.5 -12t7.5 -23t-3.5 -28t-14.5 -43t-29.5 -63t-50.5 -88q-20 -34 -47.5 -43.5t-67.5 -9.5h-113z" />
<glyph unicode="&#x237;" horiz-adv-x="528" d="M-191 -347l30 167q5 22 18.5 32t47.5 10q33 0 55 6t36 21.5t22.5 41.5t13.5 67l129 1064h311l-129 -1064q-9 -75 -37 -141t-77 -115.5t-118.5 -78.5t-160.5 -29q-45 0 -77 5t-64 14z" />
<glyph unicode="&#x2c6;" horiz-adv-x="753" d="M154 1196l254 296h275l186 -296h-193q-17 0 -32.5 5.5t-30.5 23.5l-61 85q-5 6 -10 13t-11 15q-15 -18 -26 -28l-82 -85q-15 -14 -32.5 -21.5t-35.5 -7.5h-201z" />
<glyph unicode="&#x2c7;" horiz-adv-x="753" d="M187 1492h202q17 0 31.5 -5.5t21.5 -13.5l70 -94q5 -7 10.5 -14.5t11.5 -15.5q13 16 27 30l89 94q9 6 25.5 12.5t34.5 6.5h193l-254 -296h-275z" />
<glyph unicode="&#x2d8;" horiz-adv-x="753" d="M237 1492h203q-3 -28 -1.5 -49.5t12 -35t30.5 -21t53 -7.5q32 0 53 7.5t34 21t20 35t10 49.5h203q-7 -62 -28 -117.5t-62 -97t-103 -66t-150 -24.5t-145 24.5t-87.5 66t-40 97t-1.5 117.5z" />
<glyph unicode="&#x2d9;" horiz-adv-x="753" d="M347 1353q0 38 15.5 71.5t41.5 59t59 40.5t68 15q37 0 71 -14.5t60 -40t42 -59t16 -72.5q0 -38 -16.5 -71.5t-43 -58.5t-61 -40t-70.5 -15t-68.5 15t-57.5 40t-40.5 58.5t-15.5 71.5z" />
<glyph unicode="&#x2da;" horiz-adv-x="753" d="M301 1366q6 51 29 92.5t58 71.5t78.5 45.5t88.5 15.5q46 0 86.5 -15.5t69.5 -45.5t43.5 -71.5t8.5 -92.5q-6 -50 -29.5 -90.5t-59 -69t-79.5 -44.5t-91 -16q-45 0 -84.5 16t-67.5 44.5t-42.5 69t-8.5 90.5zM458 1366q-4 -36 11.5 -59t54.5 -23q34 0 56 23t26 59 q5 39 -13 61.5t-51 22.5q-39 0 -59 -22.5t-25 -61.5z" />
<glyph unicode="&#x2db;" horiz-adv-x="753" d="M155 -218q0 30 9.5 59.5t31.5 58.5t57 57.5t85 54.5l162 -12q-43 -24 -71.5 -57.5t-28.5 -76.5q0 -20 9 -32.5t29 -12.5q12 0 20 1t12.5 2.5t8 3t8.5 1.5q23 0 26 -19l33 -114q-36 -22 -88 -36.5t-110 -14.5q-97 0 -145 38.5t-48 98.5z" />
<glyph unicode="&#x2dc;" horiz-adv-x="753" d="M189 1214q7 65 30.5 116.5t57 88.5t75.5 57t87 20q35 0 64 -11.5t53.5 -26t44 -26.5t35.5 -12q23 0 38 13t20 55h177q-8 -65 -30.5 -116.5t-55.5 -88t-75 -56t-88 -19.5q-35 0 -64 12t-53.5 26.5t-44 26t-35.5 11.5q-24 0 -37.5 -14t-18.5 -56h-180z" />
<glyph unicode="&#x2dd;" horiz-adv-x="753" d="M244 1196l138 251q17 30 42 45.5t69 15.5h188l-219 -269q-22 -26 -44.5 -34.5t-55.5 -8.5h-118zM526 1196l195 251q10 14 21 25.5t23 19.5t28.5 12t37.5 4h208l-276 -269q-24 -24 -45 -33.5t-53 -9.5h-139z" />
<glyph unicode="&#x394;" horiz-adv-x="1397" d="M-100 0l753 1490h303l385 -1490h-1441zM359 255h587l-149 739q-8 33 -17 75t-17 91q-20 -50 -39 -92.5t-36 -75.5z" />
<glyph unicode="&#x3a9;" horiz-adv-x="1441" d="M18 100l21 165h334l15 122q-71 26 -123.5 70t-87.5 102t-51.5 128t-16.5 147q0 136 52 258t147 214.5t227.5 146t291.5 53.5q136 0 243.5 -43t180.5 -116t111.5 -170t38.5 -204q0 -100 -26.5 -194t-78 -172t-127.5 -135.5t-176 -87.5l-14 -119h336l-21 -165 q-5 -45 -38 -72.5t-85 -27.5h-481l70 548q59 10 113 37.5t95 77t65 122.5t24 174q0 136 -65 213t-197 77q-87 0 -152 -28.5t-108 -82.5t-64.5 -130.5t-21.5 -172.5q0 -67 16 -117t45.5 -85t68.5 -56t85 -29l-68 -548h-481q-51 0 -77 27.5t-20 72.5z" />
<glyph unicode="&#x3bc;" horiz-adv-x="1171" d="M-2 -210l156 1272h317l-76 -616l-1 -9q-7 -75 17 -120.5t79 -45.5q57 0 99 33.5t70 93.5l82 664h318l-89 -729q-13 -119 67 -119h85l-15 -122q-3 -19 -18.5 -37.5t-41.5 -33.5t-62 -23.5t-79 -8.5q-81 0 -140.5 46.5t-79.5 143.5q-54 -76 -114 -116t-134 -40 q-80 0 -133 35q6 -44 5 -91.5t-6 -89.5l-25 -214h-158q-67 0 -99 33t-24 94z" />
<glyph unicode="&#x3c0;" horiz-adv-x="1235" d="M-1 48l26 205h20q34 0 63.5 30t57 98.5t52.5 177t48 264.5h-182l16 130q2 17 13 36.5t28 35t39.5 26t49.5 10.5h1014l-18 -143q-5 -38 -33.5 -66.5t-74.5 -28.5h-109q-8 -63 -13 -153.5t-5 -222.5q0 -77 4.5 -122.5t13.5 -70.5t21 -32.5t28 -7.5h51l-15 -122 q-3 -25 -21 -43.5t-45.5 -31.5t-61.5 -19.5t-70 -6.5q-61 0 -106 20.5t-74 57.5t-43 89.5t-14 114.5q0 60 10 114.5t25.5 116.5t35 138.5t39.5 180.5h-228q-26 -176 -52.5 -306t-56 -222.5t-62.5 -151.5t-71.5 -93.5t-83.5 -47t-98 -12.5q-19 0 -41 3.5t-39.5 10t-28.5 18 t-9 26.5z" />
<glyph unicode="&#x1e80;" horiz-adv-x="2009" d="M101 0zM101 1492h263q43 0 69 -20t31 -53l104 -804l13 -171q15 48 31 91.5t32 79.5l305 804q6 13 17.5 26.5t27 24t34 16.5t38.5 6h78q43 0 68 -20.5t34 -52.5l115 -804q6 -36 11 -78t9 -88q14 46 27 88t27 78l295 804q4 14 15.5 27.5t27.5 23.5t35.5 16t39.5 6h265 l-609 -1492h-303l-137 942q-4 23 -7.5 50t-6.5 57q-11 -30 -21.5 -57t-19.5 -50l-365 -942h-301zM687 1912h303q22 0 37.5 -1.5t28 -6t22 -14t20.5 -25.5l165 -277h-213q-17 0 -29.5 0.5t-22.5 3.5t-18.5 9t-19.5 17z" />
<glyph unicode="&#x1e81;" horiz-adv-x="1538" d="M51 0zM51 1062h244q31 0 51 -16t25 -39l30 -477q3 -53 6 -103t4 -99q18 49 38.5 99.5t42.5 102.5l178 478q9 24 32.5 39.5t51.5 15.5h137q33 0 53 -16t23 -39l61 -478q8 -52 14.5 -102t11.5 -99q14 49 30 98.5t34 102.5l150 477q8 24 31 39.5t51 15.5h233l-432 -1062 h-248q-18 0 -30 12.5t-17 40.5l-78 530q-4 23 -6 44.5t-4 44.5q-8 -24 -17 -46.5t-18 -44.5l-203 -528q-22 -53 -67 -53h-238zM476 1508h273q44 0 64 -15.5t32 -45.5l100 -251h-166q-33 0 -52 9.5t-37 33.5z" />
<glyph unicode="&#x1e82;" horiz-adv-x="2009" d="M101 0zM101 1492h263q43 0 69 -20t31 -53l104 -804l13 -171q15 48 31 91.5t32 79.5l305 804q6 13 17.5 26.5t27 24t34 16.5t38.5 6h78q43 0 68 -20.5t34 -52.5l115 -804q6 -36 11 -78t9 -88q14 46 27 88t27 78l295 804q4 14 15.5 27.5t27.5 23.5t35.5 16t39.5 6h265 l-609 -1492h-303l-137 942q-4 23 -7.5 50t-6.5 57q-11 -30 -21.5 -57t-19.5 -50l-365 -942h-301zM948 1588l209 277q13 16 25.5 26t26 14.5t29.5 5.5t38 1h321l-336 -292q-13 -11 -24 -17.5t-23 -9.5t-24.5 -4t-29.5 -1h-212z" />
<glyph unicode="&#x1e83;" horiz-adv-x="1538" d="M51 0zM51 1062h244q31 0 51 -16t25 -39l30 -477q3 -53 6 -103t4 -99q18 49 38.5 99.5t42.5 102.5l178 478q9 24 32.5 39.5t51.5 15.5h137q33 0 53 -16t23 -39l61 -478q8 -52 14.5 -102t11.5 -99q14 49 30 98.5t34 102.5l150 477q8 24 31 39.5t51 15.5h233l-432 -1062 h-248q-18 0 -30 12.5t-17 40.5l-78 530q-4 23 -6 44.5t-4 44.5q-8 -24 -17 -46.5t-18 -44.5l-203 -528q-22 -53 -67 -53h-238zM704 1196l155 251q19 30 43.5 45.5t68.5 15.5h283l-277 -269q-24 -24 -44.5 -33.5t-53.5 -9.5h-175z" />
<glyph unicode="&#x1e84;" horiz-adv-x="2009" d="M101 0zM101 1492h263q43 0 69 -20t31 -53l104 -804l13 -171q15 48 31 91.5t32 79.5l305 804q6 13 17.5 26.5t27 24t34 16.5t38.5 6h78q43 0 68 -20.5t34 -52.5l115 -804q6 -36 11 -78t9 -88q14 46 27 88t27 78l295 804q4 14 15.5 27.5t27.5 23.5t35.5 16t39.5 6h265 l-609 -1492h-303l-137 942q-4 23 -7.5 50t-6.5 57q-11 -30 -21.5 -57t-19.5 -50l-365 -942h-301zM754 1706q0 34 13.5 63t35.5 51.5t51 35.5t62 13q35 0 65 -13t53.5 -35.5t36.5 -51.5t13 -63q0 -33 -13 -61.5t-36.5 -49.5t-53.5 -33.5t-65 -12.5q-33 0 -62 12.5t-51 33.5 t-35.5 49.5t-13.5 61.5zM1180 1706q0 34 13 63t35.5 51.5t52 35.5t63.5 13q35 0 65 -13t53 -35.5t35.5 -51.5t12.5 -63q0 -33 -12.5 -61.5t-35.5 -49.5t-53 -33.5t-65 -12.5q-34 0 -63.5 12.5t-52 33.5t-35.5 49.5t-13 61.5z" />
<glyph unicode="&#x1e85;" horiz-adv-x="1538" d="M51 0zM51 1062h244q31 0 51 -16t25 -39l30 -477q3 -53 6 -103t4 -99q18 49 38.5 99.5t42.5 102.5l178 478q9 24 32.5 39.5t51.5 15.5h137q33 0 53 -16t23 -39l61 -478q8 -52 14.5 -102t11.5 -99q14 49 30 98.5t34 102.5l150 477q8 24 31 39.5t51 15.5h233l-432 -1062 h-248q-18 0 -30 12.5t-17 40.5l-78 530q-4 23 -6 44.5t-4 44.5q-8 -24 -17 -46.5t-18 -44.5l-203 -528q-22 -53 -67 -53h-238zM473 1326q0 34 13 63.5t35 51.5t51.5 35t61.5 13q35 0 65.5 -13t53.5 -35t36 -51.5t13 -63.5q0 -33 -13 -61.5t-36 -49.5t-53.5 -33.5 t-65.5 -12.5q-33 0 -62 12.5t-51 33.5t-35 49.5t-13 61.5zM888 1326q0 34 13 63.5t35.5 51.5t52 35t63.5 13q35 0 65 -13t52.5 -35t35.5 -51.5t13 -63.5q0 -33 -13 -61.5t-35.5 -49.5t-52.5 -33.5t-65 -12.5q-34 0 -63.5 12.5t-52 33.5t-35.5 49.5t-13 61.5z" />
<glyph unicode="&#x2000;" horiz-adv-x="981" />
<glyph unicode="&#x2001;" horiz-adv-x="1963" />
<glyph unicode="&#x2002;" horiz-adv-x="981" />
<glyph unicode="&#x2003;" horiz-adv-x="1963" />
<glyph unicode="&#x2004;" horiz-adv-x="654" />
<glyph unicode="&#x2005;" horiz-adv-x="490" />
<glyph unicode="&#x2006;" horiz-adv-x="327" />
<glyph unicode="&#x2007;" horiz-adv-x="327" />
<glyph unicode="&#x2008;" horiz-adv-x="245" />
<glyph unicode="&#x2009;" horiz-adv-x="392" />
<glyph unicode="&#x200a;" horiz-adv-x="109" />
<glyph unicode="&#x2010;" horiz-adv-x="703" d="M78 498l31 247h514l-33 -247h-512z" />
<glyph unicode="&#x2011;" horiz-adv-x="703" d="M78 498l31 247h514l-33 -247h-512z" />
<glyph unicode="&#x2012;" horiz-adv-x="703" d="M78 498l31 247h514l-33 -247h-512z" />
<glyph unicode="&#x2013;" d="M191 515l27 210h774l-26 -210h-775z" />
<glyph unicode="&#x2014;" horiz-adv-x="1505" d="M84 515l27 210h1306l-26 -210h-1307z" />
<glyph unicode="&#x2018;" horiz-adv-x="446" d="M130 1150q-5 86 23 168.5t89 158.5t152 143l87 -55q9 -5 14.5 -15t5.5 -20q0 -14 -7.5 -24.5t-22.5 -27.5q-13 -15 -35 -47.5t-36.5 -78.5t-13.5 -104t33 -125q11 -24 -4 -44.5t-45 -31.5l-193 -69q-42 86 -47 172z" />
<glyph unicode="&#x2019;" horiz-adv-x="444" d="M106 1028q0 14 7.5 24.5t22.5 26.5q13 15 35.5 48t36.5 79t13 104t-33 125q-11 24 4 44.5t46 31.5l192 69q41 -86 46.5 -172t-22.5 -168.5t-89 -159t-152 -142.5l-87 55q-9 5 -14.5 15t-5.5 20z" />
<glyph unicode="&#x201a;" horiz-adv-x="441" d="M-67 -220q0 14 7.5 24.5t22.5 26.5q13 15 35 48t36.5 79t13.5 104t-33 124q-11 24 4 45t46 32l192 69q41 -86 46.5 -172t-22.5 -168.5t-89 -159.5t-152 -142l-87 55q-9 5 -14.5 15t-5.5 20z" />
<glyph unicode="&#x201c;" horiz-adv-x="784" d="M125 978zM130 1150q-5 86 23 168.5t89 158.5t152 143l87 -55q9 -5 14.5 -15t5.5 -20q0 -14 -7.5 -24.5t-22.5 -27.5q-13 -15 -35 -47.5t-36.5 -78.5t-13.5 -104t33 -125q11 -24 -4 -44.5t-45 -31.5l-193 -69q-42 86 -47 172zM467 1150q-5 86 23 168.5t89 158.5t152 143 l87 -55q9 -5 14.5 -15t5.5 -20q0 -14 -7.5 -24.5t-22.5 -27.5q-13 -15 -35 -47.5t-36.5 -78.5t-13.5 -104t33 -125q11 -24 -4 -44.5t-45 -31.5l-193 -69q-42 86 -47 172z" />
<glyph unicode="&#x201d;" horiz-adv-x="782" d="M106 938zM106 1028q0 14 7.5 24.5t22.5 26.5q13 15 35 48t36.5 79t13.5 104t-33 124q-11 24 4 45t46 32l192 69q41 -86 46.5 -172t-22.5 -168.5t-89 -159.5t-152 -142l-87 55q-9 5 -14.5 15t-5.5 20zM443 1028q0 14 7.5 24.5t22.5 26.5q13 15 35 48t36.5 79t13.5 104 t-33 124q-11 24 4 45t46 32l192 69q41 -86 46.5 -172t-22.5 -168.5t-89 -159.5t-152 -142l-87 55q-9 5 -14.5 15t-5.5 20z" />
<glyph unicode="&#x201e;" horiz-adv-x="778" d="M-67 -220q0 14 7.5 24.5t22.5 26.5q13 15 35 48t36.5 79t13.5 104t-33 124q-11 24 4 45t46 32l192 69q41 -86 46.5 -172t-22.5 -168.5t-89 -159.5t-152 -142l-87 55q-9 5 -14.5 15t-5.5 20zM0 0zM270 -220q0 14 7.5 24.5t22.5 26.5q13 15 35 48t36.5 79t13.5 104t-33 124 q-11 24 4 45t46 32l192 69q41 -86 46.5 -172t-22.5 -168.5t-89 -159.5t-152 -142l-87 55q-9 5 -14.5 15t-5.5 20z" />
<glyph unicode="&#x2020;" d="M116 871l12 99q3 25 14.5 47t31 39.5t47.5 28.5t65 11q26 0 55 -5.5t59.5 -12.5t63 -15t63.5 -14l19 461q34 17 75.5 27.5t86.5 10.5t83 -10t68 -28l-94 -461q34 6 67.5 14t66.5 15t63 12.5t57 5.5q37 0 62 -11t40.5 -28.5t20.5 -40t2 -46.5l-12 -99h-390l-43 -360 l-63 -835q-36 -19 -77.5 -28t-86.5 -9t-83.5 9t-67.5 28l141 835l43 360h-389z" />
<glyph unicode="&#x2021;" d="M37 217l12 98h389l31 246l38 310h-390l12 99q3 25 14.5 47t31 39.5t47.5 28.5t65 11q26 0 55 -5.5t59.5 -12.5t63 -15t63.5 -14l19 461q34 17 75.5 27.5t86.5 10.5t83 -10t68 -28l-94 -461q34 6 67.5 14t66.5 15t63 12.5t57 5.5q37 0 62 -11t40.5 -28.5t20.5 -40t2 -46.5 l-12 -99h-391l-37 -310l-31 -246h391l-12 -98q-3 -25 -14.5 -48.5t-31 -40.5t-47.5 -28t-65 -11q-52 1 -115 17.5t-128 29.5l-15 -460q-36 -19 -77.5 -28t-86.5 -9t-83.5 9t-67.5 28l93 460q-68 -13 -134 -29.5t-119 -17.5q-37 0 -62 11t-40.5 28t-20.5 41t-2 48z" />
<glyph unicode="&#x2022;" d="M84 606q0 102 40 192.5t108.5 158t160.5 106.5t197 39t197.5 -39t161.5 -106.5t109 -157.5t40 -193q0 -101 -40 -191t-109 -157t-161.5 -105.5t-197.5 -38.5q-104 0 -196.5 38.5t-161 105.5t-108.5 157t-40 191z" />
<glyph unicode="&#x2026;" horiz-adv-x="1625" d="M13 161q0 37 14 68.5t38 55t57 37.5t72 14q38 0 70.5 -14t57 -37.5t38.5 -55t14 -68.5t-14 -69.5t-38.5 -56t-57.5 -36.5t-70 -13q-39 0 -72 13t-57 36.5t-38 56t-14 69.5zM579 161q0 37 13.5 68.5t37.5 55t57 37.5t72 14q38 0 70.5 -14t57 -37.5t38.5 -55t14 -68.5 t-14 -69.5t-38.5 -56t-57 -36.5t-70.5 -13q-39 0 -72 13t-57 36.5t-37.5 56t-13.5 69.5zM1144 161q0 37 13.5 68.5t38 55t57 37.5t71.5 14q38 0 70.5 -14t57.5 -37.5t38.5 -55t13.5 -68.5t-13.5 -69.5t-38.5 -56t-57.5 -36.5t-70.5 -13q-39 0 -71.5 13t-57 36.5t-38 56 t-13.5 69.5z" />
<glyph unicode="&#x202f;" horiz-adv-x="392" />
<glyph unicode="&#x2030;" horiz-adv-x="2292" d="M41 0l1216 1445q17 16 40.5 30.5t62.5 14.5h223l-1218 -1447q-17 -17 -40.5 -30t-56.5 -13h-227zM125 1078q0 95 29.5 173.5t81 135t121 87t149.5 30.5q66 0 119.5 -23t92 -65.5t59 -101.5t20.5 -131q0 -95 -33.5 -173t-87 -133.5t-122.5 -85.5t-140 -30q-66 0 -119 23 t-91 65t-58.5 100.5t-20.5 128.5zM360 1078q0 -71 21 -98.5t57 -27.5q27 0 49.5 11.5t39 38t25.5 70.5t9 109q0 74 -22 104t-58 30q-28 0 -50 -13t-37.5 -41t-24.5 -73t-9 -110zM823 298q0 96 30 175t81 135.5t120.5 87t149.5 30.5q66 0 119.5 -23.5t92 -65.5t59 -102 t20.5 -132q0 -95 -33.5 -172.5t-87 -133t-122 -85.5t-140.5 -30q-66 0 -119 23t-91 65t-58.5 100t-20.5 128zM1059 298q0 -70 21 -98t57 -28q27 0 49 11.5t38.5 38.5t26 70.5t9.5 108.5q0 75 -22.5 104t-57.5 29q-28 0 -50.5 -12.5t-38 -40.5t-24 -73.5t-8.5 -109.5z M1530 298q0 96 29.5 175t81 135.5t121 87t149.5 30.5q66 0 119 -23.5t91.5 -65.5t59.5 -102t21 -132q0 -95 -33.5 -172.5t-87 -133t-122.5 -85.5t-140 -30q-66 0 -119 23t-91 65t-58.5 100t-20.5 128zM1765 298q0 -70 21 -98t57 -28q26 0 48.5 11.5t39.5 38.5t26 70.5 t9 108.5q0 75 -22 104t-58 29q-28 0 -50 -12.5t-37.5 -40.5t-24.5 -73.5t-9 -109.5z" />
<glyph unicode="&#x2039;" horiz-adv-x="559" d="M60 538l7 37l299 410l94 -45q37 -16 39 -47t-23 -66l-135 -224q-20 -31 -42 -47q17 -19 30 -46l82 -224q15 -36 5 -67t-50 -48l-107 -45z" />
<glyph unicode="&#x203a;" horiz-adv-x="558" d="M41.5 219q-2.5 31 20.5 67l138 224q18 27 41 45q-18 18 -29 48l-84 224q-14 35 -3.5 66t50.5 47l107 45l196 -410l-4 -37l-299 -412l-94 45q-37 17 -39.5 48z" />
<glyph unicode="&#x2044;" horiz-adv-x="286" d="M-480 0l974 1390q36 48 77.5 74t97.5 26h125l-985 -1403q-18 -26 -37.5 -42.5t-39.5 -26.5t-41.5 -14t-45.5 -4h-125z" />
<glyph unicode="&#x205f;" horiz-adv-x="490" />
<glyph unicode="&#x20a3;" d="M14 279l21 162h163l130 1049h911l-33 -257h-574l-41 -330h456l-33 -257h-455l-25 -205h287l-20 -162h-288l-34 -279h-336l34 279h-163z" />
<glyph unicode="&#x20a4;" d="M-25 0l25 184q70 14 106 54t46 116l15 130h-149l21 163h148l13 99h-148l11 91q2 13 10 26.5t20 23.5t28 16.5t35 6.5h63l14 114q12 97 56 184.5t116 153.5t171.5 105t222.5 39q90 0 157.5 -20.5t117.5 -56t84 -86.5t56 -110l-133 -79q-43 -20 -81 -18t-68 36 q-18 23 -34 39.5t-34 26.5t-41 14.5t-55 4.5q-88 0 -148 -59.5t-73 -171.5l-13 -116h435l-21 -164h-434l-12 -99h435l-12 -90q-2 -13 -10 -26.5t-20 -23.5t-28 -16.5t-34 -6.5h-351l-5 -48q-8 -65 -29.5 -115.5t-60.5 -94.5q50 11 100 18t99 7h530l-16 -123 q-3 -23 -15.5 -45.5t-31.5 -40.5t-44.5 -30t-54.5 -12h-979z" />
<glyph unicode="&#x20a7;" d="M52 0l110 899h-85l20 163h85l52 428h379q132 0 227 -28t155.5 -81.5t89 -129.5t28.5 -173q0 -5 -0.5 -8.5t-0.5 -7.5h130l-20 -163h-125q-20 -101 -67 -181.5t-121.5 -136.5t-179.5 -85.5t-243 -29.5h-64l-56 -466h-314zM451 699h66q58 0 105.5 11t82.5 34.5t59 62 t38 92.5h-327zM496 1062h322q-1 51 -13.5 88t-41 61t-73 35.5t-107.5 11.5h-64z" />
<glyph unicode="&#x20ac;" d="M16 544l21 163h102q2 26 4.5 50t7.5 49h-102l21 163h118q40 124 104.5 222.5t149 168.5t185 107t211.5 37q72 0 132 -14.5t109 -42.5t87 -66.5t65 -85.5l-123 -113q-14 -13 -28.5 -23t-39.5 -10q-16 0 -27.5 7.5t-23 18.5t-25 24t-33 24t-47 18.5t-67.5 7.5 q-105 0 -187.5 -71.5t-128.5 -208.5h488l-10 -92q-5 -25 -30 -48t-64 -23h-422q-3 -24 -5.5 -49t-4.5 -50h407l-12 -91q-2 -13 -10 -26t-20 -23.5t-28 -16.5t-34 -6h-302q12 -151 72 -227t156 -76q67 0 107 17.5t67.5 40t47 40t44.5 17.5q14 0 23 -3t18 -14l119 -120 q-85 -115 -206.5 -174t-266.5 -59q-120 0 -210 41.5t-152 115.5t-96 176.5t-41 224.5h-120z" />
<glyph unicode="&#x2113;" horiz-adv-x="1186" d="M37 664q43 8 84.5 16.5t82.5 19.5q14 101 45 201t76.5 190t104.5 166.5t131 133t155 88t175 31.5q75 0 131.5 -24t95 -66.5t57.5 -99.5t19 -124q0 -101 -50.5 -190.5t-143 -166.5t-221.5 -142.5t-285 -119.5q0 -101 8.5 -166.5t23.5 -103.5t36.5 -52t47.5 -14 q33 0 64.5 17.5t58 46t48.5 63t36 68.5l262 -60q-32 -87 -85 -158.5t-122.5 -122.5t-153.5 -79t-177 -28q-74 0 -136 26.5t-107.5 86t-72.5 155t-31 233.5q-60 -15 -118 -27zM516 804q91 38 166.5 82.5t129.5 92.5t84 99t30 104q0 45 -21.5 72t-60.5 27q-46 0 -95 -37.5 t-94 -102t-81 -151.5t-58 -186z" />
<glyph unicode="&#x2122;" horiz-adv-x="1446" d="M155 1323l22 167h483l-22 -167h-138l-57 -459h-206l54 459h-136zM626 864l75 626h183q13 0 21.5 -1t16 -4t13 -9.5t12.5 -16.5l53 -231q6 -20 11.5 -41t10.5 -41q9 20 20 40.5t24 41.5l115 231q9 10 16.5 16.5t15.5 9.5t17 4t22 1h181l-76 -626h-185l33 269l26 107 l-145 -277q-14 -20 -33.5 -31.5t-43.5 -11.5h-29q-24 0 -40.5 11t-25.5 32l-73 270l-2 -100l-31 -269h-182z" />
<glyph unicode="&#x2126;" horiz-adv-x="1455" d="M25 100l20 165h334l15 122q-71 26 -123.5 70t-87.5 102t-51.5 128t-16.5 147q0 136 52 258t147.5 214.5t227.5 146t292 53.5q136 0 243 -43t180 -116t111.5 -170t38.5 -204q0 -100 -26.5 -194t-78 -172t-127.5 -135.5t-176 -87.5l-14 -119h336l-21 -165q-5 -45 -38 -72.5 t-84 -27.5h-482l70 548q59 10 113 37.5t95 77t65 122.5t24 174q0 136 -65 213t-197 77q-87 0 -152 -28.5t-108 -82.5t-64.5 -130.5t-21.5 -172.5q0 -67 16 -117t45.5 -85t69 -56t84.5 -29l-68 -548h-481q-51 0 -77 27.5t-19 72.5z" />
<glyph unicode="&#x212e;" horiz-adv-x="1660" d="M94 734q0 108 25.5 206.5t73.5 184t116 156t153 120t184.5 76.5t211.5 27q127 0 231.5 -29.5t186.5 -82.5t142.5 -125.5t101.5 -158t62.5 -181.5t25.5 -195h-1051v-171q0 -82 26.5 -151.5t76.5 -120.5t121 -80t161 -29q62 0 120.5 12.5t112 39.5t101.5 70t90 106 l170 -118q-48 -74 -109.5 -132.5t-142.5 -99t-183.5 -61.5t-230.5 -21q-178 0 -321 55t-244.5 155t-156 239t-54.5 309zM557 923h623v47q0 81 -20 145t-59 108.5t-96.5 68t-132.5 23.5q-70 0 -128 -24.5t-99.5 -70t-64.5 -110t-23 -143.5v-44z" />
<glyph unicode="&#x2202;" horiz-adv-x="1129" d="M26 433q14 121 66 224t129 178t174 118t200 43q82 0 137 -24t91 -68l3 24q10 85 3 148.5t-27.5 105t-53 62t-73.5 20.5q-30 0 -60.5 -10.5t-59 -22.5t-53 -22.5t-42.5 -10.5q-17 0 -33 10t-31 39l-54 118q44 32 89 58t93.5 44.5t104 28t122.5 9.5q91 0 165 -39.5 t122.5 -114t68.5 -181t4 -240.5q-27 -217 -85 -392.5t-147 -298t-210 -189t-273 -66.5q-91 0 -165 31.5t-124 90t-72 141.5t-9 186zM353 437q-12 -103 16.5 -159.5t93.5 -56.5q36 0 74 18t75.5 60t72 111t63.5 172q-4 36 -13 68t-26.5 56t-44 38.5t-66.5 14.5 q-55 0 -97 -23.5t-72.5 -66t-49 -102t-26.5 -130.5z" />
<glyph unicode="&#x2206;" horiz-adv-x="1549" d="M-19 0l753 1490h303l385 -1490h-1441zM440 255h587l-149 739q-8 33 -17 75t-17 91q-20 -50 -39.5 -92.5t-35.5 -75.5z" />
<glyph unicode="&#x220f;" horiz-adv-x="1461" d="M106 -339l195 1582h-158l31 247h1323l-31 -247h-155l-195 -1582h-315l192 1582h-377l-194 -1582h-316z" />
<glyph unicode="&#x2211;" horiz-adv-x="1296" d="M-53 -337l13 106q3 23 14.5 46.5t30.5 43.5l609 723l-435 711q-14 20 -18.5 45.5t-1.5 47.5l13 106h1149l-33 -257h-672l350 -612l-13 -91l-498 -613h673l-32 -256h-1149z" />
<glyph unicode="&#x2212;" d="M123 579l27 219h927l-28 -219h-926z" />
<glyph unicode="&#x2215;" horiz-adv-x="1009" d="M-119 0l974 1390q36 48 77.5 74t97.5 26h125l-985 -1403q-18 -26 -37.5 -42.5t-39.5 -26.5t-41.5 -14t-45.5 -4h-125zM0 0z" />
<glyph unicode="&#x221a;" horiz-adv-x="1265" d="M36 763l12 94h375q33 0 53 -15.5t25 -37.5l39 -254q10 -49 13.5 -98.5t3.5 -100.5q11 39 26 79t32 83l500 1176q11 24 35.5 39.5t54.5 15.5h203l-774 -1744h-258l-156 643h-84q-24 0 -43.5 6t-33.5 20.5t-20.5 37.5t-2.5 56z" />
<glyph unicode="&#x221e;" horiz-adv-x="1378" d="M63 606q10 84 46 155.5t88 122.5t116 79.5t131 28.5q51 0 92 -12.5t73.5 -34.5t57.5 -52t46 -64q29 34 61.5 64t70.5 52t81.5 34.5t94.5 12.5q68 0 125 -28.5t96.5 -79.5t57.5 -122.5t8 -155.5q-10 -85 -46 -155.5t-88.5 -122.5t-116.5 -80.5t-132 -28.5q-51 0 -91.5 13 t-73 35t-57.5 51.5t-46 63.5q-29 -34 -61.5 -63.5t-70.5 -51.5t-82 -35t-95 -13q-68 0 -124.5 28.5t-95.5 80.5t-57 122.5t-8 155.5zM310 606q-5 -39 0.5 -65.5t17.5 -43t29.5 -23.5t36.5 -7q46 0 85 39.5t79 98.5q-12 30 -26 55.5t-29.5 44.5t-34 29.5t-41.5 10.5 q-19 0 -38 -7t-35 -23.5t-28 -43t-16 -65.5zM813 607q12 -30 25.5 -55.5t29.5 -44.5t34 -29.5t42 -10.5q19 0 38 7t35 23.5t27.5 43t16.5 65.5q4 39 -1 65.5t-17.5 43t-30 23.5t-35.5 7q-46 0 -85.5 -39t-78.5 -99z" />
<glyph unicode="&#x222b;" horiz-adv-x="827" d="M-97 -305l16 129q1 15 4.5 27t12.5 20t23.5 12t39.5 4q58 0 95 10.5t59.5 32t33 54.5t15.5 81l130 1195q13 108 49.5 186t91.5 129.5t128 76t160 24.5q39 0 84.5 -8.5t87.5 -29.5l-17 -129q-2 -15 -5 -27t-11.5 -20t-23.5 -12.5t-39 -4.5q-58 0 -95 -10.5t-60 -32 t-33 -54.5t-15 -79l-130 -1195q-14 -108 -50 -186.5t-91.5 -130.5t-128 -76.5t-159.5 -24.5q-39 0 -84.5 8.5t-87.5 30.5z" />
<glyph unicode="&#x2248;" d="M133 550q49 59 122.5 86.5t150.5 27.5q54 0 106.5 -15.5t103 -34t97.5 -34t90 -15.5q34 0 66.5 8t60 18.5t47 22t27.5 18.5l10 -189q-49 -53 -119.5 -76t-140.5 -23q-54 0 -107 15t-102.5 33t-97 32.5t-91.5 14.5q-35 0 -68.5 -7.5t-61 -18.5t-47.5 -22.5t-27 -20.5z M178 927q51 59 124.5 85t150.5 26q53 0 105.5 -14.5t103 -32.5t97.5 -33t91 -15q34 0 66.5 7.5t60 18t46.5 21.5t28 19l10 -188q-49 -55 -119.5 -78.5t-140.5 -23.5q-54 0 -107 15.5t-103 33.5t-97.5 33.5t-90.5 15.5q-36 0 -69.5 -8t-61 -19.5t-47 -23.5t-26.5 -22z" />
<glyph unicode="&#x2260;" d="M155 162l667 1034h217l-667 -1034h-217z" />
<glyph unicode="&#x2264;" d="M101 82l30 227h830l-30 -227h-830zM187 775l4 32l13 92l876 390l-26 -211q-3 -24 -18.5 -45.5t-57.5 -37.5l-291 -119q-62 -22 -137 -37q69 -15 128 -39l262 -124q38 -16 48 -38t7 -45l-26 -211z" />
<glyph unicode="&#x2265;" d="M124 82l30 227h829l-30 -227h-829zM162 382l26 211q3 24 19 45t59 38l289 124q32 11 65.5 20.5t71.5 18.5q-69 14 -128 37l-262 119q-39 15 -48.5 37.5t-6.5 45.5l26 211l783 -390l-13 -92l-4 -32z" />
<glyph unicode="&#x25ca;" d="M119 752l381 823h221l381 -823l-381 -824h-221zM377 752l192 -447q12 -32 22.5 -58.5t18.5 -51.5q8 26 18.5 52t22.5 58l199 447l-199 447q-12 31 -22.5 57.5t-18.5 52.5q-8 -26 -18 -52.5t-23 -57.5z" />
<glyph unicode="&#x25fc;" horiz-adv-x="1059" d="M0 0v1060h1060v-1060h-1060z" />
<glyph unicode="&#xf8ff;" horiz-adv-x="1615" d="M82 443q0 158 36 316.5t106.5 303t176.5 268.5t246 212l4 -12q-87 -58 -154 -152t-116 -206.5t-82.5 -237.5t-53 -247.5t-28 -235t-8.5 -199.5t11 -148t31 -107t47 -81t58 -70l-12 -12q-60 56 -108.5 115.5t-82.5 131t-52.5 159.5t-18.5 202zM438 835v223l123 12l103 250 h264v-258h178v-252h-178v-350q0 -39 26 -61.5t80 -22.5q9 0 25.5 0.5t34.5 3.5l20 -219q-51 -20 -109.5 -31.5t-121.5 -11.5q-98 0 -164 23.5t-106 69.5t-56 113.5t-16 155.5v307zM965 -153q87 58 154 151.5t116 205.5t82 237t53.5 247t28.5 233.5t8 199.5t-11.5 150 t-31 108t-46.5 81.5t-58 70.5l12 12q60 -57 109 -116.5t82.5 -131t52 -159.5t18.5 -201q0 -158 -36 -316t-106.5 -303t-176.5 -269t-246 -212z" />
<glyph horiz-adv-x="753" d="M166 1912h303q22 0 37.5 -1.5t28 -6t22 -14t20.5 -25.5l165 -277h-213q-17 0 -29.5 0.5t-22.5 3.5t-18.5 9t-19.5 17z" />
<glyph horiz-adv-x="753" d="M394 1588l209 277q13 16 25.5 26t26 14.5t29.5 5.5t38 1h321l-336 -292q-13 -11 -24 -17.5t-23 -9.5t-24.5 -4t-29.5 -1h-212z" />
<glyph horiz-adv-x="753" d="M198 1588l262 285h265l199 -285h-211q-9 0 -19.5 1t-22.5 5.5t-23.5 14t-21.5 26.5l-39 80l-15 26l-19 -26l-55 -80q-31 -34 -56 -40.5t-43 -6.5h-201z" />
<glyph horiz-adv-x="753" d="M220 1873h211q17 0 41 -4.5t40 -31.5l46 -91l13 -27l21 27l63 90q10 13 22.5 21t24.5 11.5t23 4t19 0.5h211l-262 -285h-275z" />
<glyph horiz-adv-x="753" d="M199 1578q6 56 26.5 108.5t52.5 93.5t75 65.5t96 24.5t88.5 -15.5t62.5 -34.5t48 -34.5t46 -15.5q20 0 35.5 9t26 23t16 29.5t7.5 30.5h177q-6 -56 -26 -108.5t-52 -93t-75 -64.5t-96 -24q-52 0 -87.5 15.5t-63 34t-49 34t-45.5 15.5q-20 0 -35.5 -9t-26 -23t-16 -30.5 t-6.5 -30.5h-179z" />
<glyph horiz-adv-x="753" d="M188 1706q0 34 13.5 63t35.5 51.5t51 35.5t62 13q35 0 65 -13t53.5 -35.5t36.5 -51.5t13 -63q0 -33 -13 -61.5t-36.5 -49.5t-53.5 -33.5t-65 -12.5q-33 0 -62 12.5t-51 33.5t-35.5 49.5t-13.5 61.5zM614 1706q0 34 13 63t35.5 51.5t52 35.5t63.5 13q35 0 65 -13t53 -35.5 t35.5 -51.5t12.5 -63q0 -33 -12.5 -61.5t-35.5 -49.5t-53 -33.5t-65 -12.5q-34 0 -63.5 12.5t-52 33.5t-35.5 49.5t-13 61.5z" />
<glyph horiz-adv-x="753" d="M254 1593l21 174h603l-21 -174h-603z" />
<glyph horiz-adv-x="753" d="M251 1872h222q-5 -50 16.5 -78t87.5 -28t93 28t32 78h223q-7 -67 -38 -120t-80 -90.5t-113.5 -57.5t-138.5 -20t-134 17t-100.5 52.5t-59 89.5t-10.5 129z" />
<glyph horiz-adv-x="753" d="M362 1755q5 47 27.5 85.5t54 65.5t71 42t80.5 15q43 0 80.5 -15t64 -42t39.5 -65.5t7 -85.5q-5 -45 -26.5 -82.5t-53.5 -64t-73 -41t-84 -14.5q-41 0 -77.5 14.5t-62.5 41t-39 64t-8 82.5zM501 1755q-4 -36 11.5 -59t54.5 -23q34 0 56 23t26 59q4 39 -13.5 61.5 t-50.5 22.5q-38 0 -59 -22.5t-25 -61.5z" />
<glyph horiz-adv-x="753" d="M279 1588l147 223q19 29 49 45.5t74 16.5h188l-222 -241q-25 -20 -45 -32t-53 -12h-138zM590 1588l195 223q25 27 56 44.5t75 17.5h218l-280 -241q-26 -22 -50.5 -33t-57.5 -11h-156z" />
<glyph horiz-adv-x="753" d="M389 1742q0 38 15.5 71.5t41.5 59t59 40.5t68 15q37 0 71 -15t60 -40t42 -59t16 -72t-16.5 -72t-43 -59t-61 -39t-70.5 -14t-68.5 14t-57.5 39t-40.5 59t-15.5 72z" />
<glyph horiz-adv-x="753" d="M191 -397l88 310h195q28 0 35.5 -12t7.5 -23t-3.5 -28t-14.5 -43t-29.5 -63t-50.5 -88q-20 -34 -47.5 -43.5t-67.5 -9.5h-113z" />
<glyph horiz-adv-x="753" d="M388 1202l148 291h183l-82 -291h-249z" />
<glyph horiz-adv-x="684" d="M61 564l271 202h184l-76 -612h88l-18 -154h-440l20 154h132l36 299l12 54l-59 -43q-16 -10 -31 -12.5t-27.5 0.5t-22 9t-13.5 13z" />
<glyph horiz-adv-x="684" d="M-28 0l11 69q2 19 12.5 42t32.5 41l229 201q26 23 48 48.5t38.5 51t26.5 50t10 46.5q0 24 -10.5 40t-34.5 16t-39 -11.5t-31 -35.5q-10 -13 -19.5 -22.5t-22 -14.5t-28 -6t-36.5 2l-119 20q34 123 121 180t207 57q59 0 103.5 -16.5t73.5 -44t43.5 -64.5t14.5 -78 q0 -47 -15.5 -86t-41.5 -73t-59.5 -66t-69.5 -64l-124 -113q35 10 68 15.5t60 5.5h82q34 0 51 -17t12 -47l-14 -126h-580z" />
</font>
</defs>
</svg>
